<svg id="Group_27" data-name="Group 27" xmlns="http://www.w3.org/2000/svg" width="23.295" height="23.295" viewBox="0 0 23.295 23.295">
  <g id="Layer_2" data-name="Layer 2">
    <g id="Graphic_Elements" data-name="Graphic Elements">
      <g id="Group_21" data-name="Group 21">
        <path id="Path_4" data-name="Path 4" d="M165.883,162.542a11.729,11.729,0,0,1-2.7-.316,11.645,11.645,0,0,1-8.658-14.008h0a11.64,11.64,0,1,1,11.355,14.324Zm-.042-22.485A10.842,10.842,0,0,0,155.32,148.4h0a10.831,10.831,0,1,0,13.03-8.054A10.915,10.915,0,0,0,165.841,140.057Zm-10.917,8.254h0Z" transform="translate(-154.213 -139.247)" fill="#9b9b9b"/>
      </g>
      <g id="Group_22" data-name="Group 22" transform="translate(5.59 8.749)">
        <path id="Path_5" data-name="Path 5" d="M183.428,185.964a.993.993,0,1,1,.993.993h0A.993.993,0,0,1,183.428,185.964Z" transform="translate(-183.428 -184.971)" fill="#9b9b9b"/>
      </g>
      <g id="Group_23" data-name="Group 23" transform="translate(15.72 8.749)">
        <path id="Path_6" data-name="Path 6" d="M236.368,185.964a.993.993,0,1,1,.993.993.993.993,0,0,1-.993-.993Z" transform="translate(-236.368 -184.971)" fill="#9b9b9b"/>
      </g>
      <g id="Group_24" data-name="Group 24" transform="translate(5.798 12.973)">
        <path id="Path_7" data-name="Path 7" d="M184.92,211.433a.407.407,0,0,1-.373-.569,6.338,6.338,0,0,1,11.632,0,.407.407,0,1,1-.746.323,5.525,5.525,0,0,0-10.139,0A.407.407,0,0,1,184.92,211.433Z" transform="translate(-184.513 -207.043)" fill="#9b9b9b"/>
      </g>
      <g id="Group_25" data-name="Group 25" transform="translate(5.337 5.932)">
        <path id="Path_8" data-name="Path 8" d="M185.108,172.634a.405.405,0,0,1-.21-.059L182.3,171a.407.407,0,1,1,.422-.7l2.6,1.575a.407.407,0,0,1-.211.754Z" transform="translate(-182.103 -170.245)" fill="#9b9b9b"/>
      </g>
      <g id="Group_26" data-name="Group 26" transform="translate(14.546 5.932)">
        <path id="Path_9" data-name="Path 9" d="M230.64,172.633a.407.407,0,0,1-.211-.754l2.6-1.575a.407.407,0,1,1,.421.7l-2.6,1.575A.4.4,0,0,1,230.64,172.633Z" transform="translate(-230.233 -170.245)" fill="#9b9b9b"/>
      </g>
    </g>
  </g>
</svg>
