<svg id="Group_44" data-name="Group 44" xmlns="http://www.w3.org/2000/svg" width="23.278" height="23.289" viewBox="0 0 23.278 23.289">
  <g id="Layer_2" data-name="Layer 2" transform="translate(0 0)">
    <g id="Graphic_Elements" data-name="Graphic Elements">
      <g id="Group_40" data-name="Group 40">
        <path id="Path_22" data-name="Path 22" d="M738.495,162.2a11.645,11.645,0,1,1,8.234-3.411A11.569,11.569,0,0,1,738.495,162.2Zm0-22.476a10.831,10.831,0,1,0,7.659,3.173A10.76,10.76,0,0,0,738.495,139.726Z" transform="translate(-726.856 -138.913)" fill="#9b9b9b"/>
      </g>
      <g id="Group_41" data-name="Group 41" transform="translate(5.581 8.034)">
        <path id="Path_23" data-name="Path 23" d="M756.023,181.893a.993.993,0,1,1,.995.991h0A.993.993,0,0,1,756.023,181.893Z" transform="translate(-756.023 -180.898)" fill="#9b9b9b"/>
      </g>
      <g id="Group_42" data-name="Group 42" transform="translate(15.711 8.034)">
        <path id="Path_24" data-name="Path 24" d="M808.963,181.893a.993.993,0,1,1,1,.991h0A.993.993,0,0,1,808.963,181.893Z" transform="translate(-808.963 -180.898)" fill="#9b9b9b"/>
      </g>
      <g id="Group_43" data-name="Group 43" transform="translate(5.789 12.259)">
        <path id="Path_25" data-name="Path 25" d="M768.4,207.37a.407.407,0,0,1-.373-.245,5.525,5.525,0,0,0-10.14,0,.407.407,0,0,1-.746-.323,6.338,6.338,0,0,1,11.632,0,.407.407,0,0,1-.373.568Z" transform="translate(-757.108 -202.98)" fill="#9b9b9b"/>
      </g>
    </g>
  </g>
</svg>
