<svg id="Group_67" data-name="Group 67" xmlns="http://www.w3.org/2000/svg" width="23.289" height="23.278" viewBox="0 0 23.289 23.278">
  <g id="Layer_2" data-name="Layer 2" transform="translate(0 0)">
    <g id="Graphic_Elements" data-name="Graphic Elements">
      <g id="Group_28" data-name="Group 28">
        <path id="Path_10" data-name="Path 10" d="M355.545,162.372a11.641,11.641,0,0,1-8.234-19.873h0a11.645,11.645,0,1,1,8.234,19.873Zm0-22.465a10.8,10.8,0,0,0-7.659,3.167h0a10.843,10.843,0,1,0,7.659-3.167Zm-7.947,2.88h0Z" transform="translate(-343.9 -139.094)" fill="#9b9b9b"/>
      </g>
      <g id="Group_29" data-name="Group 29" transform="translate(4.565 7.685)">
        <path id="Path_11" data-name="Path 11" d="M372.893,181.847a.766.766,0,0,0-1.036.315v0a.591.591,0,0,0-.077.293.621.621,0,0,0-.078-.293.765.765,0,0,0-1.035-.318h0a.776.776,0,0,0-.4.6c-.05.49.44.792.765,1.073q.371.321.754.637.336-.287.668-.574c.161-.138.321-.277.478-.421a.835.835,0,0,0,.371-.677A.775.775,0,0,0,372.893,181.847Z" transform="translate(-369.78 -181.278)" fill="#9b9b9b"/>
        <path id="Path_12" data-name="Path 12" d="M369.758,182.612a.477.477,0,0,1-.3-.109q-.387-.319-.763-.644c-.046-.04-.1-.08-.146-.121a1.591,1.591,0,0,1-.782-1.362,1.257,1.257,0,0,1,.653-.972,1.655,1.655,0,0,0,1.732-.094,1.235,1.235,0,0,1,.947.093h0a1.261,1.261,0,0,1,.656,1.03,1.3,1.3,0,0,1-.528,1.06c-.158.145-.323.288-.487.429q-.332.286-.669.575A.477.477,0,0,1,369.758,182.612Zm-.757-2.4a.285.285,0,0,0-.134.033.3.3,0,0,0-.153.229c-.015.143.17.305.433.519.059.048.116.094.169.14q.216.187.436.373l.36-.31c.158-.135.315-.272.468-.412.2-.181.219-.23.216-.306a.3.3,0,0,0-.154-.234.287.287,0,0,0-.387.119l-.013.024a.12.12,0,0,0-.008.045.478.478,0,0,1-.474.48h0a.478.478,0,0,1-.478-.471.139.139,0,0,0-.018-.066.289.289,0,0,0-.259-.162Z" transform="translate(-367.757 -179.255)" fill="#9b9b9b"/>
      </g>
      <g id="Group_30" data-name="Group 30" transform="translate(14.714 7.684)">
        <path id="Path_13" data-name="Path 13" d="M423.716,181.843a.765.765,0,0,1,1.035.317h0a.62.62,0,0,1,.078.293.59.59,0,0,1,.077-.293.765.765,0,0,1,1.439.281c.05.49-.44.792-.765,1.073q-.373.321-.754.637c-.224-.191-.448-.383-.668-.574-.161-.138-.321-.277-.478-.421a.878.878,0,0,1-.383-.677A.765.765,0,0,1,423.716,181.843Z" transform="translate(-422.819 -181.273)" fill="#9b9b9b"/>
        <path id="Path_14" data-name="Path 14" d="M422.8,182.608a.479.479,0,0,1-.311-.114c-.225-.192-.45-.385-.671-.577-.162-.139-.327-.282-.488-.429a1.339,1.339,0,0,1-.538-1.03c0-.01,0-.019,0-.029a30.475,30.475,0,0,0,2.4-1.122,1.244,1.244,0,0,1,1.606,1.066,1.592,1.592,0,0,1-.782,1.361c-.051.041-.1.081-.146.121q-.377.325-.761.643A.477.477,0,0,1,422.8,182.608Zm-1.05-2.135c0,.077.033.134.224.307.156.143.313.279.47.413l.36.311q.22-.186.438-.373c.052-.046.11-.092.168-.14.263-.214.448-.376.433-.523a.287.287,0,0,0-.54-.107.135.135,0,0,0-.021.069.478.478,0,0,1-.475.479h0a.478.478,0,0,1-.478-.472.137.137,0,0,0-.018-.065.292.292,0,0,0-.175-.15.283.283,0,0,0-.219.021l-.009,0A.288.288,0,0,0,421.754,180.473Zm-.06-.652h0Z" transform="translate(-420.797 -179.25)" fill="#9b9b9b"/>
      </g>
      <g id="Group_31" data-name="Group 31" transform="translate(5.195 13.113)">
        <path id="Path_15" data-name="Path 15" d="M377.5,212.885a6.738,6.738,0,0,1-6.426-4.733.407.407,0,0,1,.777-.242,5.921,5.921,0,0,0,11.307,0,.407.407,0,1,1,.776.242A6.747,6.747,0,0,1,377.5,212.885Z" transform="translate(-371.051 -207.624)" fill="#9b9b9b"/>
      </g>
      <g id="Group_32" data-name="Group 32" transform="translate(4.524 12.836)">
        <path id="Path_16" data-name="Path 16" d="M367.948,207.541a.407.407,0,0,1-.176-.773l1.152-.553a.407.407,0,0,1,.352.733l-1.152.553A.41.41,0,0,1,367.948,207.541Z" transform="translate(-367.541 -206.174)" fill="#9b9b9b"/>
      </g>
      <g id="Group_33" data-name="Group 33" transform="translate(16.799 12.835)">
        <path id="Path_17" data-name="Path 17" d="M433.251,207.539a.4.4,0,0,1-.175-.04l-1.154-.553a.407.407,0,1,1,.351-.733l1.154.553a.407.407,0,0,1-.176.773Z" transform="translate(-431.691 -206.172)" fill="#9b9b9b"/>
      </g>
    </g>
  </g>
</svg>
