<svg id="Group_39" data-name="Group 39" xmlns="http://www.w3.org/2000/svg" width="23.289" height="23.289" viewBox="0 0 23.289 23.289">
  <g id="Layer_2" data-name="Layer 2" transform="translate(0 0)">
    <g id="Graphic_Elements" data-name="Graphic Elements">
      <g id="Group_36" data-name="Group 36" transform="translate(15.716 8.034)">
        <path id="Path_19" data-name="Path 19" d="M618.6,182.957a.993.993,0,1,1,.995.991h0A.993.993,0,0,1,618.6,182.957Z" transform="translate(-618.6 -181.962)" fill="#9b9b9b"/>
      </g>
      <g id="Group_37" data-name="Group 37">
        <path id="Path_20" data-name="Path 20" d="M548.11,163.266a11.645,11.645,0,1,1,11.645-11.645A11.658,11.658,0,0,1,548.11,163.266Zm0-22.476a10.831,10.831,0,1,0,10.832,10.831A10.844,10.844,0,0,0,548.11,140.79Z" transform="translate(-536.466 -139.977)" fill="#9b9b9b"/>
      </g>
      <g id="Group_38" data-name="Group 38" transform="translate(5.436 14.305)">
        <path id="Path_21" data-name="Path 21" d="M576.885,215.55h-11.6a.407.407,0,0,1,0-.813h11.6a.407.407,0,0,1,0,.813Z" transform="translate(-564.875 -214.737)" fill="#9b9b9b"/>
      </g>
    </g>
  </g>
</svg>
