<svg xmlns="http://www.w3.org/2000/svg" width="23.289" height="23.278" viewBox="0 0 23.289 23.278">
  <g id="Group_72" data-name="Group 72" transform="translate(-196.509 -138.948)">
    <g id="Group_34" data-name="Group 34" transform="translate(196.509 138.948)">
      <g id="Layer_2" data-name="Layer 2" transform="translate(0 0)">
        <g id="Graphic_Elements" data-name="Graphic Elements">
          <g id="Group_28" data-name="Group 28">
            <path id="Path_10" data-name="Path 10" d="M355.545,162.372a11.641,11.641,0,0,1-8.234-19.873h0a11.645,11.645,0,1,1,8.234,19.873Zm0-22.465a10.8,10.8,0,0,0-7.659,3.167h0a10.843,10.843,0,1,0,7.659-3.167Zm-7.947,2.88h0Z" transform="translate(-343.9 -139.094)" fill="#9b9b9b"/>
          </g>
          <g id="Group_31" data-name="Group 31" transform="translate(5.195 13.113)">
            <path id="Path_15" data-name="Path 15" d="M377.5,212.885a6.738,6.738,0,0,1-6.426-4.733.407.407,0,0,1,.777-.242,5.921,5.921,0,0,0,11.307,0,.407.407,0,1,1,.776.242A6.747,6.747,0,0,1,377.5,212.885Z" transform="translate(-371.051 -207.624)" fill="#9b9b9b"/>
          </g>
        </g>
      </g>
    </g>
    <g id="Group_71" data-name="Group 71" transform="translate(200.943 147.15)">
      <path id="Path_18" data-name="Path 18" d="M565.66,182.957a.993.993,0,1,1,.995.991h0A.993.993,0,0,1,565.66,182.957Z" transform="translate(-565.66 -181.962)" fill="#9b9b9b"/>
    </g>
    <path id="Path_36" data-name="Path 36" d="M565.66,182.957a.993.993,0,1,1,.995.991h0A.993.993,0,0,1,565.66,182.957Z" transform="translate(-352.717 -34.812)" fill="#9b9b9b"/>
  </g>
</svg>
