<svg xmlns="http://www.w3.org/2000/svg" width="27.447" height="27.447" viewBox="0 0 27.447 27.447">
  <path id="Path_39" data-name="Path 39" d="M450.419,549.474h.56a13.852,13.852,0,0,1,8.86,3.5q4.537,4.6,4.537,9.661v1.308a14.422,14.422,0,0,1-2.268,6.9,14.272,14.272,0,0,1-7.633,5.524,15.951,15.951,0,0,1-3.736.561h-.08a13.833,13.833,0,0,1-13.73-13.717,14.175,14.175,0,0,1,4.23-9.914A13.98,13.98,0,0,1,450.419,549.474Zm.814,11.368v.654c0,.107-.058.16-.173.16a8.846,8.846,0,0,1-4.377-1.788l-1.134-1.054h-.093a2.027,2.027,0,0,1-.32.654v.974a3.537,3.537,0,0,0,1.134,1.868v.08a2.316,2.316,0,0,1-1.134-.32v.08q0,1.561,2.028,2.682l-.16.08h-.4l-.414-.08v.16a2.724,2.724,0,0,0,2.362,1.708v.24a6.073,6.073,0,0,1-3.176.974h-.481v.16a9.819,9.819,0,0,0,3.976,1.054,7.7,7.7,0,0,0,6-2.842,8.164,8.164,0,0,0,1.788-4.71v-.56a8.116,8.116,0,0,0,1.308-1.388v-.08a5.25,5.25,0,0,1-1.308.413l-.08-.173a2.768,2.768,0,0,0,1.134-1.214v-.08h-.08a5.787,5.787,0,0,1-1.454.574h-.24a3.249,3.249,0,0,0-1.628-.814h-.654a2.469,2.469,0,0,0-2.189,1.535A2.035,2.035,0,0,0,451.233,560.842Z" transform="translate(-436.929 -549.474)" fill="#6d6e71"/>
</svg>
