<svg xmlns="http://www.w3.org/2000/svg" width="27.22" height="27.3" viewBox="0 0 27.22 27.3">
  <path id="Path_38" data-name="Path 38" d="M257.246,549.778h.08q6.551,0,11.115,5.724a13.228,13.228,0,0,1,2.495,7.325v1.121q0,5.7-5.15,10.234a13.857,13.857,0,0,1-8.54,2.9q-7.219,0-11.755-6.845a14.482,14.482,0,0,1-1.775-7.165.537.537,0,0,1,.08-.24.071.071,0,0,0-.08-.08,14.058,14.058,0,0,1,1.041-4.59,14.663,14.663,0,0,1,3.549-4.91A13.791,13.791,0,0,1,257.246,549.778Zm-8.059,13.37v.32a20.51,20.51,0,0,1,3.79,1.374,22.914,22.914,0,0,0,1.294,3.937q.32,0,.32.08a8.819,8.819,0,0,0,2.015-1.762h.16l3.3,2.415h.561q.4,0,1.855-7.739.494-1.909.734-3.376v-.08q-.28-.481-.413-.48a29.071,29.071,0,0,0-4.99,1.762q-6.619,2.5-8.46,3.308Z" transform="translate(-243.716 -549.778)" fill="#6d6e71"/>
</svg>
