<svg xmlns="http://www.w3.org/2000/svg" width="27.78" height="27.347" viewBox="0 0 27.78 27.347">
  <path id="Path_40" data-name="Path 40" d="M365.037,555.421l-.032-.045q-4.493-5.9-11.325-5.9a14.892,14.892,0,0,0-7.036,1.876.662.662,0,0,0-.069.042Q339.79,556,339.79,563.364A14.057,14.057,0,0,0,350.17,576.8a.592.592,0,0,0,.65-.235c.031-.044.066-.09.1-.14a.575.575,0,0,0,.126-.356v-1.361l-.08-.16a7.4,7.4,0,0,0-1.148.08,3.889,3.889,0,0,1-2.724-.832.608.608,0,0,1-.128-.175,15.037,15.037,0,0,0-1.066-1.918.541.541,0,0,0-.072-.073q-1.2-1.049-1.2-1.272l.288-.121a.569.569,0,0,1,.261-.048,2.78,2.78,0,0,1,1.52.678.611.611,0,0,1,.133.152q1.226,1.967,2.4,1.967h.094a5.211,5.211,0,0,0,1.348-.163.573.573,0,0,0,.384-.385,4.021,4.021,0,0,1,.724-1.427v-.16h-.24a7.337,7.337,0,0,1-2.709-.827q-2.962-1.494-2.962-5.511a5.964,5.964,0,0,1,1.168-3.5.573.573,0,0,0,.1-.433q-.057-.322-.2-1.066v-.174a7.507,7.507,0,0,1,.3-1.64.583.583,0,0,1,.625-.388,6.844,6.844,0,0,1,2.9,1.234.594.594,0,0,0,.448.089,15.98,15.98,0,0,1,2.145-.363h1.8a11.506,11.506,0,0,1,2.226.357.6.6,0,0,0,.45-.079,6.494,6.494,0,0,1,3.248-1.266q.387,0,.574,1.975v.16a4.65,4.65,0,0,1-.254,1.4c.089.169.174.254.254.254a6.416,6.416,0,0,1,1.062,2.584.7.7,0,0,1,.005.091v.941a6.288,6.288,0,0,1-1.705,4.573c-.019.02-.039.039-.06.057a7.5,7.5,0,0,1-3.324,1.453.584.584,0,0,0-.383.853,2.265,2.265,0,0,1,.295.869v3.338a.58.58,0,0,0,.121.355h0a.565.565,0,0,0,.55.219,10.411,10.411,0,0,0,3-1.429l.044-.029q6.3-4.481,6.3-11.661A13.925,13.925,0,0,0,365.037,555.421Z" transform="translate(-339.79 -549.474)" fill="#6d6e71"/>
</svg>
