<svg xmlns="http://www.w3.org/2000/svg" width="27.473" height="27.473" viewBox="0 0 27.473 27.473">
  <path id="Path_37" data-name="Path 37" d="M160.484,549.474h.574q6.645,0,11.248,6.191a14.1,14.1,0,0,1,2.2,6.938v1.388a14.249,14.249,0,0,1-2.522,7.245,13.889,13.889,0,0,1-11.422,5.711q-6.592,0-11.088-5.871a13.579,13.579,0,0,1-2.442-7.819v-.093q0-7.138,6.365-11.569A13.386,13.386,0,0,1,160.484,549.474Zm-7.659,17.359q0,1.629,3.416,2.535a4.236,4.236,0,0,1,.734.08q.907-.561.907-1.147A5.857,5.857,0,0,1,156,567.087v-.08h.24a11.028,11.028,0,0,0,3.923,1.214h2.2a16.716,16.716,0,0,0,3.909-1.214v.08a4.36,4.36,0,0,1-2.121,1.215v.08q.774,1.068,1.147,1.068a5.848,5.848,0,0,0,3.83-1.708.588.588,0,0,1,.16-.333V566.02a19.651,19.651,0,0,0-1.788-6.512,5.787,5.787,0,0,0-4.163-1.722l-.08.16a8.9,8.9,0,0,1,2.775,1.388v.08a12.5,12.5,0,0,0-4.083-1.054h-1.708a15.119,15.119,0,0,0-4.4,1.054q.214-.453,2.522-1.294,0-.106.494-.174v-.24a7.419,7.419,0,0,0-3.909,1.468A19,19,0,0,0,152.825,566.833Zm5.537-3.909h.16q1.107,0,1.387,1.548-.2,1.548-1.387,1.548h-.241q-1.094,0-1.308-1.708Q157.468,562.924,158.362,562.924Zm5.217,0h.08q1.108,0,1.388,1.548v.08q-.227,1.467-1.388,1.468h-.08q-1.388,0-1.388-1.628Q162.432,562.924,163.58,562.924Z" transform="translate(-147.034 -549.474)" fill="#6d6e71"/>
</svg>
