<svg xmlns="http://www.w3.org/2000/svg" viewBox="0 0 183.88 208.76"><defs><style>.cls-1,.cls-4{fill:#a7a9ac;}.cls-1{opacity:0.07;}.cls-2{opacity:0.17;}.cls-3{fill:none;stroke:#a7a9ac;stroke-miterlimit:10;stroke-width:0.5px;stroke-dasharray:4 4;}.cls-5{fill:#2bb9fb;}.cls-6{fill:#285dd1;}.cls-7{fill:#808285;}</style></defs><title>boost</title><g id="Layer_2" data-name="Layer 2"><g id="Layer_1-2" data-name="Layer 1"><circle class="cls-1" cx="91.94" cy="91.94" r="44.99"/><g class="cls-2"><circle class="cls-3" cx="91.94" cy="91.94" r="91.69"/></g><circle class="cls-4" cx="41.46" cy="15.57" r="6.59"/><path class="cls-5" d="M57.71,123.49a72.53,72.53,0,0,1-2.21-9.41c-.17-1.34,1.35-2.87,2.09-4.32,1.22,1,3.12,1.7,3.52,2.93,2,6,3.52,12.19,5.33,18.71,15.46-4.76,30.47-5,45.67-.08a107.07,107.07,0,0,0,7.52-29.25A120.15,120.15,0,0,0,109.35,36c-.92-2-1.51-4,.92-5.1s3.62.53,4.55,2.53A123.42,123.42,0,0,1,125.89,74,6.55,6.55,0,0,0,129,79.38c19.76,13.76,30.1,32.78,31.22,56.79.31,6.86-2.48,11.39-7.77,13.45s-9.76.39-14.66-4.23c-5.65-5.33-11.78-10.14-18.15-15.56-1,2.07-1.45,3-1.91,3.89-1.54,2.95-3.88,4.44-7.2,3.38A67.44,67.44,0,0,0,68.64,137c-4,1.27-5.71-.07-9-6.67-4.83,3.62-9.6,7-14.19,10.69a66.07,66.07,0,0,0-5.31,5.4c-3.94,4-9.1,5.17-13.86,3.05-5-2.22-7.51-6.16-7.42-11.67.39-24.44,10.66-43.75,30.46-57.94a8.46,8.46,0,0,0,4-6.7A122.78,122.78,0,0,1,78,10.62c6.38-8.49,16.81-8.39,23.2.12a59.69,59.69,0,0,1,5.74,8.61c.63,1.23-.19,3.19-.35,4.82-1.54-.59-3.55-.76-4.52-1.85-2.19-2.46-3.75-5.47-5.78-8.1-4-5.22-9.64-5.16-13.6.17q-26.18,35.28-24,79.18c.08,1.59.55,3.29.14,4.74-.35,1.28-1.7,2.27-2.61,3.39-1.06-1-2.9-1.82-3-2.92-.59-4.28-.64-8.64-.92-13.42-1.25.82-2.27,1.35-3.15,2.07q-23,18.94-24.26,48.72a10.66,10.66,0,0,0,1.74,6.26c2.07,2.91,6.16,2.55,9.15,0C42.82,136.2,50,130.14,57.71,123.49ZM128,85.69c-2.22,12.65-4.41,24.76-6.38,36.9a4.8,4.8,0,0,0,1.74,3.59c6.23,5.13,12.73,9.92,18.85,15.17,2.51,2.16,4.8,3.85,8.13,2.61,3.49-1.31,3.91-4.27,3.83-7.53a63.12,63.12,0,0,0-16.81-42C134.4,91.18,130.9,88.37,128,85.69Z"/><path class="cls-6" d="M73.53,202.43h36.94c-1.25-1.34-2-2.14-2.77-3a24.48,24.48,0,0,1-6.45-16.32c0-10.24,0-20.48,0-30.72,0-2.26.11-4.54,3.16-4.43,2.82.1,2.76,2.39,2.77,4.42,0,10-.13,20,.07,29.91.17,8.69,5,15.46,12.48,18.24a19.11,19.11,0,0,0,20.8-5.12,18.27,18.27,0,0,0,4-18.57c-2.18-7-7.09-11.36-14.32-13a20.92,20.92,0,0,0-3.14-.49c-2.14-.12-4.08-1-3.37-3.24.36-1.18,2.59-2.52,4-2.53,12.43-.14,23.56,11.3,23.84,24.23,0,1.84,0,3.67,0,5.49,10.44,1.78,13.24,4.69,14.31,15.36,2.41,0,5-.36,7.34.13,1.43.3,2.58,1.93,3.86,3-1.34,1-2.63,2.67-4,2.77-4.89.34-9.83.13-14.75.13H8.66c-.93,0-1.86,0-2.79,0-2.26,0-4.6-.09-4.54-3.08s2.55-2.9,4.7-2.93,4.2,0,6.76,0c-2.56-8.22-1.61-15.3,4.92-20.62s13.43-4.89,20.73-1c2.8-5.48,6.67-9.72,12.6-11.52a12.77,12.77,0,0,1,5.44-.82c1.34.21,2.49,1.68,3.72,2.6-1.12,1-2.13,2.82-3.37,3-6.56,1-11.2,4.05-13.07,10.57A14,14,0,0,0,54.2,202.3c8.22,1.66,16-3.51,16.84-11.69.56-5.53.3-11.15.33-16.73,0-7.58,0-15.16,0-22.74,0-2.25.24-4.63,3.18-4.48,2.57.13,2.82,2.29,2.81,4.45,0,12.5.3,25-.2,37.5C77,193.15,74.86,197.62,73.53,202.43Zm-32.3.23c-1.42-4.71-2.62-8.94-4-13.12a6.73,6.73,0,0,0-1.87-2.87,11,11,0,0,0-16.42,14,4,4,0,0,0,2.62,1.91C28.3,202.73,35,202.66,41.23,202.66Zm101,0c5,0,9,.11,13-.05,1.41-.06,3.8-.54,4-1.24a7,7,0,0,0-.94-4.78c-2.26-3.68-7-4-10.19-.75C146.23,197.73,144.63,199.82,142.18,202.68Z"/><path class="cls-7" d="M92.65,88.66l-.33,4.92H86.83c.35-3.37-.57-5.22-4.36-5.91-4.19-.76-5.72-4.8-4.93-10.52,2.91.07,6.44-2.14,7.51,3.34.18.9,4.63,1.36,7.06,1.22.88-.06,2.12-2.41,2.32-3.83.36-2.57-1.41-3.8-3.86-4.06l-2.77-.3C78.28,72.6,76,69.21,77.37,58.38c.63-5,4.76-6.24,8.79-6.83,1.24-2.06-1-5.76,3.56-5.59,4.27.16,2.08,3.48,3,5.27,7.57,3,9.11,5.19,8.14,11.93H94.43c-.11-3.78-2-5.58-6-5.19-2.74.28-4,1.35-4.12,4.2s1.18,4.2,3.89,4.44c1.06.09,2.12.15,3.18.29,8.8,1.2,11.72,5.13,10.32,13.87C100.9,85.54,98.81,87.43,92.65,88.66Z"/><path class="cls-7" d="M89.48,114.53c5.16.79,10.65,1.56,16.12,2.52,2.09.37,4.17,1.6,3,4-.51,1.08-3.06,2-4.38,1.74a64.54,64.54,0,0,0-28.77-.43c-2.06.46-4.58,1-5.22-1.9-.7-3.19,2-3.72,4.2-4C79.31,115.66,84.18,115.17,89.48,114.53Z"/><path class="cls-4" d="M91.8,155.43c0,3.72.24,7.46-.13,11.13-.14,1.3-1.77,2.45-2.72,3.67-1-1.16-2.84-2.29-2.88-3.49q-.41-11.33,0-22.68c0-1.15,1.89-2.24,2.9-3.35.94,1.19,2.57,2.32,2.7,3.59C92,148,91.8,151.72,91.8,155.43Z"/><path class="cls-4" d="M91.72,183.93c0,1.58.39,3.31-.12,4.7a4.29,4.29,0,0,1-3,2.32c-.77.08-2.36-1.43-2.47-2.36a35,35,0,0,1-.06-8.68c.15-1.17,1.71-2.16,2.63-3.23,1,1.1,2.4,2,3,3.33.5,1.09.1,2.6.1,3.92Z"/><path class="cls-4" d="M39.39,170.45c-2.11,1.35-3.41,2.82-4.45,2.66s-2-1.9-2.94-3c1-1,2-2.6,3.17-2.68S37.4,169,39.39,170.45Z"/><path class="cls-4" d="M132.05,188.05c-1.35-2.29-2.79-3.65-2.56-4.63a4.28,4.28,0,0,1,3.15-2.52c.78-.08,2.49,1.78,2.46,2.74C135.07,184.79,133.64,185.9,132.05,188.05Z"/></g></g></svg>