<svg xmlns="http://www.w3.org/2000/svg" viewBox="0 0 208.38 215.78"><defs><style>.cls-1,.cls-4{fill:#a7a9ac;}.cls-1{opacity:0.07;}.cls-2{opacity:0.17;}.cls-3{fill:none;stroke:#a7a9ac;stroke-miterlimit:10;stroke-width:0.5px;stroke-dasharray:4 4;}.cls-5,.cls-7{fill:#285dd1;}.cls-6{fill:#2bb9fb;}.cls-7{opacity:0.56;}</style></defs><title>community</title><g id="Layer_2" data-name="Layer 2"><g id="Layer_1-2" data-name="Layer 1"><circle class="cls-1" cx="110.66" cy="91.94" r="44.99"/><g class="cls-2"><circle class="cls-3" cx="110.67" cy="91.94" r="91.69"/></g><circle class="cls-4" cx="60.19" cy="15.57" r="6.59"/><path class="cls-5" d="M58.77,51.43l5,4.34L43.59,74.91l16.64,8-4.3,5.2c-7.7-5.89-16.25-8.12-25.64-6.27A29.43,29.43,0,0,0,12.42,93.1c-8.29,10.62-8.35,26.78-.19,36.09.17-.16.52-.35.5-.48-1.15-6.33,1.56-9.75,7.8-11,2.32-.45,4.47-1.76,7.31-2.93-4.66-4.16-4.94-9.26-3.52-14.3a16.41,16.41,0,0,1,4.53-7.39c4.46-4.07,11.45-3.61,16,.44,5.31,4.72,5.67,13.1.66,21.42,3.53,1.41,6.91,3.07,10.48,4.1s4.85,2.87,4.25,6.41a23.54,23.54,0,0,0,0,3.77c8.64-7.18,8.59-22.83-.16-37.25l4.15-3.46c8.46,8.18,11.09,24,6.24,36.28A36.6,36.6,0,0,1,29,147.32C12,144-.35,128.3,0,110.52A36.23,36.23,0,0,1,31.1,75.62a12.38,12.38,0,0,0,7.63-3.94C45.28,64.82,52.06,58.18,58.77,51.43Zm-4.19,79.33c-.61-2.07-.66-5.44-1.92-6C47,122.32,41.55,118.53,35,119.58c-3.93.64-7.65,2.52-11.54,3.57-3.7,1-5.41,3-4.7,6.93a8.21,8.21,0,0,1,0,2.84c-.46,2.75.95,4.2,3.22,5.36a30.75,30.75,0,0,0,26.29,1.25C52.35,138,55.38,135.94,54.58,130.76ZM30,104.55c0,4.61,3,8.68,6.43,8.7S43,109,43,104.61c0-5-2.51-8.06-6.52-8.08S30.06,99.52,30,104.55Z"/><path class="cls-5" d="M149.55,171.69l-4.6-4.64,20.24-19.19c-19-5.84-29.79-17.7-29.65-37.1.1-15.13,7.92-26.23,21.77-32.54A35.28,35.28,0,0,1,195,83.64l-3.65,4.54c-7.69-5.88-16.24-8.13-25.64-6.29a29.2,29.2,0,0,0-17.37,10.53c-8.8,10.76-9.13,26.28-.86,36.84.19-.14.55-.32.53-.41-1.48-6.73,2-9.75,8-11.14,2.21-.51,4.27-1.66,7-2.76-4.75-4.7-4.63-10.35-3-15.83a14.13,14.13,0,0,1,5-6.59c4.62-3.49,11.06-2.73,15.31,1.21,5.24,4.86,5.52,12.63.57,21.32,3.53,1.39,6.95,3,10.53,4.08,3.28,1,4.56,2.82,4.06,6.16a31.37,31.37,0,0,0,0,4.27c8.76-8.64,8.61-24.37-.16-37.42l4.5-3.9c6.66,8.28,9.52,17.44,8.21,27.67-2.14,16.82-14.43,29-31.22,31.86a13.88,13.88,0,0,0-6.83,3.56C163,158,156.36,164.87,149.55,171.69Zm39.69-40.82c1.93-4.93-1-6.88-5.34-8.05-2-.52-3.74-1.95-5.67-2.11a61.18,61.18,0,0,0-12.62,0c-2.86.37-5.51,2.19-8.34,3.07-2.35.74-3.24,2.07-3,4.47a18.48,18.48,0,0,1,0,4.46c-.39,2.86.87,4.47,3.37,5.7a30.9,30.9,0,0,0,26.68.85C188.07,137.71,190.79,135.73,189.24,130.87ZM178.3,104.59c0-5-2.42-8.06-6.43-8.07s-6.52,3.09-6.55,8c0,4.42,3.17,8.67,6.51,8.68S178.31,109.18,178.3,104.59Z"/><path class="cls-6" d="M67.52,172.23c2.36-4.9,4.29-9,6.35-13.13A22.2,22.2,0,0,1,76.2,156l4.42,3.75c-8.66,13.87-8.88,27.49-.74,37.12.18-.15.54-.33.52-.44-1.4-6.73,2-9.81,8.12-11.1,2.21-.47,4.26-1.67,7-2.78-4.82-4.38-4.7-9.83-3.33-15.11a14.35,14.35,0,0,1,4.65-6.85c4.7-3.92,11.54-3.3,16,.9,5.09,4.8,5.35,13.27.35,21.16,3.39,1.35,6.63,2.93,10,3.93,3.7,1.08,5.34,3.09,4.66,7a19.45,19.45,0,0,0,0,3.34c6.51-4.52,10.21-22.53,1.16-35.14-8.35-11.63-26.66-18.71-44.31-6l-3.78-4.48c9.35-7.54,19.65-10,31-7.63,17.74,3.76,30.25,20.58,28.72,38.16C139,200.6,124,215.2,105.67,215.76a36.3,36.3,0,0,1-37.45-31,12.33,12.33,0,0,0-3.86-7.67c-6.87-6.53-13.5-13.32-20.57-20.34l4.29-4.2Zm55,26.19c-.79-2.1-1-5.36-2.45-6.1-8.7-4.4-17.46-7.56-27.33-2.13-7.07,3.88-5.89.91-6.29,9.59-.16,3.36,1,5.2,4,6.59a30.86,30.86,0,0,0,26,.7C120.21,205.49,123.25,203.55,122.51,198.42ZM110.66,172.2c0-5-2.44-7.93-6.57-7.89s-6.48,3-6.42,8.45c.06,4.19,3.28,8.18,6.58,8.15S110.69,176.74,110.66,172.2Z"/><path class="cls-6" d="M76.29,20.75l4.38,3.56C72.05,36.64,71.51,49,79.45,61.62c.54-.35.93-.52.92-.61-1.38-6.73,2.12-9.75,8.15-11.12,2.2-.51,4.27-1.62,7-2.7-4.89-4.46-4.73-9.88-3.39-15.13a14.51,14.51,0,0,1,4.65-6.85c4.58-3.88,11.61-3.24,16,.9,5.18,4.92,5.42,13.35.31,21.11,3.4,1.38,6.63,3,10.05,4,3.77,1,5.39,3,4.72,6.9a20.65,20.65,0,0,0,0,3.36c8.33-6.53,8.7-24.4,1-35.19C120,13.78,101.34,8.21,84.7,20.35l-3.58-4.2c8.43-8.78,24.72-11.37,37.31-5.79,12.16,5.38,19.56,14.73,21.63,27.93a13.18,13.18,0,0,0,4.14,8c6.74,6.47,13.29,13.14,20.19,20l-5,3.74-18.9-19.6c-5.65,18.76-17.19,29.47-36,29.82-15.47.29-26.9-7.48-33.49-21.57C65,46.05,67.33,30.64,76.29,20.75Zm46.25,42.08c-.82-2.06-1.08-5.21-2.57-6-8.8-4.62-17.68-7.22-27.65-2.06-4.38,2.27-6.22,4.14-6,9.11.17,3.8,1.28,5.87,4.7,7.38a31.07,31.07,0,0,0,25.15.49C120.21,70.14,123.16,68.07,122.54,62.83ZM110.67,36.94c0-5-2.5-8.15-6.45-8.19s-6.52,3.12-6.55,8.08c0,4.5,3.1,8.74,6.44,8.76S110.67,41.39,110.67,36.94Z"/><path class="cls-7" d="M104.21,130.14c-5.32-4.78-10.38-9.06-15.15-13.66-5.16-5-5.89-11.57-2.26-17S95.67,93,102.89,96a4,4,0,0,0,2.85-.16c6.37-2.92,11.82-1.83,15.53,3.25a12.56,12.56,0,0,1-1.4,16.7C115,120.71,109.71,125.15,104.21,130.14Zm0-23.9-2.11-2.51c-3.2-3.82-6.09-4.5-9-2.09s-3.25,6.9-.1,10.08c3.5,3.53,7.35,6.7,11.26,10.22,4.1-3.8,8.06-7.1,11.56-10.84a6.38,6.38,0,0,0-.54-9.44q-4.2-3.54-8.72,1.73C105.86,104.2,105.18,105,104.17,106.24Z"/><path class="cls-5" d="M39.36,124.94v5.74H33.62v-5.74Z"/><path class="cls-5" d="M174.73,125.79v5.65h-5.62v-5.65Z"/><path class="cls-6" d="M107,198.44h-5.74v-5.65H107Z"/><path class="cls-6" d="M107.12,58.15v5.42l-5.76.29V58.15Z"/></g></g></svg>