<svg xmlns="http://www.w3.org/2000/svg" xmlns:xlink="http://www.w3.org/1999/xlink" viewBox="0 0 235.37 240.31"><defs><style>.cls-1,.cls-8{fill:#a7a9ac;}.cls-1{opacity:0.07;}.cls-2{opacity:0.17;}.cls-3{fill:none;stroke:#a7a9ac;stroke-miterlimit:10;stroke-width:0.5px;stroke-dasharray:3.97 3.97;}.cls-4{fill:#285dd1;}.cls-5{fill:#737373;}.cls-6{fill:#747474;}.cls-7{fill:#2bb9fb;}</style><image id="image" width="402" height="401" xlink:href="../../../../AfterEffects%20Projects/QryptoBank/NFT%20AirDrop%20-%20Vendre%20ses%20AirDrops/images/nft.png"/></defs><title>deploy</title><g id="Layer_2" data-name="Layer 2"><g id="Layer_1-2" data-name="Layer 1"><circle class="cls-1" cx="87.46" cy="135.99" r="42.79"/><g class="cls-2"><circle class="cls-3" cx="87.46" cy="135.99" r="87.21"/></g><path class="cls-4" d="M130.7,168.34c-11.8,5.69-15.88,4-20.12-8-.27-.76-.52-1.54-.79-2.3-2.87-8.19-6-10-14.58-9-2.24.27-1.77,1.58-1.77,2.84,0,7.47,0,14.93,0,22.4,0,4.84-1.77,5.85-6,3.51-4.51-2.48-9-4.91-13.44-7.6a4.37,4.37,0,0,0-5.15.06c-4.42,2.63-8.93,5.12-13.44,7.6-4.1,2.26-6,1.12-6-3.61,0-16.29-.11-32.59.06-48.88,0-3.21-.81-4.06-4-4-9.9.22-19.82.17-29.73,0-2.62,0-3.55.65-3.54,3.4q.12,53,0,105.91c0,3,1,3.75,3.76,3.58,3.25-.19,6.52,0,9.78,0,2,0,3.61.67,3.64,2.89s-1.44,3.26-3.73,3.21c-3.67-.07-7.34,0-11,0-5.88-.05-8.48-2.58-8.49-8.41Q6,208,6,184.21V125.14c0-7.6,2.09-9.74,9.57-9.74H78.82c-2.83-2.47-5-4.18-7-6.12-5-4.94-5.06-10-.07-14.91a95.1,95.1,0,0,1,9.12-7.47c3.1-2.34,4-5.08,2.88-8.88-1.19-4-2.66-8-3.14-12.18-.64-5.51,1.81-9.14,7.13-10.63,3.2-.9,6.46-.71,9.71-.78,8.87-.17,9.32-.52,12.27-8.78a63.2,63.2,0,0,1,3.33-8.27c3-5.64,7.55-7.1,13.27-4.26a54.07,54.07,0,0,1,6.56,4c8.37,5.75,8.64,5.75,17.16-.11a53,53,0,0,1,6.21-3.85c6-3,10.49-1.58,13.52,4.36,1.4,2.76,2.26,5.79,3.43,8.67,1.26,3.08,1.93,6.52,5.71,7.92,1.31.49,1.77,2,1.09,3.49a2.89,2.89,0,0,1-3.63,1.81c-3.65-.87-5.75-3.52-7.13-6.71-1.6-3.73-2.77-7.64-4.37-11.36-1.7-3.94-3.22-4.4-6.93-2.21a80.14,80.14,0,0,0-7.44,5c-6.16,4.57-12.21,4.48-18.32-.07-1.85-1.37-3.76-2.66-5.7-3.92-5.52-3.57-7.09-3-9.47,3.19-1,2.66-1.85,5.38-2.84,8-2.18,5.87-6.37,8.85-12.69,8.93-3.53.05-7,.41-10.57.54-3.93.15-4.87,2.39-4,5.75.77,3.16,1.67,6.29,2.65,9.38C91.64,82.62,90,88,84.26,92c-1.65,1.19-3.25,2.46-4.86,3.7-6.7,5.21-6.69,6.84.14,12.13,1.61,1.25,3.21,2.5,4.86,3.69,5.54,4,7.16,9.26,5.23,15.74-.94,3.11-1.95,6.21-2.68,9.38-1,4.25-.11,5.5,4.17,5.94,3.51.36,7,.52,10.57.59,6.13.12,10.26,3,12.4,8.71.94,2.54,1.83,5.09,2.76,7.63,2.59,7,4,7.52,10.14,3.45,1.92-1.28,3.84-2.55,5.71-3.9,5.76-4.14,11.49-4.2,17.3-.09,2.66,1.87,5.39,3.65,8.11,5.42,3.06,2,5.38,1.35,6.74-2.09s2.7-7.07,4-10.63c2.07-5.64,6.18-8.3,12.11-8.48,3.52-.11,7.06-.24,10.57-.59,4.37-.43,5.18-1.48,4.3-5.82-.68-3.31-1.72-6.55-2.67-9.8-1.81-6.14-.36-11.19,4.83-15.11q4.22-3.2,8.29-6.58c2.78-2.31,2.83-4.8,0-7.14s-5.67-4.64-8.59-6.85c-4.93-3.75-6.22-8.63-4.68-14.44,1-3.67,2.05-7.3,2.89-11,.53-2.31.21-4.33-2.72-4.91-2-.4-3.12-1.65-2.49-3.82s2.21-2.39,4.19-2a9,9,0,0,1,7.25,10.92,113.83,113.83,0,0,1-3.25,12.58c-1,3.37-.06,5.81,2.59,7.83,2.05,1.57,4.1,3.13,6.12,4.73,9.41,7.42,9.44,13.52.12,20.92-2.13,1.68-4.3,3.31-6.44,5-2.5,2-3.41,4.33-2.42,7.52,1.2,3.88,2.27,7.81,3.09,11.78,1.38,6.63-1.42,10.61-8.1,12.11a40.12,40.12,0,0,1-8.11.52c-9.4.15-9.72.4-12.81,9.14a59.45,59.45,0,0,1-3.22,7.88c-3,5.65-7.52,7.13-13.25,4.29-2.54-1.26-4.84-3-7.26-4.48a46.35,46.35,0,0,0-5.56-3.32c-3.92-1.71-6.89.35-6.89,4.61q0,31.58,0,63.14c0,7.84-2.09,9.95-9.8,9.95H46.3c-.95,0-1.9,0-2.85,0a2.84,2.84,0,0,1-3.07-3.06c0-1.93,1.24-2.91,3.16-3,1.08,0,2.17,0,3.26,0,26.48,0,53-.07,79.43.08,3.52,0,4.6-.78,4.56-4.47C130.6,209.47,130.7,189.12,130.7,168.34Zm-43.26,2.39c0-7.27,0-13.64,0-20a3.06,3.06,0,0,0-1.7-3.21c-4.72-2.71-6-5.29-4.89-10.77.82-4.23,2.12-8.37,3.21-12.56.52-2,.12-2.89-2.29-2.83-7.59.16-15.19.19-22.77,0-2.89-.07-3.59.81-3.57,3.62.14,14.23.06,28.46.09,42.69,0,.83-.5,1.91.83,2.58,4.05-2.27,8.2-4.5,12.24-6.92a4.89,4.89,0,0,1,5.63,0C78.37,165.79,82.63,168.05,87.44,170.73Z"/><path class="cls-5" d="M48.58,195.31c6.93,0,13.86.11,20.78-.05,3.35-.07,4.64,1.21,4.56,4.55-.15,6.1-.12,12.22,0,18.33.06,3-1,4.5-4.21,4.48q-21-.12-42,0c-3.09,0-4.49-1.25-4.46-4.35.07-6.25.06-12.5,0-18.74,0-3.14,1.45-4.31,4.52-4.26C34.73,195.39,41.66,195.31,48.58,195.31Zm-.12,21.29c5.42,0,10.85-.11,16.26.05,2.39.07,3.46-.41,3.24-3.08a56.64,56.64,0,0,1,0-8.93c.19-2.62-.58-3.5-3.33-3.43-7.72.19-15.45,0-23.18.1-3.88.07-9.33-1.78-11.22.75s-.5,7.78-.71,11.82c-.11,2.09.48,2.83,2.68,2.77C37.61,216.49,43,216.6,48.46,216.6Z"/><path class="cls-6" d="M137.29,144.28c-8.62-.14-19.15-4.9-27.62-14.2-1.57-1.73-3.52-3.63-1-5.82,2.26-1.91,3.83-.14,5.38,1.58,14.8,16.43,39.18,16.65,54.28.55.37-.39.74-.78,1.08-1.21,1.26-1.6,2.81-2.26,4.54-.9,1.92,1.5,1.41,3.12.06,4.89C167.13,138.29,154.12,144.34,137.29,144.28Z"/><path class="cls-6" d="M141,59.15c13.2.12,23.92,5,32.48,14.69,1.36,1.53,3,3.21.79,5.19s-3.8.56-5.42-1.2c-15.58-16.9-39.45-16.9-55.07,0-1.5,1.62-3,3.11-5.09,1.29-2.27-2-.87-3.82.67-5.53C118,64.13,128.57,59.3,141,59.15Z"/><path class="cls-7" d="M127,108.47c0,1.61.06,3.23,0,4.84-.09,1.91-1.11,3.1-3.08,3a2.75,2.75,0,0,1-2.92-2.78c-.07-7.87-.06-15.74,0-23.61a2.63,2.63,0,0,1,2.46-2.8c3.23-.16,6.54-.62,9.7.34a8.68,8.68,0,0,1,6.41,7.19,8.07,8.07,0,0,1-3.87,8.75c-2.21,1.32-2.15,2.21-.5,3.79,1.27,1.22,2.37,2.61,3.52,4s1.37,2.94-.1,4.31c-1.63,1.52-3.19,1.17-4.59-.38-2.05-2.29-4.07-4.61-6.1-6.92Zm.09-12c-.14,1.49-.14,3,2.42,2.73,2.09-.24,4-.79,3.91-3.19s-2-2.85-4.07-3C126.65,92.79,127.13,94.66,127.11,96.51Z"/><path class="cls-7" d="M153.82,87.09c1.5,0,3,0,4.48,0a3,3,0,0,1,.27,6,26.17,26.17,0,0,1-3.65.07c-2-.14-3.23,0-3.22,2.69s1,3,3.11,2.75a14.29,14.29,0,0,1,2.85,0,3.08,3.08,0,0,1,.18,6.14,16,16,0,0,1-3.24.06c-2-.2-2.88.24-2.89,2.56s.79,2.9,3,2.91c2.58,0,6.6-1.29,6.49,3.16-.11,4.05-3.9,2.85-6.4,2.88-9.33.12-9.4,1-9.28-9.24,0-4.61,0-9.23,0-13.84,0-5.83.38-6.2,6.23-6.2C152.47,87.08,153.15,87.09,153.82,87.09Z"/><path class="cls-7" d="M167.41,101.49c0-3.53,0-7.06,0-10.59,0-2.48,1.17-3.8,3.69-3.81,2.86,0,5.71,0,8.56,0,2.1,0,3.41.83,3.4,3.07s-1.49,3-3.49,3a27.1,27.1,0,0,1-2.85,0c-2-.16-3.22.13-3.25,2.74s1.24,2.84,3.22,2.68a15.07,15.07,0,0,1,2.85,0,2.79,2.79,0,0,1,2.82,2.88,2.93,2.93,0,0,1-2.89,3.27,13.59,13.59,0,0,1-3.25,0c-2.2-.28-2.7.68-2.72,2.76,0,2.27.9,2.8,2.89,2.65a23.07,23.07,0,0,1,4.07.09,2.66,2.66,0,0,1,2.61,3c-.06,1.73-.93,2.91-2.69,3-3.26.1-6.52.13-9.77,0-2.36-.09-3.22-1.65-3.21-3.87C167.43,108.82,167.41,105.16,167.41,101.49Z"/><path class="cls-5" d="M174.32,205.48H153.54c-2,0-4-.09-4.08-2.76s1.77-3.25,4.08-3.25q20.78,0,41.55,0c2.2,0,3.93.59,3.94,3s-1.76,3-3.93,3C188.17,205.45,181.24,205.48,174.32,205.48Z"/><path class="cls-7" d="M99.59,101.56c0-3.53,0-7,0-10.58,0-2.72,1.2-4,3.94-3.9s5.42,0,8.13,0a2.79,2.79,0,0,1,3.18,2.9,2.82,2.82,0,0,1-3,3.13c-.81,0-1.63,0-2.44,0-1.94,0-4-.64-4,2.83,0,3.31,2.09,2.36,3.78,2.49a10.18,10.18,0,0,1,3.21.29,2.76,2.76,0,0,1,1.61,3.35c-.41,1.72-1.64,2.68-3.28,2.34-5.46-1.13-5.58,2.15-5.21,6,.07.81,0,1.63,0,2.44,0,2.15-1,3.44-3.14,3.34-1.86-.08-2.84-1.32-2.82-3.29C99.62,109.15,99.6,105.35,99.59,101.56Z"/><path class="cls-5" d="M166.17,224.16c-4.19,0-8.38,0-12.57,0-2.2,0-4.25-.19-4.15-3.08.09-2.53,1.86-2.92,4-2.91q12.57.06,25.15,0c2.26,0,4.26.34,4.19,3.1-.07,2.47-1.9,2.92-4,2.89C174.56,224.12,170.37,224.16,166.17,224.16Z"/><path class="cls-5" d="M166.58,180.78c4.19,0,8.38,0,12.58,0,2.06,0,3.52.76,3.62,2.91s-1.32,3.14-3.37,3.15q-13.4,0-26.79,0c-1.8,0-3.19-.77-3.18-2.86s1.23-3.17,3.34-3.17Z"/><circle class="cls-8" cx="39.45" cy="63.35" r="6.27"/><use transform="translate(45.72) scale(0.09)" xlink:href="#image"/><use transform="translate(199.03 147.37) scale(0.09)" xlink:href="#image"/></g></g></svg>