<svg xmlns="http://www.w3.org/2000/svg" viewBox="0 0 232.58 213.17"><defs><style>.cls-1,.cls-4{fill:#a7a9ac;}.cls-1{opacity:0.07;}.cls-2{opacity:0.17;}.cls-3{fill:none;stroke:#a7a9ac;stroke-miterlimit:10;stroke-width:0.5px;stroke-dasharray:4 4;}.cls-5{fill:#231f20;}.cls-6{fill:#777;}.cls-7{fill:#de9f62;}.cls-8{fill:#cf4a4f;}.cls-9{fill:#0c0b07;}.cls-10{fill:#ebeded;}.cls-11{fill:#808285;}.cls-12{fill:#2bb9fb;}</style></defs><title>receive royalties</title><g id="Layer_2" data-name="Layer 2"><g id="Layer_1-2" data-name="Layer 1"><circle class="cls-1" cx="113.35" cy="121.23" r="44.99"/><g class="cls-2"><circle class="cls-3" cx="113.35" cy="121.23" r="91.69"/></g><circle class="cls-4" cx="62.87" cy="44.86" r="6.59"/><path class="cls-5" d="M.9,174.18l44-53.66c.13-.08.29-.15.33-.23l.06,0a10.61,10.61,0,0,1,5.45-1.78,1.15,1.15,0,0,0,.45-.07h76.89a1.61,1.61,0,0,0,.58,0h52.27a2.44,2.44,0,0,0,.38,0,12.71,12.71,0,0,1,5.2,1.31,3.82,3.82,0,0,1,1.21,1L231,173.58c.15.17.28.35.43.52,2.18,2.58,1.41,5.56-3.2,5.89H6.07a12.92,12.92,0,0,0-1.76,0c-3.48-.3-5-2.12-4-4.56C.5,175,.71,174.6.9,174.18Zm193.29-1.39.79.28a26.27,26.27,0,0,0,13.28,1.81c8.43-1.29,8.88-7.7,1.71-12.91a28.88,28.88,0,0,0-18.34-5.11,12.34,12.34,0,0,0-5,1.47c-.16.09-.24.25-.59.21a1.85,1.85,0,0,0-.52-.22,25.92,25.92,0,0,0-9.42-1.54,14.28,14.28,0,0,0-6,1.28c-3.91,2-4.91,4.81-2.74,8.59,1.26,2.18,3.57,4.08,6.76,5.65A25.54,25.54,0,0,0,187.49,175,12,12,0,0,0,194.19,172.79ZM55,131.15c2.52,0,5,0,7.55,0A8.91,8.91,0,0,0,64,131a4.58,4.58,0,0,0,2.37-.95,2.38,2.38,0,0,0,.48-.61q1.15-2.28,2.27-4.42a1.88,1.88,0,0,0,.21-.57c0-.36-.2-.64-.76-.84a5.38,5.38,0,0,0-1.75-.23H53.18a10.61,10.61,0,0,0-1.58.12,6,6,0,0,0-1.18.29,3.08,3.08,0,0,0-1.35.86l-3.7,5a.91.91,0,0,0-.15.27c-.21.7.67,1.16,2.23,1.17Zm37.56,12.1c-.73.23-1.2.52-1.29.93s.2.8.89,1a7.22,7.22,0,0,0,2.42.28,7.09,7.09,0,0,0,2.27-.34c1.29-.45,1.51-1.34.46-1.83l-.23-.09c1-.42,1.26-.87.8-1.33a2,2,0,0,0-1-.47,8,8,0,0,0-3.38,0C92.15,141.67,91.19,142.64,92.6,143.25Zm-37.37,0c.85-.22,1.29-.54,1.39-.94s-.17-.61-.65-.77a6.38,6.38,0,0,0-2.51-.23,7.65,7.65,0,0,0-1.83.33c-1.1.36-1.85,1.16-1,1.57.05,0,.08.06,0,.11a2.93,2.93,0,0,0-1.42.72c-.46.51-.34,1,.42,1.23a8.63,8.63,0,0,0,4.3,0,3.09,3.09,0,0,0,1.62-.79C56.07,143.93,56,143.53,55.23,143.21Zm52.46,0a2.26,2.26,0,0,0-1,.56c-.45.52,0,1.14,1,1.44a7.81,7.81,0,0,0,2.3.26,7,7,0,0,0,2.33-.36c1.19-.46,1.27-1.33.18-1.81-.08,0-.21-.06-.22-.13,1.06-.44,1.15-1.08.22-1.53a2.33,2.33,0,0,0-.58-.21,8,8,0,0,0-3.6,0C106.86,141.74,106.35,142.73,107.69,143.24Zm21.68-.17a4.62,4.62,0,0,1-.07-.57c0-.15.14-.28.35-.38a4.22,4.22,0,0,1,2.61,0c.11,0,.26.1.29.16s.3.18.55.17h.71c.25,0,.3,0,.25-.17-.16-.4-.64-.67-1.34-.82a8,8,0,0,0-3.55,0c-.91.22-1.37.6-1.32,1.15s.11,1,.16,1.47.56.91,1.44,1.17a6.18,6.18,0,0,0,1.24.22,6.38,6.38,0,0,0,3-.34c1.15-.49,1.06-1.52-.18-2a6.34,6.34,0,0,0-3.33-.28A3.83,3.83,0,0,0,129.37,143.07ZM63,144.21c-.25.44,0,.82.66,1a8,8,0,0,0,4,0,2.43,2.43,0,0,0,1.83-1.15c.21-.51.42-1,.64-1.5s-.05-.87-.76-1.1a7.07,7.07,0,0,0-3.85,0,3.13,3.13,0,0,0-1.44.69c-.72.66-.45,1.32.68,1.57a6.07,6.07,0,0,0,3.45-.19.86.86,0,0,1-.13.41c-.17.37-.53.58-1.24.71a4.42,4.42,0,0,1-1.93-.05c-.19,0-.38-.12-.38-.23s-.24-.2-.54-.2Zm16.79-19.9-1,.38c-.35.13-.35.13-.13.27,1.41.91,1.43,2,.26,3.17a6.68,6.68,0,0,1-2.19,1.32c-.21.08-.23.13-.08.21s.52.3.78.46C81.66,128.63,82.84,125.79,79.83,124.31ZM35.16,144.15c-.41.48-.3.88.38,1.08a7.27,7.27,0,0,0,3.47.05,3.38,3.38,0,0,0,2.49-1.41c.28-.54-.12-.92-1.11-1.07a12.28,12.28,0,0,0-1.74-.07c-1,0-1,.1-.57-.48.11-.16.24-.22.56-.22h2.79c1.07,0,.83.11,1.25-.5.15-.21.14-.21-.29-.21h-4.6c-.42,0-.44,0-.6.22-.41.56-.81,1.12-1.25,1.69-.13.17,0,.22.27.21h2.41a4.28,4.28,0,0,1,1,.09c.31.08.48.21.37.42a1.25,1.25,0,0,1-.84.57,4.25,4.25,0,0,1-2.43,0c-.07,0-.17-.08-.15-.14.1-.29-.3-.28-.73-.26C35.61,144.14,35.4,144.12,35.16,144.15Zm39.44-2.83H72.3c-.3,0-.43.05-.5.21-.22.57-.45,1.14-.71,1.73-.06.15,0,.2.3.19H73.8a5,5,0,0,1,.87.06c.51.08.73.23.68.47s-.36.51-.92.63a4.28,4.28,0,0,1-2.05,0c-.17,0-.34-.12-.33-.22s-.26-.23-.58-.22h-.61c-.22,0-.34,0-.36.17-.07.43.17.77.86.94a7.72,7.72,0,0,0,3.43,0c1.17-.24,1.9-.73,2-1.35s-.34-1-1.43-1.14a13.52,13.52,0,0,0-1.82-.07c-.94,0-.88.1-.67-.45.09-.24.11-.24.55-.25h2.73c1.07,0,.85.11,1.1-.5.06-.16,0-.22-.32-.22Zm60.87,2.83c0,.47.46.86,1.3,1.07a7.7,7.7,0,0,0,3.63.05c1-.26,1.42-.76,1.14-1.43s-1-.89-2.08-1a13.61,13.61,0,0,0-1.8-.07c-1,0-.86.1-1-.49,0-.16.05-.21.36-.21h2.79c1.06,0,.94.11.81-.5-.05-.21-.06-.21-.49-.21h-4.61c-.42,0-.43,0-.4.22.1.55.21,1.12.29,1.69,0,.17.15.22.46.21h2.4a6.84,6.84,0,0,1,.91.06c.54.08.85.25.94.48s-.08.49-.53.61a4.31,4.31,0,0,1-2.11,0,.79.79,0,0,1-.43-.2c-.14-.24-.44-.26-.8-.24A6.71,6.71,0,0,0,135.47,144.15Zm10.37,1.25h2.27c.94,0,.94,0,.77-.51-.08-.23-.08-.24-.56-.24h-4c-.24,0-.32-.05-.37-.17-.15-.38.05-.56.71-.66a7.07,7.07,0,0,1,.94-.06,7.19,7.19,0,0,0,1.24-.07,2.08,2.08,0,0,0,1.2-.45c.56-.61-.1-1.43-1.38-1.76a8.51,8.51,0,0,0-2.35-.21,5.06,5.06,0,0,0-1.59.29c-.46.19-.73.44-.71.77,0,.11.09.16.3.15.53,0,1.2.11,1.31-.31,0,0,.07,0,.11-.06a4.06,4.06,0,0,1,2.51,0c.7.29.67.72-.07.87a5.15,5.15,0,0,1-1,.07,7.48,7.48,0,0,0-1.6.17c-.82.18-1.2.53-1.11,1,.06.31.16.61.21.92s.16.22.47.22C144,145.39,144.92,145.4,145.84,145.4Zm-57.31-2.06a2.27,2.27,0,0,0,.1-.67c0-.75-.9-1.29-2.32-1.41a5.7,5.7,0,0,0-3.8.88c-.67.53-1.1,1.81-.74,2.36.48.74,1.6,1,3.11,1a4.65,4.65,0,0,0,3.22-1.21A2,2,0,0,0,88.53,143.34Zm-45.46-.91H44a1.07,1.07,0,0,0,.77-.18,2.07,2.07,0,0,1,.88-.25,5.22,5.22,0,0,1,1.42,0c.49.08.71.25.57.48a1.6,1.6,0,0,1-1.21.45c-.41,0-.81,0-1.21,0-.58,0-.58,0-.78.32s-.33.32.39.32h.73a3.34,3.34,0,0,1,.87.11c.56.17.38.6-.36.84a4.32,4.32,0,0,1-2.68,0c-.08-.05-.16-.11-.14-.18s-.15-.19-.43-.18h-.66c-.36,0-.42,0-.48.21-.13.38.07.66.59.84a6.87,6.87,0,0,0,2.72.22,7.4,7.4,0,0,0,2-.39c1.06-.36,2-1.25.9-1.69-.05,0-.17,0-.13-.1a3,3,0,0,0,1.14-.53c.51-.42.46-.9-.13-1.17a7.48,7.48,0,0,0-4.16,0A2.56,2.56,0,0,0,43.07,142.43Zm76.17.84a1.44,1.44,0,0,0,.86-.57c.22-.46-.18-.95-1-1.19a7.31,7.31,0,0,0-3.91,0c-.65.18-1,.49-1,.92h1.21a.38.38,0,0,0,.27-.09,3.49,3.49,0,0,1,2.78-.21c.47.21.41.55-.13.7a3.44,3.44,0,0,1-.81.11H116.3c-.2,0-.31,0-.29.15s-.05.32,0,.49h1.15a4.58,4.58,0,0,1,1.12.12c.51.14.68.46.37.71a3.66,3.66,0,0,1-3.12,0,.82.82,0,0,0-.69-.21h-.61c-.29,0-.34.07-.3.2.14.44.6.74,1.34.9a8.19,8.19,0,0,0,3.75,0c.81-.18,1.28-.51,1.33-1S120,143.5,119.24,143.27Zm-14.72,2.13c0-.23,0-.42.06-.62s.07-.17.32-.18c.63,0,.63,0,.66-.36l0-.26c0-.11-.07-.14-.27-.15-.63,0-.63,0-.6-.38l0-.25c.06-.54.11-1.08.17-1.61,0-.27,0-.27-.53-.27-.37,0-.75,0-1.12,0a1.23,1.23,0,0,0-.81.21c-.9.6-1.81,1.22-2.79,1.82-.52.32-.77.63-.68,1,.05.22,0,.23.44.23h2.73a2.74,2.74,0,0,1,.88,0c.22.1,0,.31,0,.47a.69.69,0,0,1,0,.13c0,.11,0,.16.26.16C103.71,145.39,104.09,145.4,104.52,145.4ZM74.67,128.47l.7.4c.26.15.27.15.63,0,1.85-.83,2.44-1.74,2.09-2.7a1.57,1.57,0,0,0-.73-.74.29.29,0,0,0-.31,0l-1.22.45C77.08,126.6,76.56,127.7,74.67,128.47Zm80.36-3.1c-.34-.14-.4-.24-.21-.39.44-.35.29-.74-.34-1.12a4.53,4.53,0,0,0-2.34-.5c-1.14,0-1.91.39-1.86.89s.92,1,2.07,1.13a5.25,5.25,0,0,0,1.43,0,.64.64,0,0,1,.41,0,.55.55,0,0,0,.59,0Zm-27.83,20c0-.14,0-.25,0-.36,0-.3,0-.3-.62-.31s-.49,0-.51-.28c-.09-.94-.17-1.86-.25-2.77a1.49,1.49,0,0,0,0-.21c0-.1-.07-.15-.28-.15h-2.07c-.1,0-.23,0-.23.06s-.11.4.07.58.44,0,.67,0H124c.26,0,.35,0,.35.18q.09,1.17.18,2.37c0,.11,0,.18-.29.18s-.66-.07-.79.05,0,.32,0,.48a.43.43,0,0,0,0,.14ZM77,144.72a4.41,4.41,0,0,1-.19.52c0,.12,0,.16.24.16h3.18c.17,0,.28,0,.31-.13a1.09,1.09,0,0,0,0-.17c.13-.37.13-.38-.53-.38-.3,0-.46,0-.35-.21a.8.8,0,0,0,.07-.2c.29-.88.58-1.75.85-2.6.15-.46.23-.39-.6-.4h-.77a3.13,3.13,0,0,0-1,0c-.25.12-.18.36-.25.54s0,.06,0,.1h.71c.32,0,.4,0,.34.21-.2.55-.38,1.1-.57,1.65-.08.23-.16.45-.23.68s-.18.2-.43.19ZM59.72,143l.78-1.51c.07-.13,0-.18-.25-.17H58.54c-.55,0-.55,0-.71.28s-.22.39.52.4c.43,0,.44,0,.31.25-.38.73-.77,1.46-1.17,2.21-.14.26-.14.26-.63.27-.76,0-.65-.05-.88.37l-.09.16c-.06.1,0,.15.17.15h3.25c.17,0,.28,0,.32-.14a1.4,1.4,0,0,1,.09-.17c.18-.36.19-.37-.48-.37-.31,0-.4,0-.31-.22C59.22,144,59.46,143.49,59.72,143Zm114.16-18.64c.3-.19.35-.25.3-.38-.11-.29-.79-.54-1.54-.56-.55,0-1.09,0-1.63,0-.22,0-.26,0-.2.12.35.57.69,1.15,1.05,1.73l0,0c0,.06.1.09.22.09.68,0,1.4,0,2,0,.46,0,.75-.16.77-.37S174.67,124.5,173.88,124.35ZM155.43,124c.12.26.22.51.33.76s.15.32.21.48.11.11.28.11h.25c.26,0,.36,0,.29-.15a4,4,0,0,1-.23-.53c-.08-.21.14-.34.53-.36.15,0,.35,0,.43,0s0-.14.07-.21,0-.07.11-.08l1.76,1.19c.11.08,0,.13,0,.19a2.81,2.81,0,0,0-.27.55c.15,0,.26,0,.38,0,.38,0,.55,0,.62-.19.23-.53.51-1,.76-1.55,0-.06.11-.12,0-.2a4.35,4.35,0,0,0-.5,0c-.28,0-.41,0-.44.15a2.75,2.75,0,0,1-.21.51s0,.1-.16.11l-.92-.65a.48.48,0,0,0-.35-.12c-.43,0-.86,0-1.31,0a1.36,1.36,0,0,0-.8.17C156.08,123.93,155.76,124.05,155.43,124Zm7.43,1.24a3.25,3.25,0,0,0,1.27.14c.72-.07,1-.36.82-.74a1.56,1.56,0,0,0-1.11-.61,2.4,2.4,0,0,0-1.45,0,.11.11,0,0,1-.14,0c-.13-.14-.34-.07-.51-.08s-.33,0-.27.14c.29.54.56,1.1.83,1.66,0,.11.14.17.41.15H163c.2,0,.25,0,.2-.11S163,125.48,162.86,125.27Zm20.18-.84-.15,0-.6-.81c-.14-.2-.15-.2-.61-.2s-.36,0-.24.17l1.17,1.62c.14.19.14.19.54.19s.44,0,.31-.19a1,1,0,0,0-.08-.11c-.12-.13-.08-.21.15-.27a4,4,0,0,1,.62.28,2.21,2.21,0,0,0,1.53.28l0,0-1.78-.8c.21-.18.53-.32.74-.51H184a.82.82,0,0,0-.59.13C183.32,124.25,183.17,124.34,183,124.43Zm-6,.09a7.74,7.74,0,0,0-1.17,0c-.48,0-.7.21-.59.42s.54.41,1.11.48a1.91,1.91,0,0,0,1-.08c.07,0,.1-.06.27,0a1.76,1.76,0,0,0,.72,0c.1,0,.08-.05.06-.09-.19-.27-.36-.55-.58-.82a1.43,1.43,0,0,0-.86-.4,3.61,3.61,0,0,0-1.88.07c-.08,0-.2.06-.12.14a4.93,4.93,0,0,0,.58.13c.18,0,.21-.07.35-.09a1.77,1.77,0,0,1,.52,0A.76.76,0,0,1,177,124.52Zm-9.41.17a2.49,2.49,0,0,0,2.05.73c1,0,1.47-.3,1.22-.72a2.51,2.51,0,0,0-2-.72C167.91,124,167.4,124.27,167.63,124.69Zm11.5-.53c-.22-.14-.22-.14-.57-.13s-.36,0-.26.15l.71,1c.11.17.12.17.52.17s.44,0,.31-.2l-.11-.15c-.1-.16-.27-.33-.28-.49s.23-.24.6-.21a.76.76,0,0,1,.63.27l.42.6c.13.18.13.18.55.18h.21c.15,0,.18,0,.14-.1-.22-.29-.41-.59-.66-.88A2,2,0,0,0,180,124,1.52,1.52,0,0,0,179.13,124.16Zm-13.8-.15h-.2c-.2,0-.35,0-.28.13s.08.16.44.18c.18,0,.24,0,.28.11s.2.35.28.53c.18.34,1,.54,1.77.42,0,0,.1,0,.1,0s-.18-.17-.26-.25-.19,0-.31,0c-.34,0-.42,0-.52-.19s-.13-.26-.22-.4,0-.13.24-.13c.45,0,.45,0,.31-.21s-.12-.09-.29-.1c-.5,0-.5,0-.63-.23l-.06-.11a.26.26,0,0,0-.15-.06,3.22,3.22,0,0,0-.63,0c-.13,0,0,.14,0,.2A1.51,1.51,0,0,0,165.33,124Zm-90.92,2.34-1.9.71c-.13,0-.15.09-.06.14l1.26.72C74.83,127.58,75.24,126.69,74.41,126.35Zm114.22,19.54a2.45,2.45,0,0,1-.59-.3l-1.36-.8a.74.74,0,0,0-.48-.1c-.18,0-.12.1-.07.18l1.06,1.7a.37.37,0,0,0,.38.17c.26,0,.16-.1.11-.19-.2-.32-.42-.65-.61-1,0-.07-.16-.16.05-.19.39.18.68.4,1,.59s.38.31.69.32.21-.2.28-.31.13-.43.3-.62a.42.42,0,0,1,.31.27c.21.31.42.62.62.94a.38.38,0,0,0,.38.16c.2,0,.2-.06.14-.15-.39-.59-.77-1.16-1.14-1.74a.34.34,0,0,0-.26-.15c-.16,0-.31,0-.36.05a.82.82,0,0,0-.09.19Zm-166,21H21a.66.66,0,0,0-.68.29c-.17.28-.41.57-.61.86-.49.7-.58.6.49.61a13.27,13.27,0,0,1,2,.06c.59.12.74.4.48.83a2.26,2.26,0,0,1-1.56.9,4.84,4.84,0,0,1-1.93,0c-.44-.08-.6-.3-.46-.65,0-.09-.09-.1-.23-.09s-.28.13-.32.23a.49.49,0,0,0,.32.72,4.82,4.82,0,0,0,2.74,0,2.92,2.92,0,0,0,2-1.27c.28-.55,0-.88-.76-1a5.58,5.58,0,0,0-.84,0h-1.4c-.24,0-.32-.06-.2-.22s.38-.51.55-.77a.56.56,0,0,1,.51-.23h3.07a.49.49,0,0,0,.36-.12c.11-.12,0-.15-.18-.15ZM194.14,149.2a3.21,3.21,0,0,0-1.93-1,2.42,2.42,0,0,0-2,.25c-.41.34-.21.89.48,1.34a4.27,4.27,0,0,0,2.58.6,1.07,1.07,0,0,1,.83.06c.13.06.39-.06.27-.12-.39-.22-.15-.33-.1-.47A.73.73,0,0,0,194.14,149.2ZM26.07,170.8h4.52a.27.27,0,0,0,.24-.14c0-.07,0-.13-.08-.13a4.43,4.43,0,0,0-.52,0H27.31c-.57,0-.56,0-.33-.37a2.18,2.18,0,0,1,2-1l1,0a5.35,5.35,0,0,0,.95-.15,2.49,2.49,0,0,0,1.61-1c.29-.47.11-.78-.42-1a5,5,0,0,0-2.56,0,2.84,2.84,0,0,0-1.34.63c-.1.09-.31.23-.09.28a.48.48,0,0,0,.46-.17,2,2,0,0,1,1-.47,4.12,4.12,0,0,1,2.27,0c.38.13.47.38.24.72a1.86,1.86,0,0,1-1.14.66,5.87,5.87,0,0,1-1.41.16,6.14,6.14,0,0,0-1.32.15,2.45,2.45,0,0,0-1.54.91C26.51,170.15,26.31,170.44,26.07,170.8Zm14.29-20.34h3.58c.11,0,.17-.05.19-.1s0-.1-.07-.11H41.19c-.12,0-.28,0-.3-.06-.07-.31.61-.78,1.29-.87.35,0,.7,0,1-.06a5,5,0,0,0,1.07-.16,1.67,1.67,0,0,0,1.06-.62c.18-.3.08-.52-.32-.64a4.58,4.58,0,0,0-2.36,0,1.86,1.86,0,0,0-.92.46s-.13.12,0,.14a.36.36,0,0,0,.34-.08,1.42,1.42,0,0,1,.56-.31,4,4,0,0,1,2.22,0c.41.22.14.64-.56.85a3.13,3.13,0,0,1-.79.14c-.37,0-.74,0-1.11.06-.9.09-1.5.35-1.73.8A2.57,2.57,0,0,0,40.36,150.46Zm-9-1.37h0c-.12.16-.26.33-.36.49-.31.54.21.93,1.21.92a3.49,3.49,0,0,0,2.51-.93,7.4,7.4,0,0,0,.69-1c.3-.53-.22-.89-1.21-.89a3.63,3.63,0,0,0-2.48.9C31.56,148.76,31.46,148.92,31.34,149.09Zm168.46,1.57a2.73,2.73,0,0,0,1.77.38c.52-.06.75-.29.53-.63s-.68-.93-1-1.39a.34.34,0,0,0-.41-.12c-.14.11-.33,0-.57,0a1.41,1.41,0,0,0-1.2.11c-.27.24-.17.53.22.85a2.35,2.35,0,0,0,2.12.43.27.27,0,0,1,.27,0c.23.23.27.42-.07.53a1.59,1.59,0,0,1-1.13-.12C200,150.51,199.92,150.59,199.8,150.66ZM40,169.91a3.12,3.12,0,0,1-.34.74c0,.09,0,.15.13.15a.35.35,0,0,0,.33-.14l.22-.39a.53.53,0,0,1,.65-.36.38.38,0,0,0,.39-.15c.07-.13-.06-.16-.22-.15-.48,0-.38-.14-.26-.35.38-.68.76-1.35,1.12-2,.06-.11.27-.28.05-.33a1.17,1.17,0,0,0-.86.09l-.34.18-3.85,2.06c-.29.15-.68.3-.64.55s.47.11.74.12ZM47,168.23c.19-.35.37-.7.54-1s.09-.32-.34-.31a1.19,1.19,0,0,0-.65.2l-4.17,2.27c-.24.14-.43.27-.4.44s.32.12.52.12h2.69c.35,0,.49.05.33.3a2.64,2.64,0,0,0-.23.44q-.07.15.15.15a.31.31,0,0,0,.31-.14c.08-.14.15-.27.21-.4a.51.51,0,0,1,.64-.35.37.37,0,0,0,.38-.15c.06-.14-.08-.16-.24-.15-.39,0-.42-.09-.29-.31S46.78,168.59,47,168.23Zm1-18.37c0,.18-.15.34-.22.49s0,.11.13.11.22,0,.26-.11l.1-.18c.09-.17.15-.35.61-.32a.25.25,0,0,0,.25-.12c0-.07-.06-.1-.17-.09-.42,0-.31-.12-.22-.27l.82-1.4c.12-.21,0-.26-.36-.23a1.23,1.23,0,0,0-.49.15l-3.24,1.53c-.23.11-.41.21-.39.35s.29.07.46.08h2.46Zm136.74.54c.79,0,1.13-.3.77-.74a1.81,1.81,0,0,0-1-.49l-1.06-.22c-.24-.06-.42-.15-.46-.28s.07-.21.26-.25a1.55,1.55,0,0,1,.81.08c.1,0,.19.1.29.13a.39.39,0,0,0,.32,0c.08,0,0-.1-.09-.15a2.7,2.7,0,0,0-1.55-.29c-.47.07-.7.27-.6.52s.51.47,1.16.61l.53.1c.13,0,.27,0,.4.09.38.1.58.25.59.41s-.2.23-.49.25a1.76,1.76,0,0,1-1.1-.31.44.44,0,0,0-.41-.05c-.15.05-.08.13.05.21A2.71,2.71,0,0,0,184.66,150.4ZM47.29,170.76a.85.85,0,0,0,.84-.2l4.42-3.23a2.11,2.11,0,0,0,.22-.17c.17-.17.15-.28-.16-.28H48.74a.28.28,0,0,0-.24.12c0,.07,0,.13.08.14l.5,0h2.56c.16,0,.37,0,.43.11ZM191.05,146a2,2,0,0,0,1.27.69,1.65,1.65,0,0,0,1.34-.19s.11-.08,0-.14a.43.43,0,0,0-.36,0c-.08,0-.11.09-.19.13a1.7,1.7,0,0,1-1.28-.17c-.29-.17-.27-.25.08-.25H193c.59,0,.63-.07.2-.37a2.3,2.3,0,0,0-1.05-.37C191.2,145.22,190.71,145.54,191.05,146Zm6.15-.21a1.12,1.12,0,0,1-.41,0,2.6,2.6,0,0,0-.76,0c-.28.07-.4.2-.28.41a1.29,1.29,0,0,0,.78.44,1.82,1.82,0,0,0,.92,0,1.09,1.09,0,0,1,.61,0c.25.06.3,0,.21-.16l-.49-.67a1.44,1.44,0,0,0-1-.55,2.18,2.18,0,0,0-1.35.07c-.06,0-.17.09,0,.16a.63.63,0,0,0,.42.09c.1,0,.15-.08.24-.11A1.26,1.26,0,0,1,197.2,145.83Zm-19.4-.11h0l.47.88a.36.36,0,0,0,.34.14c.2,0,.21-.06.16-.15s-.19-.36-.3-.53,0-.2.26-.2h.92c.16,0,.26,0,.2-.13s-.2-.13-.36-.13h-.67c-.61,0-.61,0-.78-.33a.83.83,0,0,0-.07-.13c-.09-.14,0-.19.27-.19h1c.15,0,.29,0,.23-.12s-.18-.15-.38-.15h-1.52c-.3,0-.35.07-.26.22S177.65,145.45,177.8,145.72Zm11.54,3.73a3.62,3.62,0,0,0-1.32,0c-.29.08-.41.21-.28.43a1.19,1.19,0,0,0,.8.45,1.6,1.6,0,0,0,1,0c.11,0,.14-.12.39,0s.37,0,.28-.12-.3-.47-.44-.71a1.29,1.29,0,0,0-.93-.58,2.07,2.07,0,0,0-1.38.08c-.05,0-.15.07,0,.14a.67.67,0,0,0,.37.08c.08,0,.12-.07.2-.09A1.33,1.33,0,0,1,189.34,149.45ZM24.46,170.53c.3-.46.57-.86.83-1.24.47-.71.95-1.42,1.4-2.11.07-.1.26-.26,0-.28s-.76,0-1.15,0a.27.27,0,0,0-.23.14c0,.05,0,.09.05.1l.28,0c.58,0,.58,0,.34.39L24.38,170c-.34.5-.34.5-1.12.56H23.1a.37.37,0,0,0-.25.15c-.06.09,0,.12.1.12h2.1c.13,0,.28,0,.33-.14s0-.13-.17-.13Zm158.4-24.48c-.11-.19-.22-.38-.34-.57a.35.35,0,0,0-.32-.15c-.24,0-.24.06-.18.16a6.47,6.47,0,0,1,.37.67c.1.25-.11.39-.5.38a.88.88,0,0,1-.8-.4c-.13-.21-.25-.42-.37-.63s-.12-.18-.36-.18-.17.1-.12.19.25.47.4.7a1.6,1.6,0,0,0,1.73.51.68.68,0,0,1,.53,0c.18.06.37,0,.28-.14ZM35.53,150.23a3.16,3.16,0,0,1-.65,0c-.14,0-.22,0-.26.12s.05.07.13.07h1.66c.08,0,.18,0,.23-.07s0-.11-.11-.12h-.19c-.43,0-.43,0-.25-.3l1.22-1.77c.36-.52.36-.52-.61-.46h-.06a.34.34,0,0,0-.23.08c-.06.07,0,.1.11.1a2.09,2.09,0,0,0,.25,0c.29,0,.32.06.22.2C36.5,148.81,36,149.51,35.53,150.23Zm160.52-.65.4.57a.42.42,0,0,0,.44.21c.25,0,.14-.12.08-.21l-.37-.54a.49.49,0,0,1-.12-.28c0-.19.2-.27.57-.25a.94.94,0,0,1,.76.34c.21.26.38.52.57.78a.4.4,0,0,0,.37.16c.2,0,.21-.06.14-.16a9.79,9.79,0,0,0-.62-.86,1.84,1.84,0,0,0-1.78-.47.74.74,0,0,1-.54,0c-.28-.08-.37,0-.26.16S195.93,149.4,196.05,149.58Zm-154.43-2c.05-.11-.09-.09-.19-.08a.5.5,0,0,0-.31.15l-4.3,2.94c-.09.06-.26.14-.12.19a.48.48,0,0,0,.41-.11l.15-.1,4.14-2.85Zm153.88-.81c.12,0,.32,0,.3-.08s-.17-.17-.39-.18a.66.66,0,0,1-.54-.26c-.08-.13-.17-.25-.26-.37s-.25-.32.21-.3c.15,0,.16-.06.1-.14a.36.36,0,0,0-.31-.11c-.36,0-.46-.1-.55-.24a.35.35,0,0,0-.36-.18c-.24,0-.19.08-.14.17s.27.24-.06.25c-.14,0-.2,0-.14.12a.34.34,0,0,0,.3.13.42.42,0,0,1,.38.18,6,6,0,0,0,.42.61A1.35,1.35,0,0,0,195.5,146.77Zm-8.09,3.6c.09,0,.32,0,.26-.1s-.17-.15-.37-.16a.55.55,0,0,1-.54-.27c-.09-.14-.16-.28-.26-.43s-.25-.36.27-.32c.09,0,.15,0,.12-.08a.24.24,0,0,0-.23-.13c-.45,0-.59-.12-.68-.32s-.13-.16-.33-.15-.16.09-.1.17.19.29-.19.32c-.15,0-.07.17.12.18.45,0,.47.17.56.32s.21.38.35.57A1.25,1.25,0,0,0,187.41,150.37Zm-4.17-4.67c.18.28.35.58.53.87,0,.1.13.18.36.17s.21-.08.15-.18l-1-1.7c-.05-.1-.15-.17-.36-.17s-.19.09-.14.18Zm1.07,0,.53.88c0,.08.09.15.31.16s.21,0,.15-.14l-1.06-1.74a.32.32,0,0,0-.32-.15c-.19,0-.17.08-.11.17Zm14.37,0-.64-.86a.33.33,0,0,0-.32-.16c-.19,0-.19.07-.12.16l1.26,1.73c.07.1.17.14.36.14s.15-.06.1-.14Zm-3.26,3.86L195,149a.38.38,0,0,0-.36-.15c-.19,0-.22,0-.15.15.26.39.53.78.79,1.18a.38.38,0,0,0,.35.17c.24,0,.25-.06.17-.18Zm-161,19.6h1.25a.43.43,0,0,0,.39-.16c.06-.11,0-.14-.17-.14H33.4a.39.39,0,0,0-.33.13c-.09.13,0,.16.19.16Zm160.25-20.83a.65.65,0,0,0-.49-.19c-.19,0-.28.06-.23.16a.52.52,0,0,0,.46.21C194.65,148.55,194.71,148.47,194.68,148.35Z"/><path class="cls-6" d="M180.92,118.43H128.65a1.61,1.61,0,0,1-.58,0h52.78S180.91,118.41,180.92,118.43Z"/><path class="cls-7" d="M45.09,120.28h.13c0,.08-.2.15-.33.23Z"/><path class="cls-7" d="M180.92,118.43s0,0-.07,0h.47l0,0A2.44,2.44,0,0,1,180.92,118.43Z"/><path class="cls-7" d="M186.07,158.54c.35,0,.43-.12.59-.21a12.34,12.34,0,0,1,5-1.47A28.88,28.88,0,0,1,210,162c7.17,5.21,6.72,11.62-1.71,12.91A26.27,26.27,0,0,1,195,173.07l-.79-.28c-.95-.51-2-.95-2.89-1.48a16.78,16.78,0,0,1-6.49-5.93,6.27,6.27,0,0,1-.45-1.14,4.61,4.61,0,0,1-.14-3,4.77,4.77,0,0,1,1.62-2.31C186,158.8,186.13,158.71,186.07,158.54Z"/><path class="cls-8" d="M186.07,158.54c.06.17-.11.26-.23.36a4.77,4.77,0,0,0-1.62,2.31,4.61,4.61,0,0,0,.14,3,6.27,6.27,0,0,0,.45,1.14,16.78,16.78,0,0,0,6.49,5.93c.93.53,1.94,1,2.89,1.48a12,12,0,0,1-6.7,2.24,25.54,25.54,0,0,1-13.39-2.73c-3.19-1.57-5.5-3.47-6.76-5.65-2.17-3.78-1.17-6.63,2.74-8.59a14.28,14.28,0,0,1,6-1.28,25.92,25.92,0,0,1,9.42,1.54A1.85,1.85,0,0,1,186.07,158.54Z"/><path class="cls-9" d="M55,131.15H47.45c-1.56,0-2.44-.47-2.23-1.17a.91.91,0,0,1,.15-.27l3.7-5a3.08,3.08,0,0,1,1.35-.86,6,6,0,0,1,1.18-.29,10.61,10.61,0,0,1,1.58-.12H66.77a5.38,5.38,0,0,1,1.75.23c.56.2.81.48.76.84a1.88,1.88,0,0,1-.21.57Q68,127.2,66.8,129.48a2.38,2.38,0,0,1-.48.61A4.58,4.58,0,0,1,64,131a8.91,8.91,0,0,1-1.36.11C60.08,131.14,57.56,131.15,55,131.15Zm.34-.45h.69c.25,0,.45,0,.51-.17.14-.32.64-.5,1.28-.63a4.3,4.3,0,0,0,2.35-1.18c.19-.19.18-.37-.07-.5a.28.28,0,0,1-.12-.46c.24-.4.48-.8.7-1.19a1.42,1.42,0,0,1,.87-.59.59.59,0,0,0,.39-.26c.27-.48.06-.86-.66-1.14l-.42-.14c-.31-.1-.45-.24-.3-.44s.06-.2-.3-.2H59.11c-.42,0-.46,0-.58.21a1.4,1.4,0,0,1-.84.43l-.49.12A3.76,3.76,0,0,0,55,125.69c-.1.11-.11.21,0,.28.34.17.3.39.14.64s-.47.69-.69,1a1.6,1.6,0,0,1-1,.66.66.66,0,0,0-.43.28c-.28.54-.14,1,.75,1.28.47.16.82.32.53.67-.1.12,0,.16.27.16Zm-5,0H53c.38,0,.5,0,.57-.22s-.06-.16-.21-.2a2.68,2.68,0,0,1-.76-.34.91.91,0,0,1-.45-1.16c.1-.26,0-.28-.54-.29h-.72c-.2,0-.3-.07-.26-.17s.28-.18.51-.19h1.36c.62,0,.9-.11,1.13-.39a8.31,8.31,0,0,0,.77-1.16c.15-.28,0-.39-.61-.39q-2.23,0-4.47,0c-.37,0-.48,0-.61.2-.36.48-.73,1-1.08,1.46-.18.24-.06.3.49.29H49c.3,0,.45.08.4.18s-.31.18-.63.2a7.31,7.31,0,0,1-.82,0c-.6,0-.92.07-1.12.36a6.78,6.78,0,0,1-.46.68c-.64.76-.07,1.2,1.56,1.21h2.4Zm14.1-6.9H61.92a.71.71,0,0,0-.41.08c-.12.09-.17.17,0,.24l.2.07.42.14c.66.3,1,.67.8,1.16-.11.28-.06.32.57.32h.81c.26,0,.4.1.34.18a.75.75,0,0,1-.56.17H62.42c-.41,0-.65.12-.78.29a9,9,0,0,0-.77,1.32c-.09.18.06.27.43.3a4.26,4.26,0,0,0,.51,0h4.3c.38,0,.47,0,.58-.21v0c.24-.45.48-.9.7-1.35.14-.27,0-.33-.56-.35h-.66c-.31,0-.46-.07-.43-.17s.29-.17.64-.19h.91c.43,0,.49,0,.59-.2s.34-.63.48-.94c.23-.52-.37-.84-1.55-.85C66,123.8,65.24,123.81,64.45,123.81Zm-12.88,2h2c.51,0,.56,0,.75-.23a5.23,5.23,0,0,1,2.81-1.35l.4-.09c.23-.08.29-.17.28-.27s-.2,0-.35,0c-1.66,0-3.33,0-5,0a3.6,3.6,0,0,0-2.42.77,9.14,9.14,0,0,0-.75,1c-.16.22-.12.24.39.24Zm9,4.9h2.55a3.07,3.07,0,0,0,2.65-1c.18-.32.35-.64.51-.95s.1-.26-.42-.26h-4c-.54,0-.57,0-.78.27a2.69,2.69,0,0,1-1,.8,8.58,8.58,0,0,1-2.06.72c-.34.08-.5.18-.52.3s.26.12.48.12C58.78,130.71,59.65,130.7,60.52,130.7Z"/><path class="cls-10" d="M92.6,143.25c-1.41-.61-.45-1.58,1-1.84a8,8,0,0,1,3.38,0,2,2,0,0,1,1,.47c.46.46.2.91-.8,1.33l.23.09c1.05.49.83,1.38-.46,1.83a7.09,7.09,0,0,1-2.27.34,7.22,7.22,0,0,1-2.42-.28c-.69-.23-1-.58-.89-1S91.87,143.48,92.6,143.25Zm2.19.32a4.43,4.43,0,0,0-1.31.15c-.72.2-.84.59-.26.84a4.83,4.83,0,0,0,2.72,0c.69-.25.72-.66,0-.87A3.81,3.81,0,0,0,94.79,143.57Zm0-.58a3.45,3.45,0,0,0,1.36-.2c.53-.2.57-.55.1-.74a4.17,4.17,0,0,0-2.35,0c-.62.21-.7.56-.16.78A2.72,2.72,0,0,0,94.81,143Z"/><path class="cls-10" d="M55.23,143.21c.72.32.84.72.34,1.25a3.09,3.09,0,0,1-1.62.79,8.63,8.63,0,0,1-4.3,0c-.76-.24-.88-.72-.42-1.23a2.93,2.93,0,0,1,1.42-.72c.05-.05,0-.08,0-.11-.84-.41-.09-1.21,1-1.57a7.65,7.65,0,0,1,1.83-.33,6.38,6.38,0,0,1,2.51.23c.48.16.74.41.65.77S56.08,143,55.23,143.21Zm-2.38.36a5.24,5.24,0,0,0-1.34.13c-.89.22-1.2.66-.58.89a4.43,4.43,0,0,0,2.56,0c.88-.23,1.07-.69.43-.9A3.32,3.32,0,0,0,52.85,143.57Zm.27-.58a4,4,0,0,0,1.28-.17c.69-.21.88-.58.44-.78a4.18,4.18,0,0,0-2.31,0c-.72.22-.94.58-.45.8A2.65,2.65,0,0,0,53.12,143Z"/><path class="cls-10" d="M107.69,143.24c-1.34-.51-.83-1.5.61-1.81a8,8,0,0,1,3.6,0,2.33,2.33,0,0,1,.58.21c.93.45.84,1.09-.22,1.53,0,.07.14.09.22.13,1.09.48,1,1.35-.18,1.81a7,7,0,0,1-2.33.36,7.81,7.81,0,0,1-2.3-.26c-1-.3-1.4-.92-1-1.44A2.26,2.26,0,0,1,107.69,143.24Zm2.25.33a4.47,4.47,0,0,0-1.23.13c-.75.21-.82.64-.15.88a5,5,0,0,0,2.62,0c.69-.24.68-.68,0-.89A4,4,0,0,0,109.94,143.57Zm-.06-.58a3.53,3.53,0,0,0,1.33-.19c.51-.21.52-.54,0-.75a4.12,4.12,0,0,0-2.41,0c-.54.21-.57.53-.07.74A2.93,2.93,0,0,0,109.88,143Z"/><path class="cls-10" d="M129.37,143.07a3.83,3.83,0,0,1,.79-.26,6.34,6.34,0,0,1,3.33.28c1.24.48,1.33,1.51.18,2a6.38,6.38,0,0,1-3,.34,6.18,6.18,0,0,1-1.24-.22c-.88-.26-1.38-.64-1.44-1.17s-.11-1-.16-1.47.41-.93,1.32-1.15a8,8,0,0,1,3.55,0c.7.15,1.18.42,1.34.82.05.13,0,.18-.25.17h-.71c-.25,0-.47,0-.55-.17s-.18-.12-.29-.16a4.22,4.22,0,0,0-2.61,0c-.21.1-.34.23-.35.38A4.62,4.62,0,0,0,129.37,143.07Zm2,1.67a3.49,3.49,0,0,0,1-.12c.4-.11.63-.28.6-.53s-.26-.45-.68-.56a4.21,4.21,0,0,0-2.31,0c-.36.1-.55.29-.51.52s.3.43.73.54A3.85,3.85,0,0,0,131.35,144.74Z"/><path class="cls-10" d="M63,144.21H64c.3,0,.54,0,.54.2s.19.18.38.23a4.42,4.42,0,0,0,1.93.05c.71-.13,1.07-.34,1.24-.71a.86.86,0,0,0,.13-.41,6.07,6.07,0,0,1-3.45.19c-1.13-.25-1.4-.91-.68-1.57a3.13,3.13,0,0,1,1.44-.69,7.07,7.07,0,0,1,3.85,0c.71.23,1,.6.76,1.1s-.43,1-.64,1.5a2.43,2.43,0,0,1-1.83,1.15,8,8,0,0,1-4,0C63,145,62.79,144.65,63,144.21Zm3.67-1a5,5,0,0,0,1.13-.14,1.22,1.22,0,0,0,.85-.54c.09-.24,0-.41-.38-.51a4.31,4.31,0,0,0-2.23,0c-.91.23-1.19.77-.54,1A3.17,3.17,0,0,0,66.71,143.24Z"/><path class="cls-10" d="M79.83,124.31c3,1.48,1.83,4.32-2.32,5.81-.26-.16-.5-.31-.78-.46s-.13-.13.08-.21A6.68,6.68,0,0,0,79,128.13c1.17-1.2,1.15-2.26-.26-3.17-.22-.14-.22-.14.13-.27Z"/><path class="cls-10" d="M35.16,144.15c.24,0,.45,0,.67,0,.43,0,.83,0,.73.26,0,.06.08.1.15.14a4.25,4.25,0,0,0,2.43,0A1.25,1.25,0,0,0,40,144c.11-.21-.06-.34-.37-.42a4.28,4.28,0,0,0-1-.09H36.21c-.32,0-.4,0-.27-.21.44-.57.84-1.13,1.25-1.69.16-.22.18-.22.6-.22h4.6c.43,0,.44,0,.29.21-.42.61-.18.49-1.25.5H38.64c-.32,0-.45.06-.56.22-.4.58-.44.47.57.48a12.28,12.28,0,0,1,1.74.07c1,.15,1.39.53,1.11,1.07A3.38,3.38,0,0,1,39,145.28a7.27,7.27,0,0,1-3.47-.05C34.86,145,34.75,144.63,35.16,144.15Z"/><path class="cls-10" d="M74.6,141.32H77c.32,0,.38.06.32.22-.25.61,0,.49-1.1.5H73.46c-.44,0-.46,0-.55.25-.21.55-.27.44.67.45a13.52,13.52,0,0,1,1.82.07c1.09.16,1.57.54,1.43,1.14s-.87,1.11-2,1.35a7.72,7.72,0,0,1-3.43,0c-.69-.17-.93-.51-.86-.94,0-.14.14-.17.36-.17h.61c.32,0,.59,0,.58.22s.16.18.33.22a4.28,4.28,0,0,0,2.05,0c.56-.12.86-.34.92-.63s-.17-.39-.68-.47a5,5,0,0,0-.87-.06H71.39c-.3,0-.36,0-.3-.19.26-.59.49-1.16.71-1.73.07-.16.2-.21.5-.21Z"/><path class="cls-10" d="M135.47,144.15a6.71,6.71,0,0,1,.78,0c.36,0,.66,0,.8.24a.79.79,0,0,0,.43.2,4.31,4.31,0,0,0,2.11,0c.45-.12.63-.34.53-.61s-.4-.4-.94-.48a6.84,6.84,0,0,0-.91-.06h-2.4c-.31,0-.43,0-.46-.21-.08-.57-.19-1.14-.29-1.69,0-.22,0-.22.4-.22h4.61c.43,0,.44,0,.49.21.13.61.25.49-.81.5H137c-.31,0-.4.05-.36.21.14.59,0,.48,1,.49a13.61,13.61,0,0,1,1.8.07c1.12.15,1.86.52,2.08,1s-.1,1.17-1.14,1.43a7.7,7.7,0,0,1-3.63-.05C135.93,145,135.48,144.62,135.47,144.15Z"/><path class="cls-10" d="M145.84,145.4c-.92,0-1.84,0-2.76,0-.31,0-.44,0-.47-.22s-.15-.61-.21-.92c-.09-.5.29-.85,1.11-1a7.48,7.48,0,0,1,1.6-.17,5.15,5.15,0,0,0,1-.07c.74-.15.77-.58.07-.87a4.06,4.06,0,0,0-2.51,0s-.1,0-.11.06c-.11.42-.78.29-1.31.31-.21,0-.29,0-.3-.15,0-.33.25-.58.71-.77a5.06,5.06,0,0,1,1.59-.29,8.51,8.51,0,0,1,2.35.21c1.28.33,1.94,1.15,1.38,1.76a2.08,2.08,0,0,1-1.2.45,7.19,7.19,0,0,1-1.24.07,7.07,7.07,0,0,0-.94.06c-.66.1-.86.28-.71.66.05.12.13.18.37.17h4c.48,0,.48,0,.56.24.17.51.17.51-.77.51Z"/><path class="cls-10" d="M88.53,143.34a2,2,0,0,1-.43.92,4.65,4.65,0,0,1-3.22,1.21c-1.51,0-2.63-.23-3.11-1-.36-.55.07-1.83.74-2.36a5.7,5.7,0,0,1,3.8-.88c1.42.12,2.29.66,2.32,1.41A2.27,2.27,0,0,1,88.53,143.34Zm-1.45,0a1.42,1.42,0,0,0,.08-.6c-.06-.46-.75-.79-1.63-.79a2.54,2.54,0,0,0-2.08.82,2.47,2.47,0,0,0-.34,1.11c0,.5.67.85,1.61.86a2.57,2.57,0,0,0,2.13-.83A1.71,1.71,0,0,0,87.08,143.33Z"/><path class="cls-10" d="M43.07,142.43a2.56,2.56,0,0,1,1.49-.88,7.48,7.48,0,0,1,4.16,0c.59.27.64.75.13,1.17a3,3,0,0,1-1.14.53c0,.08.08.08.13.1,1.06.44.16,1.33-.9,1.69a7.4,7.4,0,0,1-2,.39,6.87,6.87,0,0,1-2.72-.22c-.52-.18-.72-.46-.59-.84.06-.18.12-.2.48-.21h.66c.28,0,.47,0,.43.18s.06.13.14.18a4.32,4.32,0,0,0,2.68,0c.74-.24.92-.67.36-.84a3.34,3.34,0,0,0-.87-.11h-.73c-.72,0-.61,0-.39-.32s.2-.31.78-.32c.4,0,.8,0,1.21,0a1.6,1.6,0,0,0,1.21-.45c.14-.23-.08-.4-.57-.48a5.22,5.22,0,0,0-1.42,0,2.07,2.07,0,0,0-.88.25,1.07,1.07,0,0,1-.77.18Z"/><path class="cls-10" d="M119.24,143.27c.75.23,1.21.53,1.15,1s-.52.82-1.33,1a8.19,8.19,0,0,1-3.75,0c-.74-.16-1.2-.46-1.34-.9,0-.13,0-.21.3-.2h.61a.82.82,0,0,1,.69.21,3.66,3.66,0,0,0,3.12,0c.31-.25.14-.57-.37-.71a4.58,4.58,0,0,0-1.12-.12h-1.15c-.09-.17,0-.33,0-.49s.09-.15.29-.15h1.13a3.44,3.44,0,0,0,.81-.11c.54-.15.6-.49.13-.7a3.49,3.49,0,0,0-2.78.21.38.38,0,0,1-.27.09h-1.21c0-.43.38-.74,1-.92a7.31,7.31,0,0,1,3.91,0c.87.24,1.27.73,1,1.19A1.44,1.44,0,0,1,119.24,143.27Z"/><path class="cls-10" d="M104.52,145.4c-.43,0-.81,0-1.2,0-.21,0-.29-.05-.26-.16a.69.69,0,0,0,0-.13c0-.16.18-.37,0-.47a2.74,2.74,0,0,0-.88,0H99.43c-.43,0-.39,0-.44-.23-.09-.4.16-.71.68-1,1-.6,1.89-1.22,2.79-1.82a1.23,1.23,0,0,1,.81-.21c.37,0,.75,0,1.12,0,.55,0,.55,0,.53.27-.06.53-.11,1.07-.17,1.61l0,.25c0,.35,0,.35.6.38.2,0,.29,0,.27.15l0,.26c0,.33,0,.34-.66.36-.25,0-.31.06-.32.18S104.54,145.17,104.52,145.4Zm-1.09-3.3h-.12l-2.64,1.74H103c.19,0,.22-.06.23-.15C103.3,143.15,103.37,142.63,103.43,142.1Z"/><path class="cls-6" d="M228.21,180a1.49,1.49,0,0,1-.7.09H5.81a5.48,5.48,0,0,1-1.5-.1,12.92,12.92,0,0,1,1.76,0H228.21Z"/><path class="cls-10" d="M74.67,128.47c1.89-.77,2.41-1.87,1.16-2.65l1.22-.45a.29.29,0,0,1,.31,0,1.57,1.57,0,0,1,.73.74c.35,1-.24,1.87-2.09,2.7-.36.16-.37.16-.63,0Z"/><path class="cls-10" d="M155,125.37l-.25.09a.55.55,0,0,1-.59,0,.64.64,0,0,0-.41,0,5.25,5.25,0,0,1-1.43,0c-1.15-.15-2-.62-2.07-1.13s.72-.87,1.86-.89a4.53,4.53,0,0,1,2.34.5c.63.38.78.77.34,1.12C154.63,125.13,154.69,125.23,155,125.37Zm-1.09-.57c.38-.24.23-.63-.33-.86a3.24,3.24,0,0,0-1.94-.14c-.57.17-.68.55-.24.87a2.86,2.86,0,0,0,1.93.34l-.55-.32a3.23,3.23,0,0,1,.55-.18Z"/><path class="cls-10" d="M127.2,145.39h-3.69a.43.43,0,0,1,0-.14c0-.16-.11-.36,0-.48s.52,0,.79-.05.3-.07.29-.18q-.09-1.2-.18-2.37c0-.13-.09-.19-.35-.18h-.12c-.23,0-.56.06-.67,0s-.1-.39-.07-.58.13-.06.23-.06h2.07c.21,0,.28.05.28.15a1.49,1.49,0,0,1,0,.21c.08.91.16,1.83.25,2.77,0,.27,0,.27.51.28s.59,0,.62.31C127.17,145.14,127.18,145.25,127.2,145.39Z"/><path class="cls-10" d="M77,144.72h.81c.25,0,.39-.05.43-.19s.15-.45.23-.68c.19-.55.37-1.1.57-1.65.06-.16,0-.22-.34-.21H78s0-.07,0-.1,0-.42.25-.54a3.13,3.13,0,0,1,1,0H80c.83,0,.75-.06.6.4-.27.85-.56,1.72-.85,2.6a.8.8,0,0,1-.07.2c-.11.18.05.21.35.21.66,0,.66,0,.53.38a1.09,1.09,0,0,1,0,.17c0,.1-.14.13-.31.13H77.05c-.2,0-.29,0-.24-.16A4.41,4.41,0,0,0,77,144.72Z"/><path class="cls-10" d="M59.72,143c-.26.5-.5,1-.79,1.51-.09.18,0,.22.31.22.67,0,.66,0,.48.37a1.4,1.4,0,0,0-.09.17c0,.1-.15.14-.32.14H56.06c-.18,0-.23-.05-.17-.15l.09-.16c.23-.42.12-.37.88-.37.49,0,.49,0,.63-.27.4-.75.79-1.48,1.17-2.21.13-.24.12-.24-.31-.25-.74,0-.74,0-.52-.4s.16-.28.71-.28h1.71c.26,0,.32,0,.25.17Z"/><path class="cls-10" d="M173.88,124.35c.79.15,1.08.42,1.05.63s-.31.34-.77.37c-.65.06-1.37,0-2,0-.12,0-.19,0-.22-.09l0,0c-.36-.58-.7-1.16-1.05-1.73-.06-.09,0-.12.2-.12.54,0,1.08,0,1.63,0,.75,0,1.43.27,1.54.56C174.23,124.1,174.18,124.16,173.88,124.35Zm-.64.67h.44c.25,0,.36-.1.31-.21s-.24-.21-.53-.26a4.43,4.43,0,0,0-.51,0c-.83,0-.72-.06-.51.31.12.19.12.19.56.2Zm-.87-1.29H172c-.17,0-.23,0-.16.1s0,.28.38.34a3.61,3.61,0,0,0,.87,0c.23,0,.31-.1.25-.21a.72.72,0,0,0-.49-.21A3.8,3.8,0,0,0,172.37,123.73Z"/><path class="cls-10" d="M155.43,124c.33,0,.65-.1.9.13a1.36,1.36,0,0,1,.8-.17c.45,0,.88,0,1.31,0a.48.48,0,0,1,.35.12l.92.65c.17,0,.14-.07.16-.11a2.75,2.75,0,0,0,.21-.51c0-.12.16-.16.44-.15a4.35,4.35,0,0,1,.5,0c.07.08,0,.14,0,.2-.25.51-.53,1-.76,1.55-.07.16-.24.22-.62.19-.12,0-.23,0-.38,0a2.81,2.81,0,0,1,.27-.55c0-.06.08-.11,0-.19l-1.76-1.19c-.14,0-.1,0-.11.08s0,.15-.07.21-.28,0-.43,0c-.39,0-.61.15-.53.36a4,4,0,0,0,.23.53c.07.12,0,.16-.29.15h-.25c-.17,0-.25,0-.28-.11s-.14-.32-.21-.48S155.55,124.29,155.43,124Z"/><path class="cls-10" d="M162.86,125.27c.1.21.19.4.3.6s0,.12-.2.11h-.25c-.27,0-.36,0-.41-.15-.27-.56-.54-1.12-.83-1.66-.06-.12,0-.16.27-.14s.38-.06.51.08a.11.11,0,0,0,.14,0,2.4,2.4,0,0,1,1.45,0,1.56,1.56,0,0,1,1.11.61c.22.38-.1.67-.82.74A3.25,3.25,0,0,1,162.86,125.27Zm.26-1c-.46,0-.7.16-.58.38a1.22,1.22,0,0,0,1,.38c.46,0,.74-.18.61-.4A1.27,1.27,0,0,0,163.12,124.32Z"/><path class="cls-10" d="M183,124.43c.13-.09.28-.18.4-.28A.82.82,0,0,1,184,124h.65c-.21.19-.53.33-.74.51l1.78.8,0,0a2.21,2.21,0,0,1-1.53-.28,4,4,0,0,0-.62-.28c-.23.06-.27.14-.15.27a1,1,0,0,1,.08.11c.13.19.13.19-.31.19s-.4,0-.54-.19l-1.17-1.62c-.12-.16-.12-.16.24-.17s.47,0,.61.2l.6.81Z"/><path class="cls-10" d="M177,124.52a.76.76,0,0,0-.6-.23,1.77,1.77,0,0,0-.52,0c-.14,0-.17.12-.35.09a4.93,4.93,0,0,1-.58-.13c-.08-.08,0-.11.12-.14a3.61,3.61,0,0,1,1.88-.07,1.43,1.43,0,0,1,.86.4c.22.27.39.55.58.82,0,0,0,.09-.06.09a1.76,1.76,0,0,1-.72,0c-.17-.07-.2,0-.27,0a1.91,1.91,0,0,1-1,.08c-.57-.07-1-.24-1.11-.48s.11-.37.59-.42A7.74,7.74,0,0,1,177,124.52Zm-.38.24c-.35,0-.51,0-.53.13s.09.13.24.18a1.28,1.28,0,0,0,.7,0c.17,0,.3-.12.19-.22s-.36-.08-.55-.1Z"/><path class="cls-10" d="M167.63,124.69c-.23-.42.28-.71,1.23-.71a2.51,2.51,0,0,1,2,.72c.25.42-.26.73-1.22.72A2.49,2.49,0,0,1,167.63,124.69Zm2.43,0a1.16,1.16,0,0,0-1-.39c-.48,0-.74.16-.61.38a1.3,1.3,0,0,0,1,.38C169.94,125.08,170.18,124.92,170.06,124.71Z"/><path class="cls-10" d="M179.13,124.16A1.52,1.52,0,0,1,180,124a2,2,0,0,1,1.37.42c.25.29.44.59.66.88,0,.07,0,.1-.14.1h-.21c-.42,0-.42,0-.55-.18l-.42-.6a.76.76,0,0,0-.63-.27c-.37,0-.61,0-.6.21s.18.33.28.49l.11.15c.13.2.13.2-.31.2s-.41,0-.52-.17l-.71-1c-.1-.15-.1-.15.26-.15S178.91,124,179.13,124.16Z"/><path class="cls-10" d="M165.33,124a1.51,1.51,0,0,1-.09-.18c0-.06-.17-.16,0-.2a3.22,3.22,0,0,1,.63,0,.26.26,0,0,1,.15.06l.06.11c.13.22.13.22.63.23.17,0,.24,0,.29.1s.14.21-.31.21c-.23,0-.32,0-.24.13s.14.27.22.4.18.18.52.19c.12,0,.24,0,.31,0s.27.16.26.25-.06,0-.1,0c-.82.12-1.59-.08-1.77-.42-.08-.18-.19-.35-.28-.53s-.1-.1-.28-.11c-.36,0-.34,0-.44-.18s.08-.13.28-.13Z"/><path class="cls-10" d="M74.41,126.35c.83.34.42,1.23-.7,1.57l-1.26-.72c-.09,0-.07-.09.06-.14Z"/><path class="cls-7" d="M188.63,145.89l.4-.95a.82.82,0,0,1,.09-.19c0-.07.2-.07.36-.05a.34.34,0,0,1,.26.15c.37.58.75,1.15,1.14,1.74.06.09.06.15-.14.15a.38.38,0,0,1-.38-.16c-.2-.32-.41-.63-.62-.94a.42.42,0,0,0-.31-.27c-.17.19-.18.42-.3.62s0,.31-.28.31-.47-.21-.69-.32-.65-.41-1-.59c-.21,0-.09.12-.05.19.19.32.41.65.61,1,0,.09.15.19-.11.19a.37.37,0,0,1-.38-.17l-1.06-1.7c0-.08-.11-.16.07-.18a.74.74,0,0,1,.48.1l1.36.8A2.45,2.45,0,0,0,188.63,145.89Z"/><path class="cls-10" d="M22.6,166.88h1.75c.15,0,.29,0,.18.15a.49.49,0,0,1-.36.12H21.1a.56.56,0,0,0-.51.23c-.17.26-.35.51-.55.77s0,.22.2.22h1.4a5.58,5.58,0,0,1,.84,0c.78.13,1,.46.76,1a2.92,2.92,0,0,1-2,1.27,4.82,4.82,0,0,1-2.74,0,.49.49,0,0,1-.32-.72c0-.1.08-.2.32-.23s.27,0,.23.09c-.14.35,0,.57.46.65a4.84,4.84,0,0,0,1.93,0,2.26,2.26,0,0,0,1.56-.9c.26-.43.11-.71-.48-.83a13.27,13.27,0,0,0-2-.06c-1.07,0-1,.09-.49-.61.2-.29.44-.58.61-.86a.66.66,0,0,1,.68-.29Z"/><path class="cls-7" d="M194.14,149.2a.73.73,0,0,1,.15.66c0,.14-.29.25.1.47.12.06-.14.18-.27.12a1.07,1.07,0,0,0-.83-.06,4.27,4.27,0,0,1-2.58-.6c-.69-.45-.89-1-.48-1.34a2.42,2.42,0,0,1,2-.25A3.21,3.21,0,0,1,194.14,149.2Zm-.54.64c.34-.35,0-.84-.73-1.17a2.69,2.69,0,0,0-2-.13c-.47.25-.32.79.34,1.18a2.7,2.7,0,0,0,2.06.3l-.47-.28c-.13-.08-.07-.12,0-.17a.29.29,0,0,1,.28,0A3.56,3.56,0,0,0,193.6,149.84Z"/><path class="cls-10" d="M26.07,170.8c.24-.36.44-.65.62-1a2.45,2.45,0,0,1,1.54-.91,6.14,6.14,0,0,1,1.32-.15,5.87,5.87,0,0,0,1.41-.16A1.86,1.86,0,0,0,32.1,168c.23-.34.14-.59-.24-.72a4.12,4.12,0,0,0-2.27,0,2,2,0,0,0-1,.47.48.48,0,0,1-.46.17c-.22,0,0-.19.09-.28a2.84,2.84,0,0,1,1.34-.63,5,5,0,0,1,2.56,0c.53.17.71.48.42,1a2.49,2.49,0,0,1-1.61,1,5.35,5.35,0,0,1-.95.15l-1,0a2.18,2.18,0,0,0-2,1c-.23.37-.24.37.33.37h2.92a4.43,4.43,0,0,1,.52,0c.11,0,.12.06.08.13a.27.27,0,0,1-.24.14H26.07Z"/><path class="cls-10" d="M40.36,150.46a2.57,2.57,0,0,1,.31-.56c.23-.45.83-.71,1.73-.8.37,0,.74,0,1.11-.06a3.13,3.13,0,0,0,.79-.14c.7-.21,1-.63.56-.85a4,4,0,0,0-2.22,0,1.42,1.42,0,0,0-.56.31.36.36,0,0,1-.34.08c-.12,0,0-.09,0-.14a1.86,1.86,0,0,1,.92-.46,4.58,4.58,0,0,1,2.36,0c.4.12.5.34.32.64a1.67,1.67,0,0,1-1.06.62,5,5,0,0,1-1.07.16c-.34,0-.69,0-1,.06-.68.09-1.36.56-1.29.87,0,.08.18.06.3.06h2.87c.11,0,.09.06.07.11s-.08.09-.19.1H40.36Z"/><path class="cls-10" d="M31.34,149.09c.12-.17.22-.33.36-.5a3.63,3.63,0,0,1,2.48-.9c1,0,1.51.36,1.21.89a7.4,7.4,0,0,1-.69,1,3.49,3.49,0,0,1-2.51.93c-1,0-1.52-.38-1.21-.92.1-.16.24-.33.36-.49Zm.4,0a3.79,3.79,0,0,0-.35.5c-.23.42.17.73.93.73a3,3,0,0,0,2-.73,4.49,4.49,0,0,0,.67-.95c.22-.42-.18-.71-.94-.71a2.83,2.83,0,0,0-2,.71A4.43,4.43,0,0,0,31.74,149.06Z"/><path class="cls-10" d="M199.8,150.66c.12-.07.21-.15.52,0a1.59,1.59,0,0,0,1.13.12c.34-.11.3-.3.07-.53a.27.27,0,0,0-.27,0,2.35,2.35,0,0,1-2.12-.43c-.39-.32-.49-.61-.22-.85a1.41,1.41,0,0,1,1.2-.11c.24.05.43.12.57,0a.34.34,0,0,1,.41.12c.33.46.7.93,1,1.39s0,.57-.53.63A2.73,2.73,0,0,1,199.8,150.66Zm1.27-1.07a1.72,1.72,0,0,0-1.26-.55c-.48,0-.69.24-.47.55a1.73,1.73,0,0,0,1.31.57C201.13,150.15,201.3,149.91,201.07,149.59Z"/><path class="cls-10" d="M40,169.91H37.15c-.27,0-.69.11-.74-.12s.35-.4.64-.55l3.85-2.06.34-.18a1.17,1.17,0,0,1,.86-.09c.22.05,0,.22-.05.33-.36.67-.74,1.34-1.12,2-.12.21-.22.4.26.35.16,0,.29,0,.22.15a.38.38,0,0,1-.39.15.53.53,0,0,0-.65.36l-.22.39a.35.35,0,0,1-.33.14c-.15,0-.17-.06-.13-.15A3.12,3.12,0,0,0,40,169.91Zm1.59-2.74a37.08,37.08,0,0,0-4.45,2.44c.9,0,1.8,0,2.69,0,.27,0,.44-.05.54-.25Z"/><path class="cls-10" d="M47,168.23c-.18.36-.34.71-.55,1.07s-.1.34.29.31c.16,0,.3,0,.24.15a.37.37,0,0,1-.38.15.51.51,0,0,0-.64.35c-.06.13-.13.26-.21.4a.31.31,0,0,1-.31.14q-.23,0-.15-.15a2.64,2.64,0,0,1,.23-.44c.16-.25,0-.31-.33-.3H42.46c-.2,0-.5.07-.52-.12s.16-.3.4-.44l4.17-2.27a1.19,1.19,0,0,1,.65-.2c.43,0,.48,0,.34.31S47.15,167.88,47,168.23Zm-4.45,1.38c1.1,0,2,0,3,0a.41.41,0,0,0,.42-.21L47,167.26l-.13,0Z"/><path class="cls-10" d="M47.92,149.86H45.46c-.17,0-.43.06-.46-.08s.16-.24.39-.35l3.24-1.53a1.23,1.23,0,0,1,.49-.15c.39,0,.48,0,.36.23l-.82,1.4c-.09.15-.2.3.22.27.11,0,.2,0,.17.09a.25.25,0,0,1-.25.12c-.46,0-.52.15-.61.32l-.1.18c0,.07-.12.11-.26.11s-.16,0-.13-.11S47.93,150,47.92,149.86ZM49.09,148a29.49,29.49,0,0,0-3.49,1.66h2.22a.42.42,0,0,0,.38-.14Z"/><path class="cls-7" d="M184.66,150.4a2.71,2.71,0,0,1-1.6-.43c-.13-.08-.2-.16-.05-.21a.44.44,0,0,1,.41.05,1.76,1.76,0,0,0,1.1.31c.29,0,.49-.08.49-.25s-.21-.31-.59-.41c-.13,0-.27-.06-.4-.09l-.53-.1c-.65-.14-1.05-.35-1.16-.61s.13-.45.6-.52a2.7,2.7,0,0,1,1.55.29c.09,0,.17.12.09.15a.39.39,0,0,1-.32,0c-.1,0-.19-.09-.29-.13a1.55,1.55,0,0,0-.81-.08c-.19,0-.31.11-.26.25s.22.22.46.28l1.06.22a1.81,1.81,0,0,1,1,.49C185.79,150.1,185.45,150.4,184.66,150.4Z"/><path class="cls-10" d="M47.29,170.76l4.78-3.48c-.06-.16-.27-.11-.43-.11H49.08l-.5,0c-.11,0-.12-.07-.08-.14a.28.28,0,0,1,.24-.12h3.87c.31,0,.33.11.16.28a2.11,2.11,0,0,1-.22.17l-4.42,3.23A.85.85,0,0,1,47.29,170.76Z"/><path class="cls-10" d="M191.05,146c-.34-.5.15-.82,1.08-.72a2.3,2.3,0,0,1,1.05.37c.43.3.39.37-.2.37h-1.1c-.35,0-.37.08-.08.25a1.7,1.7,0,0,0,1.28.17c.08,0,.11-.1.19-.13a.43.43,0,0,1,.36,0c.14.06.06.1,0,.14a1.65,1.65,0,0,1-1.34.19A2,2,0,0,1,191.05,146Zm.43-.17h1.24c.22,0,.16-.08,0-.16a1.63,1.63,0,0,0-.91-.19C191.54,145.55,191.35,145.64,191.48,145.87Z"/><path class="cls-7" d="M197.2,145.83a1.26,1.26,0,0,0-1.09-.27c-.09,0-.14.08-.24.11a.63.63,0,0,1-.42-.09c-.15-.07,0-.12,0-.16a2.18,2.18,0,0,1,1.35-.07,1.44,1.44,0,0,1,1,.55l.49.67c.09.13,0,.22-.21.16a1.09,1.09,0,0,0-.61,0,1.82,1.82,0,0,1-.92,0,1.29,1.29,0,0,1-.78-.44c-.12-.21,0-.34.28-.41a2.6,2.6,0,0,1,.76,0A1.12,1.12,0,0,0,197.2,145.83Zm-.19.71c.35,0,.61-.18.5-.34a1.32,1.32,0,0,0-.88-.14h-.06c-.26,0-.37.15-.26.27A1.12,1.12,0,0,0,197,146.54Z"/><path class="cls-7" d="M177.8,145.72c-.15-.27-.29-.55-.45-.82s0-.22.26-.22h1.52c.2,0,.32,0,.38.15s-.08.12-.23.12h-1c-.25,0-.36.05-.27.19a.83.83,0,0,1,.07.13c.17.33.17.33.78.33h.67c.16,0,.29,0,.36.13s0,.13-.2.13h-.92c-.26,0-.35,0-.26.2s.2.35.3.53,0,.16-.16.15a.36.36,0,0,1-.34-.14l-.47-.88Z"/><path class="cls-10" d="M189.34,149.45a1.33,1.33,0,0,0-1.32-.35c-.08,0-.12.08-.2.09a.67.67,0,0,1-.37-.08c-.13-.07,0-.11,0-.14a2.07,2.07,0,0,1,1.38-.08,1.29,1.29,0,0,1,.93.58c.14.24.31.47.44.71s-.06.22-.28.12-.28-.06-.39,0a1.6,1.6,0,0,1-1,0,1.19,1.19,0,0,1-.8-.45c-.13-.22,0-.35.28-.43A3.62,3.62,0,0,1,189.34,149.45Zm.21.36c0-.07-.08-.11-.17-.14-.37-.14-1-.1-1.16.07s0,.25.29.34a1.13,1.13,0,0,0,.74,0C189.47,150.06,189.57,150,189.55,149.81Z"/><path class="cls-10" d="M24.46,170.53h.75c.13,0,.21,0,.17.13s-.2.14-.33.14H23c-.11,0-.16,0-.1-.12a.37.37,0,0,1,.25-.15h.16c.78-.06.78-.06,1.12-.56L26,167.54c.24-.36.24-.36-.34-.39l-.28,0c-.08,0-.07,0-.05-.1a.27.27,0,0,1,.23-.14c.39,0,.79,0,1.15,0s0,.18,0,.28c-.45.69-.93,1.4-1.4,2.11C25,169.67,24.76,170.07,24.46,170.53Z"/><path class="cls-7" d="M182.86,146.05l.32.54c.09.15-.1.2-.28.14a.68.68,0,0,0-.53,0,1.6,1.6,0,0,1-1.73-.51c-.15-.23-.27-.47-.4-.7s-.12-.18.12-.19.31.08.36.18.24.42.37.63a.88.88,0,0,0,.8.4c.39,0,.6-.13.5-.38a6.47,6.47,0,0,0-.37-.67c-.06-.1-.06-.17.18-.16a.35.35,0,0,1,.32.15C182.64,145.67,182.75,145.86,182.86,146.05Z"/><path class="cls-10" d="M35.53,150.23c.5-.72,1-1.42,1.46-2.11.1-.14.07-.21-.22-.2a2.09,2.09,0,0,1-.25,0c-.12,0-.17,0-.11-.1a.34.34,0,0,1,.23-.08h.06c1-.06,1-.06.61.46L36.09,150c-.18.27-.18.27.25.3h.19c.12,0,.17,0,.11.12s-.15.07-.23.07H34.75c-.08,0-.18,0-.13-.07s.12-.11.26-.12A3.16,3.16,0,0,0,35.53,150.23Z"/><path class="cls-7" d="M196.05,149.58c-.12-.18-.25-.36-.36-.54s0-.24.26-.16a.74.74,0,0,0,.54,0,1.84,1.84,0,0,1,1.78.47,9.79,9.79,0,0,1,.62.86c.07.1.06.16-.14.16a.4.4,0,0,1-.37-.16c-.19-.26-.36-.52-.57-.78a.94.94,0,0,0-.76-.34c-.37,0-.56.06-.57.25a.49.49,0,0,0,.12.28l.37.54c.06.09.17.2-.08.21a.42.42,0,0,1-.44-.21Z"/><path class="cls-10" d="M41.62,147.58l-.22.14-4.14,2.85-.15.1a.48.48,0,0,1-.41.11c-.14-.05,0-.13.12-.19l4.3-2.94a.5.5,0,0,1,.31-.15C41.53,147.49,41.67,147.47,41.62,147.58Z"/><path class="cls-7" d="M195.5,146.77a1.35,1.35,0,0,1-1-.4,6,6,0,0,1-.42-.61.42.42,0,0,0-.38-.18.34.34,0,0,1-.3-.13c-.06-.08,0-.12.14-.12.33,0,.12-.15.06-.25s-.1-.17.14-.17a.35.35,0,0,1,.36.18c.09.14.19.27.55.24a.36.36,0,0,1,.31.11c.06.08.05.14-.1.14-.46,0-.33.13-.21.3s.18.24.26.37a.66.66,0,0,0,.54.26c.22,0,.37.08.39.18S195.62,146.76,195.5,146.77Z"/><path class="cls-10" d="M187.41,150.37a1.25,1.25,0,0,1-1-.4c-.14-.19-.23-.38-.35-.57s-.11-.31-.56-.32c-.19,0-.27-.17-.12-.18.38,0,.3-.16.19-.32s-.12-.17.1-.17.29.06.33.15.23.35.68.32a.24.24,0,0,1,.23.13c0,.06,0,.08-.12.08-.52,0-.4.14-.27.32s.17.29.26.43a.55.55,0,0,0,.54.27c.2,0,.33.07.37.16S187.5,150.35,187.41,150.37Z"/><path class="cls-7" d="M183.24,145.7l-.49-.83c-.05-.09-.1-.18.14-.18s.31.07.36.17l1,1.7c.06.1.09.18-.15.18s-.31-.07-.36-.17C183.59,146.28,183.42,146,183.24,145.7Z"/><path class="cls-10" d="M184.31,145.69l-.5-.82c-.06-.09-.08-.16.11-.17a.32.32,0,0,1,.32.15l1.06,1.74c.06.09,0,.14-.15.14s-.26-.08-.31-.16Z"/><path class="cls-10" d="M198.68,145.72l.64.87c.05.08.07.14-.1.14s-.29,0-.36-.14l-1.26-1.73c-.07-.09-.07-.15.12-.16a.33.33,0,0,1,.32.16Z"/><path class="cls-7" d="M195.42,149.58l.41.6c.08.12.07.19-.17.18a.38.38,0,0,1-.35-.17c-.26-.4-.53-.79-.79-1.18-.07-.1,0-.15.15-.15a.38.38,0,0,1,.36.15Z"/><path class="cls-10" d="M34.43,169.18H33.26c-.17,0-.28,0-.19-.16a.39.39,0,0,1,.33-.13h2.5c.13,0,.23,0,.17.14a.43.43,0,0,1-.39.16H34.43Z"/><path class="cls-7" d="M194.68,148.35c0,.12,0,.2-.26.18a.52.52,0,0,1-.46-.21c-.05-.1,0-.16.23-.16A.65.65,0,0,1,194.68,148.35Z"/><path class="cls-6" d="M55.38,130.7h-.75c-.23,0-.37,0-.27-.16.29-.35-.06-.51-.53-.67-.89-.28-1-.74-.75-1.28a.66.66,0,0,1,.43-.28,1.6,1.6,0,0,0,1-.66c.22-.35.45-.7.69-1s.2-.47-.14-.64c-.15-.07-.14-.17,0-.28a3.76,3.76,0,0,1,2.19-1.13l.49-.12a1.4,1.4,0,0,0,.84-.43c.12-.19.16-.2.58-.21H60.3c.36,0,.42,0,.3.2s0,.34.3.44l.42.14c.72.28.93.66.66,1.14a.59.59,0,0,1-.39.26,1.42,1.42,0,0,0-.87.59c-.22.39-.46.79-.7,1.19a.28.28,0,0,0,.12.46c.25.13.26.31.07.5a4.3,4.3,0,0,1-2.35,1.18c-.64.13-1.14.31-1.28.63-.06.13-.26.18-.51.17Z"/><path class="cls-6" d="M50.35,130.71H48c-1.63,0-2.2-.45-1.56-1.21a6.78,6.78,0,0,0,.46-.68c.2-.29.52-.39,1.12-.36a7.31,7.31,0,0,0,.82,0c.32,0,.59-.11.63-.2s-.1-.18-.4-.18h-.94c-.55,0-.67-.05-.49-.29.35-.49.72-1,1.08-1.46.13-.16.24-.2.61-.2q2.23,0,4.47,0c.62,0,.76.11.61.39a8.31,8.31,0,0,1-.77,1.16c-.23.28-.51.38-1.13.39H51.1c-.23,0-.48.11-.51.19s.06.16.26.17h.72c.57,0,.64,0,.54.29a.91.91,0,0,0,.45,1.16,2.68,2.68,0,0,0,.76.34c.15,0,.25.09.21.2s-.19.22-.57.22H50.35Z"/><path class="cls-6" d="M64.45,123.81c.79,0,1.58,0,2.37,0,1.18,0,1.78.33,1.55.85-.14.31-.31.63-.48.94s-.16.2-.59.2h-.91c-.35,0-.6.09-.64.19s.12.16.43.17h.66c.59,0,.7.08.56.35-.22.45-.46.9-.7,1.35v0c-.11.17-.2.2-.58.21h-4.3a4.26,4.26,0,0,1-.51,0c-.37,0-.52-.12-.43-.3a9,9,0,0,1,.77-1.32c.13-.17.37-.25.78-.29h1.63a.75.75,0,0,0,.56-.17c.06-.08-.08-.16-.34-.18h-.81c-.63,0-.68,0-.57-.32.19-.49-.14-.86-.8-1.16l-.42-.14-.2-.07c-.13-.07-.08-.15,0-.24a.71.71,0,0,1,.41-.08h2.53Z"/><path class="cls-6" d="M51.57,125.8H49.65c-.51,0-.55,0-.39-.24a9.14,9.14,0,0,1,.75-1,3.6,3.6,0,0,1,2.42-.77c1.67,0,3.34,0,5,0,.15,0,.35,0,.35,0s-.05.19-.28.27l-.4.09a5.23,5.23,0,0,0-2.81,1.35c-.19.21-.24.23-.75.23Z"/><path class="cls-6" d="M60.52,130.7c-.87,0-1.74,0-2.61,0-.22,0-.51,0-.48-.12s.18-.22.52-.3a8.58,8.58,0,0,0,2.06-.72,2.69,2.69,0,0,0,1-.8c.21-.25.24-.27.78-.27h4c.52,0,.55,0,.42.26s-.33.63-.51.95a3.07,3.07,0,0,1-2.65,1H60.52Z"/><path class="cls-5" d="M94.79,143.57a3.81,3.81,0,0,1,1.2.13c.67.21.64.62,0,.87a4.83,4.83,0,0,1-2.72,0c-.58-.25-.46-.64.26-.84A4.43,4.43,0,0,1,94.79,143.57Z"/><path class="cls-5" d="M94.81,143a2.72,2.72,0,0,1-1-.17c-.54-.22-.46-.57.16-.78a4.17,4.17,0,0,1,2.35,0c.47.19.43.54-.1.74A3.45,3.45,0,0,1,94.81,143Z"/><path class="cls-5" d="M52.85,143.57a3.32,3.32,0,0,1,1.07.12c.64.21.45.67-.43.9a4.43,4.43,0,0,1-2.56,0c-.62-.23-.31-.67.58-.89A5.24,5.24,0,0,1,52.85,143.57Z"/><path class="cls-5" d="M53.12,143a2.65,2.65,0,0,1-1-.16c-.49-.22-.27-.58.45-.8a4.18,4.18,0,0,1,2.31,0c.44.2.25.57-.44.78A4,4,0,0,1,53.12,143Z"/><path class="cls-5" d="M109.94,143.57a4,4,0,0,1,1.22.13c.7.21.71.65,0,.89a5,5,0,0,1-2.62,0c-.67-.24-.6-.67.15-.88A4.47,4.47,0,0,1,109.94,143.57Z"/><path class="cls-5" d="M109.88,143a2.93,2.93,0,0,1-1.13-.2c-.5-.21-.47-.53.07-.74a4.12,4.12,0,0,1,2.41,0c.5.21.49.54,0,.75A3.53,3.53,0,0,1,109.88,143Z"/><path class="cls-5" d="M131.35,144.74a3.85,3.85,0,0,1-1.13-.13c-.43-.11-.69-.28-.73-.54s.15-.42.51-.52a4.21,4.21,0,0,1,2.31,0c.42.11.66.31.68.56s-.2.42-.6.53A3.49,3.49,0,0,1,131.35,144.74Z"/><path class="cls-5" d="M66.71,143.24a3.17,3.17,0,0,1-1.17-.16c-.65-.26-.37-.8.54-1a4.31,4.31,0,0,1,2.23,0c.33.1.47.27.38.51a1.22,1.22,0,0,1-.85.54A5,5,0,0,1,66.71,143.24Z"/><path class="cls-5" d="M87.08,143.33a1.71,1.71,0,0,1-.23.57,2.57,2.57,0,0,1-2.13.83c-.94,0-1.63-.36-1.61-.86a2.47,2.47,0,0,1,.34-1.11,2.54,2.54,0,0,1,2.08-.82c.88,0,1.57.33,1.63.79A1.42,1.42,0,0,1,87.08,143.33Z"/><path class="cls-5" d="M103.43,142.1c-.06.53-.13,1.05-.19,1.58,0,.09,0,.15-.23.15h-2.34l2.64-1.74Z"/><path class="cls-5" d="M153.94,124.8l-.58-.29a3.23,3.23,0,0,0-.55.18l.55.32a2.86,2.86,0,0,1-1.93-.34c-.44-.32-.33-.7.24-.87a3.24,3.24,0,0,1,1.94.14C154.17,124.17,154.32,124.56,153.94,124.8Z"/><path class="cls-5" d="M173.24,125H173c-.44,0-.44,0-.56-.2-.21-.37-.32-.3.51-.31a4.43,4.43,0,0,1,.51,0c.29,0,.48.14.53.26s-.06.18-.31.21h-.44Z"/><path class="cls-5" d="M172.37,123.73a3.8,3.8,0,0,1,.47,0,.72.72,0,0,1,.49.21c.06.11,0,.18-.25.21a3.61,3.61,0,0,1-.87,0c-.39-.06-.25-.23-.38-.34s0-.11.16-.1Z"/><path class="cls-5" d="M163.12,124.32a1.27,1.27,0,0,1,1,.36c.13.22-.15.4-.61.4a1.22,1.22,0,0,1-1-.38C162.42,124.48,162.66,124.33,163.12,124.32Z"/><path class="cls-5" d="M176.66,124.76h.05c.19,0,.43,0,.55.1s0,.17-.19.22a1.28,1.28,0,0,1-.7,0c-.15,0-.26-.1-.24-.18S176.31,124.76,176.66,124.76Z"/><path class="cls-5" d="M170.06,124.71c.12.21-.12.37-.58.37a1.3,1.3,0,0,1-1-.38c-.13-.22.13-.38.61-.38A1.16,1.16,0,0,1,170.06,124.71Z"/><path class="cls-5" d="M193.6,149.84a3.56,3.56,0,0,1-.52-.24.29.29,0,0,0-.28,0c-.09.05-.15.09,0,.17l.47.28a2.7,2.7,0,0,1-2.06-.3c-.66-.39-.81-.93-.34-1.18a2.69,2.69,0,0,1,2,.13C193.63,149,193.94,149.49,193.6,149.84Z"/><path class="cls-5" d="M31.74,149.06a4.43,4.43,0,0,1,.34-.45,2.83,2.83,0,0,1,2-.71c.76,0,1.16.29.94.71a4.49,4.49,0,0,1-.67.95,3,3,0,0,1-2,.73c-.76,0-1.16-.31-.93-.73A3.79,3.79,0,0,1,31.74,149.06Z"/><path class="cls-5" d="M201.07,149.59c.23.32.06.56-.42.57a1.73,1.73,0,0,1-1.31-.57c-.22-.31,0-.55.47-.55A1.72,1.72,0,0,1,201.07,149.59Z"/><path class="cls-5" d="M41.62,167.17l-1.22,2.19c-.1.2-.27.25-.54.25-.89,0-1.79,0-2.69,0A37.08,37.08,0,0,1,41.62,167.17Z"/><path class="cls-5" d="M42.51,169.61l4.36-2.39.13,0-1.11,2.14a.41.41,0,0,1-.42.21C44.54,169.6,43.61,169.61,42.51,169.61Z"/><path class="cls-5" d="M49.09,148l-.89,1.52a.42.42,0,0,1-.38.14H45.6A29.49,29.49,0,0,1,49.09,148Z"/><path class="cls-5" d="M191.48,145.87c-.13-.23.06-.32.36-.35a1.63,1.63,0,0,1,.91.19c.13.08.19.16,0,.16Z"/><path class="cls-5" d="M197,146.54a1.12,1.12,0,0,1-.7-.21c-.11-.12,0-.23.26-.27h.06a1.32,1.32,0,0,1,.88.14C197.62,146.36,197.36,146.54,197,146.54Z"/><path class="cls-5" d="M189.55,149.81c0,.14-.08.25-.3.31a1.13,1.13,0,0,1-.74,0c-.27-.09-.38-.22-.29-.34s.79-.21,1.16-.07C189.47,149.7,189.53,149.74,189.55,149.81Z"/><path class="cls-11" d="M117.1,111.37l-.33,4.92h-5.49c.36-3.36-.56-5.21-4.36-5.9-4.18-.77-5.71-4.81-4.93-10.52,2.92.07,6.44-2.14,7.51,3.34.18.9,4.64,1.36,7.07,1.21.88,0,2.12-2.4,2.31-3.83.36-2.56-1.41-3.79-3.85-4-.93-.1-1.85-.22-2.78-.3-9.52-.93-11.81-4.32-10.43-15.14.64-5,4.76-6.25,8.79-6.83,1.24-2.06-1-5.76,3.57-5.59,4.27.16,2.07,3.47,3,5.27,7.57,3,9.1,5.18,8.14,11.93h-6.43c-.12-3.79-2-5.58-6-5.19-2.75.27-4,1.35-4.12,4.2s1.17,4.19,3.89,4.43c1.05.1,2.12.16,3.17.3,8.81,1.19,11.73,5.13,10.32,13.87C125.35,108.26,123.27,110.15,117.1,111.37Z"/><path class="cls-11" d="M165.29,104.69l-.21,3.06h-3.41c.22-2.1-.35-3.24-2.71-3.68-2.6-.47-3.55-3-3.06-6.53,1.81,0,4-1.33,4.67,2.07.11.56,2.88.85,4.39.76.55,0,1.31-1.5,1.44-2.38.22-1.6-.88-2.36-2.4-2.52l-1.72-.19c-5.92-.57-7.34-2.68-6.49-9.41.4-3.08,3-3.88,5.47-4.24.77-1.28-.62-3.58,2.21-3.48,2.66.1,1.29,2.16,1.87,3.28,4.7,1.87,5.66,3.22,5.06,7.41h-4c-.07-2.35-1.26-3.47-3.75-3.22-1.7.17-2.51.83-2.56,2.61A2.33,2.33,0,0,0,162.51,91c.66.06,1.32.1,2,.19,5.47.74,7.29,3.18,6.41,8.62C170.42,102.75,169.12,103.93,165.29,104.69Z"/><path class="cls-11" d="M147.13,70.5,147,73.05h-2.84c.18-1.75-.29-2.7-2.26-3.06-2.17-.4-3-2.49-2.55-5.45,1.51,0,3.33-1.11,3.89,1.73.09.46,2.4.7,3.66.63.45,0,1.09-1.25,1.2-2,.18-1.33-.73-2-2-2.1l-1.44-.15c-4.93-.48-6.11-2.24-5.4-7.84.33-2.57,2.46-3.24,4.55-3.54.65-1.07-.51-3,1.85-2.9,2.21.09,1.07,1.8,1.55,2.73,3.93,1.56,4.72,2.69,4.22,6.18h-3.33c-.06-2-1.05-2.89-3.12-2.68-1.43.14-2.1.69-2.14,2.17a2,2,0,0,0,2,2.3c.54.05,1.1.08,1.64.15,4.56.62,6.07,2.65,5.35,7.18C151.41,68.89,150.33,69.86,147.13,70.5Z"/><path class="cls-12" d="M95.09,34.93H86.53c.44-1.52.77-2.9,1.28-4.21A1.68,1.68,0,0,1,89.09,30c1.89-.08,3.77,0,5.76,0V24.33H86.52c.48-1.65.85-3.1,1.36-4.49.1-.27.76-.46,1.17-.47,1.74-.05,3.48-.06,5.22,0,.89,0,1.26-.22,1.46-1.16a27.19,27.19,0,0,1,5.39-11.64c4.68-5.8,12.73-8,20.33-5.58,6.1,2,11.18,8.68,11.61,15.36,0,.16,0,.31,0,.72-1.66,0-3.32,0-5,0-.26,0-.59-.35-.74-.63a4.4,4.4,0,0,1-.3-1c-1.3-4.41-3.68-7.84-8.47-8.86-5.08-1.08-9.5.14-13,4.17a17.7,17.7,0,0,0-3.87,8.68H121.4a42.75,42.75,0,0,1-1.29,4.23c-.16.38-1,.67-1.49.67-5.27.05-10.54,0-15.81,0H101V30h20.43l-1.44,5H101.64c.12,9.17,8.78,15.85,17.07,13.28a10.54,10.54,0,0,0,6.57-5.77,37.32,37.32,0,0,0,2.25-6.53c.3-1.16.71-1.57,1.88-1.48,1.35.09,2.71,0,4.06,0-.13,8.46-5.65,16.89-12.59,19.39-9.37,3.37-18.89-.83-23-10.35C96.7,40.8,96,37.9,95.09,34.93Z"/><path class="cls-12" d="M53.78,102.84H51.24c.13-.45.23-.86.38-1.25a.48.48,0,0,1,.38-.22c.56,0,1.12,0,1.71,0V99.7H51.24c.14-.49.25-.92.4-1.33,0-.08.23-.14.35-.14.51,0,1,0,1.55,0,.26,0,.37-.06.43-.34a8.08,8.08,0,0,1,1.59-3.45,5.53,5.53,0,0,1,6-1.66A5.37,5.37,0,0,1,65,97.33a.84.84,0,0,1,0,.21c-.49,0-1,0-1.47,0-.08,0-.17-.1-.22-.18a1.5,1.5,0,0,1-.09-.32,3.31,3.31,0,0,0-2.51-2.62,3.72,3.72,0,0,0-3.84,1.23,5.24,5.24,0,0,0-1.15,2.58h5.84c-.14.46-.23.87-.39,1.25,0,.11-.28.2-.44.2H55.52v1.68h6.06l-.43,1.47H55.72a4,4,0,0,0,5.06,3.94,3.16,3.16,0,0,0,1.95-1.71,11.09,11.09,0,0,0,.66-1.94c.09-.34.22-.46.56-.44s.8,0,1.21,0a6.39,6.39,0,0,1-3.74,5.75,5.3,5.3,0,0,1-6.82-3.07C54.26,104.58,54.06,103.72,53.78,102.84Z"/><path class="cls-12" d="M72.75,74.12H68.18c.23-.81.4-1.55.68-2.26a.91.91,0,0,1,.68-.39c1,0,2,0,3.08,0v-3H68.17c.26-.88.45-1.66.73-2.4,0-.15.41-.25.62-.25.93,0,1.87,0,2.79,0,.48,0,.68-.12.79-.62A14.32,14.32,0,0,1,76,59a9.93,9.93,0,0,1,10.87-3,9.7,9.7,0,0,1,6.21,8.22,3.53,3.53,0,0,1,0,.38c-.88,0-1.77,0-2.66,0-.13,0-.31-.2-.39-.34a2.51,2.51,0,0,1-.16-.57c-.69-2.35-2-4.19-4.53-4.73a6.71,6.71,0,0,0-6.94,2.23,9.45,9.45,0,0,0-2.06,4.64H86.83a23.41,23.41,0,0,1-.7,2.26c-.08.2-.52.36-.79.36-2.82,0-5.64,0-8.46,0h-1v3H86.83l-.77,2.66h-9.8c.06,4.9,4.69,8.47,9.13,7.1a5.62,5.62,0,0,0,3.51-3.09,18.44,18.44,0,0,0,1.2-3.49c.17-.62.39-.84,1-.79s1.45,0,2.17,0c-.07,4.52-3,9-6.73,10.37-5,1.81-10.11-.44-12.31-5.53A47.07,47.07,0,0,1,72.75,74.12Z"/></g></g></svg>