<svg xmlns="http://www.w3.org/2000/svg" width="86.796" height="34.964" viewBox="0 0 86.796 34.964">
  <g id="Group_61" data-name="Group 61" transform="translate(-943.204 -6390.018)">
    <text id="QRB" transform="translate(1008 6415)" fill="#2b2b2b" font-size="21" font-family="ProductSans-Bold, Product Sans" font-weight="700" opacity="0.56"><tspan x="-21.745" y="0">QRB</tspan></text>
    <g id="Group_76" data-name="Group 76" transform="translate(641.032 6071.05)">
      <path id="Path_41" data-name="Path 41" d="M360.075,480.707h0a5.712,5.712,0,0,0,1.087,2.073l.018.023q.027.035.055.068c.018.021.036.042.055.062l.021.021a1.3,1.3,0,0,0,.4.287l.036.017.029.01a1.425,1.425,0,0,0,.267.074l.05.008.062.008.049.005c.067.006.137.009.21.009l2.915-.01h.476q4.18-.013,8.36-.008l.8,0,1,0,1.288.008.632,0q1.018.009,2.036.021a2.3,2.3,0,0,0,2.329-1.35c.173-.324.328-.662.479-1a1.48,1.48,0,0,0,.065-.342H360.075Z" transform="translate(-52.19 -145.782)" fill="#223492"/>
      <path id="Path_42" data-name="Path 42" d="M386.841,418.065h0c-.155-.086-.205-.115-.256-.14l-1.171-.583-2.832-1.412-2.329-1.162-.2-.1-1.673-.836-1.19-.6-.318-.157-.282-.141-.174-.087a.944.944,0,0,0-.921.029q-4.206,2.111-8.42,4.2c-.616.31-1.235.619-1.969.986h21.731Z" transform="translate(-56.728 -84.526)" fill="#223492"/>
      <path id="Path_43" data-name="Path 43" d="M305.412,336.038a13.821,13.821,0,0,1,23.175-10.184l2.642-1.958a17.063,17.063,0,0,0-27.1,20.072l2.642-1.955A13.734,13.734,0,0,1,305.412,336.038Z" fill="#34bdf6"/>
      <path id="Path_44" data-name="Path 44" d="M370.672,413.928l-3.375-3.375a17.04,17.04,0,0,0-1.012-17.994l-2.6,1.929a13.8,13.8,0,0,1-1.739,17.8,12.137,12.137,0,0,1-.911.814v-7.636h-3.992v9.9a13.51,13.51,0,0,1-2.732.691v-10.6h-3.938v10.606a13.848,13.848,0,0,1-2.736-.684v-9.911h-3.978v7.668a13.855,13.855,0,0,1-2.181-2.2l-2.6,1.926a17.133,17.133,0,0,0,6.08,4.9,17.051,17.051,0,0,0,14.7.014,16.57,16.57,0,0,0,1.782-.993l3.124,2.977a1.8,1.8,0,1,0,2.484-2.6l-2.765-2.635q.57-.56,1.086-1.171l2.937,2.937a1.67,1.67,0,1,0,2.362-2.362Z" transform="translate(-33.084 -66.331)" fill="#34bdf6"/>
    </g>
  </g>
</svg>
