<svg xmlns="http://www.w3.org/2000/svg" width="59.529" height="64.8" viewBox="0 0 59.529 64.8">
  <g id="Layer_2" data-name="Layer 2" transform="translate(0.003 0.037)">
    <g id="Layer_1" data-name="Layer 1" transform="translate(-0.003 -0.037)">
      <path id="Path_2" data-name="Path 2" d="M13.977,54.449a2.941,2.941,0,0,1-1.329-.512A29.773,29.773,0,0,1,26.462-.006a2.928,2.928,0,1,1,.628,5.819A23.919,23.919,0,0,0,16.022,49.149a2.928,2.928,0,0,1-2.042,5.3Z" transform="translate(0.003 0.037)"/>
      <path id="Path_3" data-name="Path 3" d="M95.829,60.629l-7.594-8.383A29.757,29.757,0,0,0,73.817,1.131,2.929,2.929,0,0,0,72.7,6.88a23.91,23.91,0,1,1-12.86,45.9,2.929,2.929,0,0,0-2.023,5.5,30,30,0,0,0,6.7,1.609,29.609,29.609,0,0,0,19.015-4.11l7.955,8.778a2.932,2.932,0,0,0,4.352-3.931Z" transform="translate(-38.332 -0.726)"/>
    </g>
  </g>
</svg>
