<svg width="122" height="19" viewBox="0 0 122 19" fill="none" xmlns="http://www.w3.org/2000/svg">
<path d="M4.088 6.82773V17.7717H0.776V0.731728H3.416L12.224 11.9637V0.755727H15.536V17.7717H12.776L4.088 6.82773ZM19.0807 17.7717V0.731728H30.5287V3.63573H22.3927V8.02773H29.1607V10.7157H22.3927V17.7717H19.0807ZM45.6059 3.63573H40.1579V17.7717H36.8699V3.63573H31.4219V0.731728H45.6059V3.63573Z" fill="#161E2E"/>
<path d="M61.6173 17.7717V6.58773L57.2493 14.9157H55.4013L51.0333 6.58773V17.7717H47.7213V0.731728H51.2733L56.3133 10.4277L61.4013 0.731728H64.9293V17.7717H61.6173ZM67.1703 14.0517C67.1703 13.2357 67.3943 12.5237 67.8423 11.9157C68.3063 11.2917 68.9463 10.8117 69.7623 10.4757C70.5783 10.1397 71.5143 9.97173 72.5703 9.97173C73.0983 9.97173 73.6343 10.0117 74.1783 10.0917C74.7223 10.1717 75.1943 10.2997 75.5943 10.4757V9.80373C75.5943 9.00373 75.3543 8.38773 74.8743 7.95573C74.4103 7.52373 73.7143 7.30773 72.7863 7.30773C72.0983 7.30773 71.4423 7.42773 70.8183 7.66773C70.1943 7.90773 69.5383 8.25973 68.8503 8.72373L67.8183 6.61173C68.6503 6.06773 69.4983 5.65973 70.3623 5.38773C71.2423 5.11573 72.1623 4.97973 73.1223 4.97973C74.9143 4.97973 76.3063 5.42773 77.2983 6.32373C78.3063 7.21973 78.8103 8.49973 78.8103 10.1637V14.1717C78.8103 14.5077 78.8663 14.7477 78.9783 14.8917C79.1063 15.0357 79.3063 15.1237 79.5783 15.1557V17.7717C79.2903 17.8197 79.0263 17.8597 78.7863 17.8917C78.5623 17.9237 78.3703 17.9397 78.2103 17.9397C77.5703 17.9397 77.0823 17.7957 76.7463 17.5077C76.4263 17.2197 76.2263 16.8677 76.1463 16.4517L76.0743 15.8037C75.5303 16.5077 74.8503 17.0517 74.0343 17.4357C73.2183 17.8197 72.3863 18.0117 71.5383 18.0117C70.7063 18.0117 69.9543 17.8437 69.2823 17.5077C68.6263 17.1557 68.1063 16.6837 67.7223 16.0917C67.3543 15.4837 67.1703 14.8037 67.1703 14.0517ZM74.9943 14.6997C75.1703 14.5077 75.3143 14.3157 75.4263 14.1237C75.5383 13.9317 75.5943 13.7557 75.5943 13.5957V12.3237C75.2103 12.1637 74.7943 12.0437 74.3463 11.9637C73.8983 11.8677 73.4743 11.8197 73.0743 11.8197C72.2423 11.8197 71.5543 12.0037 71.0103 12.3717C70.4823 12.7237 70.2183 13.1957 70.2183 13.7877C70.2183 14.1077 70.3063 14.4117 70.4823 14.6997C70.6583 14.9877 70.9143 15.2197 71.2503 15.3957C71.5863 15.5717 71.9863 15.6597 72.4503 15.6597C72.9303 15.6597 73.4023 15.5717 73.8663 15.3957C74.3303 15.2037 74.7063 14.9717 74.9943 14.6997ZM89.3293 17.8917C88.0813 17.8917 86.9453 17.6517 85.9213 17.1717C84.9133 16.6757 84.0413 16.0197 83.3053 15.2037C82.5853 14.3877 82.0253 13.4677 81.6253 12.4437C81.2253 11.4037 81.0253 10.3397 81.0253 9.25173C81.0253 8.11573 81.2333 7.03573 81.6493 6.01173C82.0813 4.97173 82.6653 4.05173 83.4013 3.25173C84.1533 2.43573 85.0333 1.79573 86.0413 1.33173C87.0653 0.851727 88.1853 0.611728 89.4013 0.611728C90.6333 0.611728 91.7533 0.859728 92.7613 1.35573C93.7853 1.85173 94.6573 2.51573 95.3773 3.34773C96.0973 4.17973 96.6573 5.10773 97.0573 6.13173C97.4573 7.15573 97.6573 8.21173 97.6573 9.29973C97.6573 10.4197 97.4493 11.4997 97.0333 12.5397C96.6173 13.5637 96.0333 14.4837 95.2812 15.2997C94.5453 16.0997 93.6653 16.7317 92.6413 17.1957C91.6333 17.6597 90.5293 17.8917 89.3293 17.8917ZM89.3533 14.9637C90.1533 14.9637 90.8653 14.8037 91.4893 14.4837C92.1133 14.1477 92.6333 13.7077 93.0493 13.1637C93.4653 12.6037 93.7773 11.9877 93.9853 11.3157C94.2093 10.6277 94.3213 9.93973 94.3213 9.25173C94.3213 8.51573 94.2013 7.80373 93.9613 7.11573C93.7373 6.42773 93.4093 5.81973 92.9773 5.29173C92.5613 4.76373 92.0413 4.33973 91.4173 4.01973C90.8093 3.69973 90.1213 3.53973 89.3533 3.53973C88.5373 3.53973 87.8173 3.70773 87.1933 4.04373C86.5853 4.36373 86.0733 4.80373 85.6573 5.36373C85.2413 5.90773 84.9213 6.51573 84.6973 7.18773C84.4893 7.85973 84.3853 8.54773 84.3853 9.25173C84.3853 9.98773 84.4973 10.6997 84.7213 11.3877C84.9453 12.0757 85.2653 12.6837 85.6813 13.2117C86.1133 13.7397 86.6333 14.1637 87.2413 14.4837C87.8653 14.8037 88.5693 14.9637 89.3533 14.9637ZM89.0173 11.4597H92.1373L97.7533 17.7717H94.6333L89.0173 11.4597ZM105.694 18.0117C104.686 18.0117 103.774 17.8437 102.958 17.5077C102.142 17.1557 101.446 16.6837 100.87 16.0917C100.294 15.4837 99.8464 14.7957 99.5264 14.0277C99.2224 13.2437 99.0704 12.4197 99.0704 11.5557C99.0704 10.3557 99.3344 9.25973 99.8624 8.26773C100.406 7.27573 101.174 6.48373 102.166 5.89173C103.174 5.28373 104.358 4.97973 105.718 4.97973C107.094 4.97973 108.27 5.28373 109.246 5.89173C110.222 6.48373 110.966 7.27573 111.478 8.26773C112.006 9.24373 112.27 10.2997 112.27 11.4357C112.27 11.6277 112.262 11.8277 112.246 12.0357C112.23 12.2277 112.214 12.3877 112.198 12.5157H102.478C102.542 13.1557 102.726 13.7157 103.03 14.1957C103.35 14.6757 103.75 15.0437 104.23 15.2997C104.726 15.5397 105.254 15.6597 105.814 15.6597C106.454 15.6597 107.054 15.5077 107.614 15.2037C108.19 14.8837 108.582 14.4677 108.79 13.9557L111.55 14.7237C111.246 15.3637 110.806 15.9317 110.23 16.4277C109.67 16.9237 109.006 17.3157 108.238 17.6037C107.47 17.8757 106.622 18.0117 105.694 18.0117ZM102.406 10.4757H108.982C108.918 9.83573 108.734 9.28373 108.43 8.81973C108.142 8.33973 107.758 7.97173 107.278 7.71573C106.798 7.44373 106.262 7.30773 105.67 7.30773C105.094 7.30773 104.566 7.44373 104.086 7.71573C103.622 7.97173 103.238 8.33973 102.934 8.81973C102.646 9.28373 102.47 9.83573 102.406 10.4757ZM121.718 7.97973C120.742 7.97973 119.87 8.17173 119.102 8.55573C118.334 8.92373 117.782 9.45973 117.446 10.1637V17.7717H114.23V5.19573H117.182V7.88373C117.63 7.01973 118.198 6.33973 118.886 5.84373C119.574 5.34773 120.302 5.07573 121.07 5.02773C121.246 5.02773 121.382 5.02773 121.478 5.02773C121.574 5.02773 121.654 5.03573 121.718 5.05173V7.97973Z" fill="#2BB9FB"/>
</svg>
