<svg width="73" height="19" viewBox="0 0 73 19" fill="none" xmlns="http://www.w3.org/2000/svg">
<path d="M9.048 17.8917C7.8 17.8917 6.664 17.6517 5.64 17.1717C4.632 16.6757 3.76 16.0197 3.024 15.2037C2.304 14.3877 1.744 13.4677 1.344 12.4437C0.944 11.4037 0.744 10.3397 0.744 9.25173C0.744 8.11573 0.952 7.03573 1.368 6.01173C1.8 4.97173 2.384 4.05173 3.12 3.25173C3.872 2.43573 4.752 1.79573 5.76 1.33173C6.784 0.851727 7.904 0.611728 9.12 0.611728C10.352 0.611728 11.472 0.859728 12.48 1.35573C13.504 1.85173 14.376 2.51573 15.096 3.34773C15.816 4.17973 16.376 5.10773 16.776 6.13173C17.176 7.15573 17.376 8.21173 17.376 9.29973C17.376 10.4197 17.168 11.4997 16.752 12.5397C16.336 13.5637 15.752 14.4837 15 15.2997C14.264 16.0997 13.384 16.7317 12.36 17.1957C11.352 17.6597 10.248 17.8917 9.048 17.8917ZM9.072 14.9637C9.872 14.9637 10.584 14.8037 11.208 14.4837C11.832 14.1477 12.352 13.7077 12.768 13.1637C13.184 12.6037 13.496 11.9877 13.704 11.3157C13.928 10.6277 14.04 9.93973 14.04 9.25173C14.04 8.51573 13.92 7.80373 13.68 7.11573C13.456 6.42773 13.128 5.81973 12.696 5.29173C12.28 4.76373 11.76 4.33973 11.136 4.01973C10.528 3.69973 9.84 3.53973 9.072 3.53973C8.256 3.53973 7.536 3.70773 6.912 4.04373C6.304 4.36373 5.792 4.80373 5.376 5.36373C4.96 5.90773 4.64 6.51573 4.416 7.18773C4.208 7.85973 4.104 8.54773 4.104 9.25173C4.104 9.98773 4.216 10.6997 4.44 11.3877C4.664 12.0757 4.984 12.6837 5.4 13.2117C5.832 13.7397 6.352 14.1637 6.96 14.4837C7.584 14.8037 8.288 14.9637 9.072 14.9637ZM8.736 11.4597H11.856L17.472 17.7717H14.352L8.736 11.4597ZM26.952 7.97973C25.976 7.97973 25.104 8.17173 24.336 8.55573C23.568 8.92373 23.016 9.45973 22.68 10.1637V17.7717H19.464V5.19573H22.416V7.88373C22.864 7.01973 23.432 6.33973 24.12 5.84373C24.808 5.34773 25.536 5.07573 26.304 5.02773C26.48 5.02773 26.616 5.02773 26.712 5.02773C26.808 5.02773 26.888 5.03573 26.952 5.05173V7.97973ZM34.4132 18.0117C33.4052 18.0117 32.4932 17.8437 31.6772 17.5077C30.8612 17.1557 30.1652 16.6837 29.5892 16.0917C29.0132 15.4837 28.5652 14.7957 28.2452 14.0277C27.9412 13.2437 27.7892 12.4197 27.7892 11.5557C27.7892 10.3557 28.0532 9.25973 28.5812 8.26773C29.1252 7.27573 29.8932 6.48373 30.8852 5.89173C31.8932 5.28373 33.0772 4.97973 34.4372 4.97973C35.8132 4.97973 36.9892 5.28373 37.9652 5.89173C38.9412 6.48373 39.6852 7.27573 40.1972 8.26773C40.7252 9.24373 40.9892 10.2997 40.9892 11.4357C40.9892 11.6277 40.9812 11.8277 40.9652 12.0357C40.9492 12.2277 40.9332 12.3877 40.9172 12.5157H31.1972C31.2612 13.1557 31.4452 13.7157 31.7492 14.1957C32.0692 14.6757 32.4692 15.0437 32.9492 15.2997C33.4452 15.5397 33.9732 15.6597 34.5332 15.6597C35.1732 15.6597 35.7732 15.5077 36.3332 15.2037C36.9092 14.8837 37.3012 14.4677 37.5092 13.9557L40.2692 14.7237C39.9652 15.3637 39.5252 15.9317 38.9492 16.4277C38.3892 16.9237 37.7252 17.3157 36.9572 17.6037C36.1892 17.8757 35.3412 18.0117 34.4132 18.0117ZM31.1252 10.4757H37.7012C37.6372 9.83573 37.4532 9.28373 37.1492 8.81973C36.8612 8.33973 36.4772 7.97173 35.9972 7.71573C35.5172 7.44373 34.9812 7.30773 34.3892 7.30773C33.8132 7.30773 33.2852 7.44373 32.8052 7.71573C32.3412 7.97173 31.9572 8.33973 31.6532 8.81973C31.3652 9.28373 31.1892 9.83573 31.1252 10.4757ZM42.1804 11.4837C42.1804 10.2677 42.4204 9.17173 42.9004 8.19573C43.3804 7.20373 44.0444 6.41973 44.8924 5.84373C45.7404 5.26773 46.7084 4.97973 47.7964 4.97973C48.7244 4.97973 49.5564 5.21173 50.2924 5.67573C51.0444 6.12373 51.6284 6.69973 52.0444 7.40373V0.251728H55.2604V14.1717C55.2604 14.5077 55.3164 14.7477 55.4284 14.8917C55.5404 15.0357 55.7324 15.1237 56.0044 15.1557V17.7717C55.4444 17.8837 54.9884 17.9397 54.6364 17.9397C54.0604 17.9397 53.5804 17.7957 53.1964 17.5077C52.8284 17.2197 52.6204 16.8437 52.5724 16.3797L52.5244 15.5877C52.0604 16.3717 51.4284 16.9717 50.6284 17.3877C49.8444 17.8037 49.0204 18.0117 48.1564 18.0117C47.2924 18.0117 46.4924 17.8437 45.7564 17.5077C45.0364 17.1717 44.4044 16.7077 43.8604 16.1157C43.3324 15.5237 42.9164 14.8357 42.6124 14.0517C42.3244 13.2517 42.1804 12.3957 42.1804 11.4837ZM52.0444 13.1637V10.1637C51.8844 9.69973 51.6284 9.28373 51.2764 8.91573C50.9244 8.54773 50.5324 8.25973 50.1004 8.05173C49.6684 7.82773 49.2364 7.71573 48.8044 7.71573C48.3084 7.71573 47.8604 7.81973 47.4604 8.02773C47.0604 8.23573 46.7084 8.51573 46.4044 8.86773C46.1164 9.21973 45.8924 9.62773 45.7324 10.0917C45.5884 10.5557 45.5164 11.0437 45.5164 11.5557C45.5164 12.0677 45.5964 12.5557 45.7564 13.0197C45.9324 13.4677 46.1804 13.8597 46.5004 14.1957C46.8204 14.5317 47.1884 14.7957 47.6044 14.9877C48.0364 15.1797 48.5004 15.2757 48.9964 15.2757C49.3004 15.2757 49.6044 15.2277 49.9084 15.1317C50.2284 15.0197 50.5244 14.8757 50.7964 14.6997C51.0844 14.5077 51.3324 14.2837 51.5404 14.0277C51.7644 13.7557 51.9324 13.4677 52.0444 13.1637ZM58.4171 17.7717V5.19573H61.6331V17.7717H58.4171ZM58.4171 3.44373V0.251728H61.6331V3.44373H58.4171ZM72.0703 17.1237C71.7983 17.2357 71.4703 17.3637 71.0863 17.5077C70.7023 17.6517 70.2863 17.7637 69.8383 17.8437C69.4063 17.9397 68.9663 17.9877 68.5183 17.9877C67.9263 17.9877 67.3823 17.8837 66.8863 17.6757C66.3903 17.4677 65.9903 17.1397 65.6863 16.6917C65.3983 16.2277 65.2543 15.6277 65.2543 14.8917V7.66773H63.5983V5.19573H65.2543V1.11573H68.4703V5.19573H71.1103V7.66773H68.4703V13.8117C68.4863 14.2437 68.6063 14.5557 68.8303 14.7477C69.0543 14.9397 69.3343 15.0357 69.6703 15.0357C70.0063 15.0357 70.3343 14.9797 70.6543 14.8677C70.9743 14.7557 71.2303 14.6597 71.4223 14.5797L72.0703 17.1237Z" fill="#161E2E"/>
</svg>
