<svg width="92" height="24" viewBox="0 0 92 24" fill="none" xmlns="http://www.w3.org/2000/svg">
<path d="M9.048 17.8917C7.8 17.8917 6.664 17.6517 5.64 17.1717C4.632 16.6757 3.76 16.0197 3.024 15.2037C2.304 14.3877 1.744 13.4677 1.344 12.4437C0.944 11.4037 0.744 10.3397 0.744 9.25173C0.744 8.11573 0.952 7.03573 1.368 6.01173C1.8 4.97173 2.384 4.05173 3.12 3.25173C3.872 2.43573 4.752 1.79573 5.76 1.33173C6.784 0.851727 7.904 0.611728 9.12 0.611728C10.352 0.611728 11.472 0.859728 12.48 1.35573C13.504 1.85173 14.376 2.51573 15.096 3.34773C15.816 4.17973 16.376 5.10773 16.776 6.13173C17.176 7.15573 17.376 8.21173 17.376 9.29973C17.376 10.4197 17.168 11.4997 16.752 12.5397C16.336 13.5637 15.752 14.4837 15 15.2997C14.264 16.0997 13.384 16.7317 12.36 17.1957C11.352 17.6597 10.248 17.8917 9.048 17.8917ZM9.072 14.9637C9.872 14.9637 10.584 14.8037 11.208 14.4837C11.832 14.1477 12.352 13.7077 12.768 13.1637C13.184 12.6037 13.496 11.9877 13.704 11.3157C13.928 10.6277 14.04 9.93973 14.04 9.25173C14.04 8.51573 13.92 7.80373 13.68 7.11573C13.456 6.42773 13.128 5.81973 12.696 5.29173C12.28 4.76373 11.76 4.33973 11.136 4.01973C10.528 3.69973 9.84 3.53973 9.072 3.53973C8.256 3.53973 7.536 3.70773 6.912 4.04373C6.304 4.36373 5.792 4.80373 5.376 5.36373C4.96 5.90773 4.64 6.51573 4.416 7.18773C4.208 7.85973 4.104 8.54773 4.104 9.25173C4.104 9.98773 4.216 10.6997 4.44 11.3877C4.664 12.0757 4.984 12.6837 5.4 13.2117C5.832 13.7397 6.352 14.1637 6.96 14.4837C7.584 14.8037 8.288 14.9637 9.072 14.9637ZM8.736 11.4597H11.856L17.472 17.7717H14.352L8.736 11.4597ZM26.952 7.97973C25.976 7.97973 25.104 8.17173 24.336 8.55573C23.568 8.92373 23.016 9.45973 22.68 10.1637V17.7717H19.464V5.19573H22.416V7.88373C22.864 7.01973 23.432 6.33973 24.12 5.84373C24.808 5.34773 25.536 5.07573 26.304 5.02773C26.48 5.02773 26.616 5.02773 26.712 5.02773C26.808 5.02773 26.888 5.03573 26.952 5.05173V7.97973ZM29.0093 20.2197C29.2973 20.2837 29.5613 20.3397 29.8013 20.3877C30.0573 20.4357 30.2733 20.4597 30.4492 20.4597C30.7533 20.4597 31.0013 20.3797 31.1933 20.2197C31.4013 20.0757 31.6013 19.8037 31.7933 19.4037C31.9853 19.0197 32.1853 18.4757 32.3933 17.7717L27.4253 5.19573H30.7613L34.1453 14.4837L37.1213 5.19573H40.1933L34.9133 20.2677C34.7213 20.8277 34.4253 21.3317 34.0253 21.7797C33.6413 22.2437 33.1533 22.6037 32.5613 22.8597C31.9853 23.1317 31.3373 23.2677 30.6173 23.2677C30.3613 23.2677 30.1053 23.2437 29.8493 23.1957C29.5933 23.1637 29.3133 23.0997 29.0093 23.0037V20.2197ZM49.4766 18.0117C48.5006 18.0117 47.6366 17.7957 46.8846 17.3637C46.1486 16.9157 45.5726 16.3157 45.1566 15.5637V22.8837H41.9406V5.19573H44.7486V7.35573C45.2286 6.61973 45.8366 6.04373 46.5726 5.62773C47.3086 5.19573 48.1486 4.97973 49.0926 4.97973C49.9406 4.97973 50.7166 5.14773 51.4206 5.48373C52.1406 5.81973 52.7646 6.29173 53.2926 6.89973C53.8206 7.49173 54.2286 8.17973 54.5166 8.96373C54.8206 9.73173 54.9726 10.5637 54.9726 11.4597C54.9726 12.6757 54.7326 13.7797 54.2526 14.7717C53.7886 15.7637 53.1406 16.5557 52.3086 17.1477C51.4926 17.7237 50.5486 18.0117 49.4766 18.0117ZM48.3966 15.2757C48.8926 15.2757 49.3406 15.1717 49.7406 14.9637C50.1406 14.7557 50.4846 14.4757 50.7726 14.1237C51.0766 13.7557 51.3006 13.3477 51.4446 12.8997C51.6046 12.4357 51.6846 11.9557 51.6846 11.4597C51.6846 10.9317 51.5966 10.4437 51.4206 9.99573C51.2606 9.54773 51.0206 9.15573 50.7006 8.81973C50.3806 8.46773 50.0046 8.19573 49.5726 8.00373C49.1566 7.81173 48.7006 7.71573 48.2046 7.71573C47.9006 7.71573 47.5886 7.77173 47.2686 7.88373C46.9646 7.97973 46.6686 8.12373 46.3806 8.31573C46.0926 8.50773 45.8366 8.73173 45.6126 8.98773C45.4046 9.24373 45.2526 9.52373 45.1566 9.82773V12.7797C45.3486 13.2437 45.6046 13.6677 45.9246 14.0517C46.2606 14.4357 46.6446 14.7397 47.0766 14.9637C47.5086 15.1717 47.9486 15.2757 48.3966 15.2757ZM64.5234 17.1237C64.2514 17.2357 63.9234 17.3637 63.5394 17.5077C63.1554 17.6517 62.7394 17.7637 62.2914 17.8437C61.8594 17.9397 61.4194 17.9877 60.9714 17.9877C60.3794 17.9877 59.8354 17.8837 59.3394 17.6757C58.8434 17.4677 58.4434 17.1397 58.1394 16.6917C57.8514 16.2277 57.7074 15.6277 57.7074 14.8917V7.66773H56.0514V5.19573H57.7074V1.11573H60.9234V5.19573H63.5634V7.66773H60.9234V13.8117C60.9394 14.2437 61.0594 14.5557 61.2834 14.7477C61.5074 14.9397 61.7874 15.0357 62.1234 15.0357C62.4594 15.0357 62.7874 14.9797 63.1074 14.8677C63.4274 14.7557 63.6834 14.6597 63.8754 14.5797L64.5234 17.1237ZM71.8898 18.0117C70.8818 18.0117 69.9698 17.8437 69.1538 17.5077C68.3378 17.1557 67.6418 16.6837 67.0658 16.0917C66.4898 15.4837 66.0418 14.7957 65.7218 14.0277C65.4178 13.2437 65.2658 12.4197 65.2658 11.5557C65.2658 10.3557 65.5298 9.25973 66.0578 8.26773C66.6018 7.27573 67.3698 6.48373 68.3618 5.89173C69.3698 5.28373 70.5538 4.97973 71.9138 4.97973C73.2898 4.97973 74.4658 5.28373 75.4418 5.89173C76.4178 6.48373 77.1618 7.27573 77.6738 8.26773C78.2018 9.24373 78.4658 10.2997 78.4658 11.4357C78.4658 11.6277 78.4578 11.8277 78.4418 12.0357C78.4258 12.2277 78.4098 12.3877 78.3938 12.5157H68.6738C68.7378 13.1557 68.9218 13.7157 69.2258 14.1957C69.5458 14.6757 69.9458 15.0437 70.4258 15.2997C70.9218 15.5397 71.4498 15.6597 72.0098 15.6597C72.6498 15.6597 73.2498 15.5077 73.8098 15.2037C74.3858 14.8837 74.7778 14.4677 74.9858 13.9557L77.7458 14.7237C77.4418 15.3637 77.0018 15.9317 76.4258 16.4277C75.8658 16.9237 75.2018 17.3157 74.4338 17.6037C73.6658 17.8757 72.8178 18.0117 71.8898 18.0117ZM68.6018 10.4757H75.1778C75.1138 9.83573 74.9298 9.28373 74.6258 8.81973C74.3378 8.33973 73.9538 7.97173 73.4738 7.71573C72.9938 7.44373 72.4578 7.30773 71.8658 7.30773C71.2898 7.30773 70.7618 7.44373 70.2818 7.71573C69.8178 7.97173 69.4338 8.33973 69.1298 8.81973C68.8418 9.28373 68.6658 9.83573 68.6018 10.4757ZM82.0202 5.19573L84.6602 9.13173L84.8522 9.56373L85.0922 9.13173L87.7082 5.19573H91.0922L86.7242 11.4597L91.1642 17.7717H87.7802L85.0682 13.8597L84.8522 13.4517L84.6602 13.8597L81.9722 17.7717H78.5882L83.0282 11.5317L78.6602 5.19573H82.0202Z" fill="#161E2E"/>
</svg>
