<svg width="164" height="38" viewBox="0 0 164 38" fill="none" xmlns="http://www.w3.org/2000/svg">
<g clip-path="url(#clip0_411_627)">
<path d="M37.5286 19C37.5286 29.3627 29.127 37.7643 18.7643 37.7643C8.40164 37.7643 0 29.3627 0 19C0 8.63736 8.40164 0.235718 18.7643 0.235718C29.1291 0.235718 37.5286 8.63736 37.5286 19Z" fill="#D2D6DC"/>
<path d="M9.25752 19.6306L9.33847 19.5033L14.2198 11.8671C14.2912 11.7553 14.4589 11.7669 14.5128 11.8883C15.3283 13.7159 16.032 15.9889 15.7023 17.4039C15.5616 17.9861 15.176 18.7746 14.7423 19.5033C14.6864 19.6094 14.6247 19.7135 14.5591 19.8137C14.5283 19.86 14.4762 19.887 14.4203 19.887H9.40017C9.26522 19.887 9.18618 19.7405 9.25752 19.6306Z" fill="white"/>
<path d="M31.0154 21.0495V22.2582C31.0154 22.3276 30.973 22.3893 30.9113 22.4163C30.5334 22.5782 29.2398 23.172 28.702 23.92C27.3293 25.8305 26.2806 28.5623 23.9363 28.5623H14.1563C10.69 28.5623 7.8811 25.7438 7.8811 22.2659V22.1541C7.8811 22.0616 7.95627 21.9864 8.04882 21.9864H13.5008C13.6088 21.9864 13.6878 22.0866 13.6782 22.1927C13.6396 22.5474 13.7052 22.9098 13.8729 23.2395C14.1968 23.8969 14.8677 24.3076 15.5925 24.3076H18.2915V22.2004H15.6234C15.4865 22.2004 15.4056 22.0423 15.4846 21.9305C15.5135 21.8861 15.5463 21.8399 15.581 21.7878C15.8335 21.4293 16.194 20.8721 16.5526 20.2378C16.7975 19.8099 17.0346 19.353 17.2254 18.8941C17.264 18.8112 17.2948 18.7264 17.3257 18.6435C17.3777 18.497 17.4317 18.3601 17.4703 18.2232C17.5088 18.1075 17.5397 17.9861 17.5705 17.8723C17.6611 17.4829 17.6997 17.0704 17.6997 16.6424C17.6997 16.4747 17.692 16.2992 17.6766 16.1315C17.6688 15.9484 17.6457 15.7652 17.6226 15.582C17.6071 15.4201 17.5782 15.2601 17.5474 15.0924C17.5088 14.8475 17.4548 14.6046 17.3931 14.3598L17.3719 14.2673C17.3257 14.0995 17.2871 13.9395 17.2332 13.7718C17.0808 13.2455 16.9054 12.7327 16.7203 12.2527C16.6529 12.0618 16.5757 11.8786 16.4986 11.6955C16.3849 11.4198 16.2692 11.1692 16.1632 10.9321C16.1092 10.8241 16.0629 10.7258 16.0167 10.6255C15.9646 10.5118 15.9106 10.398 15.8566 10.2901C15.8181 10.2072 15.7737 10.1301 15.7429 10.053L15.4132 9.44375C15.367 9.36085 15.4441 9.26253 15.5347 9.2876L17.5975 9.84666H17.6033C17.6071 9.84666 17.6091 9.84861 17.611 9.84861L17.8828 9.92378L18.1817 10.0086L18.2915 10.0394V8.81335C18.2915 8.22148 18.7658 7.74146 19.3519 7.74146C19.6449 7.74146 19.9109 7.86098 20.1018 8.05568C20.2926 8.25042 20.4122 8.51646 20.4122 8.81335V10.6333L20.632 10.6949C20.6493 10.7007 20.6666 10.7084 20.6821 10.72C20.7361 10.7605 20.8132 10.8202 20.9115 10.8935C20.9886 10.9552 21.0715 11.0304 21.1717 11.1075C21.3703 11.2675 21.6075 11.4738 21.8677 11.7109C21.9371 11.7707 22.0046 11.8324 22.0663 11.8941C22.4017 12.2064 22.7777 12.5727 23.1363 12.9775C23.2365 13.0913 23.3348 13.2069 23.4351 13.3284C23.5353 13.4518 23.6414 13.5732 23.7339 13.6947C23.8553 13.8566 23.9864 14.0243 24.1002 14.1998C24.1541 14.2827 24.2158 14.3675 24.2679 14.4504C24.4144 14.6721 24.5436 14.9015 24.667 15.1309C24.719 15.237 24.773 15.3526 24.8193 15.4664C24.9561 15.7729 25.0641 16.0852 25.1335 16.3975C25.1547 16.465 25.1701 16.5383 25.1779 16.6038V16.6193C25.201 16.7118 25.2087 16.8101 25.2164 16.9103C25.2472 17.2304 25.2318 17.5504 25.1624 17.8723C25.1335 18.0092 25.0949 18.1384 25.0487 18.2753C25.0024 18.4064 24.9561 18.5432 24.8964 18.6724C24.7807 18.9404 24.6438 19.2084 24.4819 19.459C24.4298 19.5515 24.3681 19.6498 24.3064 19.7424C24.239 19.8407 24.1696 19.9332 24.1079 20.0239C24.0231 20.1395 23.9325 20.261 23.8399 20.3689C23.757 20.4827 23.6722 20.5964 23.5797 20.6967C23.4505 20.849 23.3271 20.9936 23.1979 21.1324C23.1208 21.223 23.0379 21.3155 22.9531 21.3984C22.8702 21.4909 22.7854 21.5738 22.7082 21.6509C22.5791 21.7801 22.4711 21.8804 22.3805 21.9633L22.1685 22.158C22.1376 22.185 22.0971 22.2004 22.0547 22.2004H20.4122V24.3076H22.4788C22.9415 24.3076 23.3811 24.1437 23.7358 23.8429C23.8573 23.7369 24.3874 23.2781 25.014 22.586C25.0352 22.5628 25.0622 22.5455 25.093 22.5378L30.8014 20.8875C30.9075 20.8567 31.0154 20.9376 31.0154 21.0495Z" fill="white"/>
<path d="M55.8138 28.0056C54.1176 28.0056 52.5582 27.6255 51.1363 26.8652C49.7312 26.1049 48.6087 25.0472 47.7692 23.6919C46.947 22.3202 46.5356 20.7831 46.5356 19.0808C46.5356 17.3785 46.947 15.8497 47.7692 14.4944C48.6087 13.1392 49.7312 12.0814 51.1363 11.3212C52.5582 10.5609 54.1176 10.1808 55.8138 10.1808C57.5101 10.1808 59.0608 10.5609 60.4659 11.3212C61.8882 12.0814 63.0017 13.1392 63.8071 14.4944C64.6297 15.8497 65.0406 17.3785 65.0406 19.0808C65.0406 20.7831 64.6297 22.3202 63.8071 23.6919C62.9848 25.0472 61.871 26.1049 60.4659 26.8652C59.0608 27.6255 57.5101 28.0056 55.8138 28.0056ZM55.8138 24.1382C57.2531 24.1382 58.4011 23.6754 59.2578 22.7499C60.1319 21.8243 60.5687 20.6013 60.5687 19.0808C60.5687 17.5437 60.1319 16.3207 59.2578 15.4117C58.4011 14.4862 57.2531 14.0234 55.8138 14.0234C54.3574 14.0234 53.1925 14.4779 52.3184 15.3869C51.4616 16.2959 51.0334 17.5272 51.0334 19.0808C51.0334 20.6178 51.4616 21.8491 52.3184 22.7747C53.1925 23.6837 54.3574 24.1382 55.8138 24.1382Z" fill="#9FA6B2"/>
<path d="M71.8808 15.9571C72.309 15.3126 72.9001 14.7919 73.654 14.3953C74.408 13.9986 75.2903 13.8003 76.3013 13.8003C77.4835 13.8003 78.5545 14.0895 79.5141 14.668C80.4734 15.2465 81.2273 16.0728 81.7756 17.1471C82.3412 18.2214 82.6238 19.4692 82.6238 20.8906C82.6238 22.3119 82.3412 23.568 81.7756 24.6588C81.2273 25.7331 80.4734 26.5677 79.5141 27.1627C78.5545 27.7412 77.4835 28.0304 76.3013 28.0304C75.3076 28.0304 74.4253 27.8321 73.654 27.4354C72.9001 27.0388 72.309 26.5264 71.8808 25.8984V31.9474H67.4858V13.9986H71.8808V15.9571ZM78.1518 20.8906C78.1518 19.8328 77.8434 19.0064 77.2264 18.4115C76.6267 17.7999 75.8814 17.4942 74.9904 17.4942C74.1168 17.4942 73.3715 17.7999 72.7545 18.4115C72.1548 19.023 71.8549 19.8576 71.8549 20.9153C71.8549 21.9731 72.1548 22.8078 72.7545 23.4192C73.3715 24.0308 74.1168 24.3365 74.9904 24.3365C75.8645 24.3365 76.6098 24.0308 77.2264 23.4192C77.8434 22.7912 78.1518 21.9483 78.1518 20.8906Z" fill="#9FA6B2"/>
<path d="M98.4483 20.6922C98.4483 21.0889 98.4227 21.5021 98.3713 21.9318H88.4247C88.4934 22.7912 88.776 23.4523 89.2729 23.9151C89.787 24.3613 90.4123 24.5844 91.1493 24.5844C92.2459 24.5844 93.0081 24.1382 93.4367 23.2457H98.1143C97.8744 24.1547 97.4376 24.9728 96.8034 25.7001C96.1868 26.4272 95.4069 26.9975 94.4646 27.4106C93.5223 27.8238 92.4685 28.0304 91.3036 28.0304C89.8985 28.0304 88.6477 27.7412 87.5511 27.1627C86.4545 26.5843 85.5977 25.7579 84.9807 24.6836C84.3641 23.6093 84.0557 22.3532 84.0557 20.9153C84.0557 19.4775 84.3555 18.2214 84.9552 17.1471C85.5718 16.0728 86.4286 15.2465 87.5252 14.668C88.6218 14.0895 89.8812 13.8003 91.3036 13.8003C92.6914 13.8003 93.9249 14.0813 95.0043 14.6432C96.084 15.2051 96.9235 16.0067 97.5232 17.0479C98.1402 18.0892 98.4483 19.3039 98.4483 20.6922ZM93.9508 19.5766C93.9508 18.8494 93.6938 18.271 93.1796 17.8413C92.6655 17.4116 92.023 17.1967 91.2522 17.1967C90.5151 17.1967 89.8899 17.4033 89.3757 17.8165C88.8788 18.2296 88.5704 18.8164 88.4506 19.5766H93.9508Z" fill="#9FA6B2"/>
<path d="M109.506 13.8499C111.185 13.8499 112.521 14.3787 113.515 15.4365C114.526 16.4777 115.031 17.9156 115.031 19.7501V27.832H110.662V20.3203C110.662 19.3948 110.413 18.6758 109.917 18.1635C109.42 17.6511 108.752 17.395 107.912 17.395C107.072 17.395 106.404 17.6511 105.907 18.1635C105.411 18.6758 105.162 19.3948 105.162 20.3203V27.832H100.767V13.9986H105.162V15.8331C105.608 15.2216 106.207 14.7423 106.961 14.3953C107.715 14.0316 108.563 13.8499 109.506 13.8499Z" fill="#9FA6B2"/>
<path d="M124.614 28.0056C123.294 28.0056 122.112 27.799 121.067 27.3858C120.022 26.9726 119.182 26.3611 118.548 25.5513C117.931 24.7414 117.605 23.7663 117.571 22.6259H122.249C122.318 23.2705 122.549 23.7663 122.943 24.1134C123.337 24.4439 123.851 24.6092 124.485 24.6092C125.136 24.6092 125.65 24.4687 126.027 24.1878C126.404 23.8903 126.593 23.4854 126.593 22.973C126.593 22.5433 126.439 22.188 126.13 21.907C125.839 21.626 125.47 21.3946 125.025 21.2128C124.596 21.031 123.98 20.8244 123.174 20.5931C122.009 20.246 121.058 19.8989 120.321 19.5518C119.585 19.2048 118.951 18.6924 118.419 18.0148C117.888 17.3372 117.623 16.4529 117.623 15.3621C117.623 13.7424 118.231 12.4781 119.448 11.5691C120.664 10.6436 122.249 10.1808 124.202 10.1808C126.19 10.1808 127.792 10.6436 129.009 11.5691C130.225 12.4781 130.876 13.7507 130.962 15.3869H126.207C126.173 14.825 125.959 14.387 125.565 14.073C125.17 13.7424 124.665 13.5772 124.048 13.5772C123.517 13.5772 123.089 13.7176 122.763 13.9986C122.438 14.263 122.275 14.6515 122.275 15.1638C122.275 15.7257 122.549 16.1637 123.097 16.4777C123.646 16.7917 124.502 17.1306 125.667 17.4942C126.833 17.8743 127.775 18.2379 128.494 18.585C129.231 18.932 129.865 19.4361 130.396 20.0972C130.928 20.7583 131.193 21.6095 131.193 22.6507C131.193 23.6424 130.928 24.5431 130.396 25.3529C129.883 26.1628 129.129 26.8073 128.135 27.2867C127.141 27.7659 125.967 28.0056 124.614 28.0056Z" fill="#9FA6B2"/>
<path d="M147.417 20.6922C147.417 21.0889 147.391 21.5021 147.34 21.9318H137.393C137.462 22.7912 137.745 23.4523 138.242 23.9151C138.756 24.3613 139.381 24.5844 140.118 24.5844C141.215 24.5844 141.977 24.1382 142.405 23.2457H147.083C146.843 24.1547 146.406 24.9728 145.773 25.7001C145.156 26.4272 144.376 26.9975 143.433 27.4106C142.491 27.8238 141.437 28.0304 140.272 28.0304C138.867 28.0304 137.616 27.7412 136.52 27.1627C135.423 26.5843 134.566 25.7579 133.949 24.6836C133.333 23.6093 133.024 22.3532 133.024 20.9153C133.024 19.4775 133.324 18.2214 133.924 17.1471C134.541 16.0728 135.397 15.2465 136.494 14.668C137.591 14.0895 138.85 13.8003 140.272 13.8003C141.66 13.8003 142.894 14.0813 143.973 14.6432C145.053 15.2051 145.892 16.0067 146.492 17.0479C147.109 18.0892 147.417 19.3039 147.417 20.6922ZM142.92 19.5766C142.92 18.8494 142.663 18.271 142.148 17.8413C141.634 17.4116 140.992 17.1967 140.221 17.1967C139.484 17.1967 138.859 17.4033 138.344 17.8165C137.848 18.2296 137.539 18.8164 137.419 19.5766H142.92Z" fill="#9FA6B2"/>
<path d="M148.862 20.8906C148.862 19.4692 149.136 18.2214 149.684 17.1471C150.25 16.0728 151.012 15.2465 151.972 14.668C152.931 14.0895 154.002 13.8003 155.185 13.8003C156.195 13.8003 157.078 13.9986 157.832 14.3953C158.603 14.7919 159.194 15.3126 159.605 15.9571V13.9986H164V27.8321H159.605V25.8736C159.177 26.5181 158.577 27.0388 157.806 27.4354C157.052 27.8321 156.17 28.0304 155.159 28.0304C153.993 28.0304 152.931 27.7412 151.972 27.1627C151.012 26.5677 150.25 25.7331 149.684 24.6588C149.136 23.568 148.862 22.3119 148.862 20.8906ZM159.605 20.9153C159.605 19.8576 159.297 19.023 158.68 18.4115C158.08 17.7999 157.343 17.4942 156.47 17.4942C155.596 17.4942 154.85 17.7999 154.234 18.4115C153.634 19.0064 153.334 19.8328 153.334 20.8906C153.334 21.9483 153.634 22.7912 154.234 23.4192C154.85 24.0308 155.596 24.3365 156.47 24.3365C157.343 24.3365 158.08 24.0308 158.68 23.4192C159.297 22.8078 159.605 21.9731 159.605 20.9153Z" fill="#9FA6B2"/>
</g>
<defs>
<clipPath id="clip0_411_627">
<rect width="164" height="37.5286" fill="white" transform="translate(0 0.235718)"/>
</clipPath>
</defs>
</svg>
