<svg width="100" height="26" viewBox="0 0 100 26" fill="none" xmlns="http://www.w3.org/2000/svg">
<g clip-path="url(#clip0_533_7556)">
<path d="M11.4327 23.1267H16.7188L12.3441 14.4077C14.9871 13.4659 16.5973 11.2482 16.5973 8.33171C16.5973 4.50386 13.8631 1.5874 9.60995 1.5874H1.07324V23.1267H5.87324V15.1064H7.57451L11.4327 23.1267ZM5.87324 10.9747V5.74943H8.69856C10.6732 5.74943 11.7365 6.75196 11.7365 8.36209C11.7365 9.88108 10.6732 10.9747 8.69856 10.9747H5.87324Z" fill="#9FA6B2"/>
<path d="M18.6377 18.9647C18.6377 21.3647 20.5516 23.552 23.863 23.552C25.8681 23.552 27.3263 22.7014 28.1162 21.4254C28.1162 22.4584 28.2377 23.0052 28.2681 23.1267H32.4301C32.3997 22.9748 32.2478 21.9723 32.2478 20.7875V13.4052C32.2478 10.3064 30.4554 7.57227 25.5643 7.57227C21.1288 7.57227 19.1238 10.428 18.9415 12.5849L22.9516 13.4052C23.0428 12.2811 23.9238 11.1875 25.5339 11.1875C26.9921 11.1875 27.7516 11.9469 27.7516 12.828C27.7516 13.3444 27.4782 13.7394 26.6579 13.8609L23.1035 14.4077C20.6124 14.7723 18.6377 16.2913 18.6377 18.9647ZM24.9871 20.2103C23.7111 20.2103 23.1947 19.4508 23.1947 18.6609C23.1947 17.5976 23.9238 17.1419 24.8959 16.99L27.7516 16.5343V17.2027C27.7516 19.5419 26.3542 20.2103 24.9871 20.2103Z" fill="#9FA6B2"/>
<path d="M45.7333 8.028C45.4295 7.93686 44.9738 7.8761 44.5181 7.8761C43.3029 7.8761 41.389 8.36217 40.5991 10.0634V8.028H36.1333V23.1267H40.751V16.5343C40.751 13.5267 42.4219 12.4331 44.2751 12.4331C44.7308 12.4331 45.2168 12.4634 45.7333 12.585V8.028Z" fill="#9FA6B2"/>
<path d="M53.1523 23.1267V8.02795H48.5346V23.1267H53.1523ZM48.1396 3.41022C48.1396 4.89883 49.3548 6.11402 50.8131 6.11402C52.332 6.11402 53.5472 4.89883 53.5472 3.41022C53.5472 1.92162 52.332 0.706421 50.8131 0.706421C49.3548 0.706421 48.1396 1.92162 48.1396 3.41022Z" fill="#9FA6B2"/>
<path d="M61.6631 23.1267V21.4254C62.3618 22.5798 63.9112 23.4608 65.9163 23.4608C70.139 23.4608 73.1163 20.1495 73.1163 15.5317C73.1163 11.0051 70.4732 7.66336 66.0985 7.66336C64.0327 7.66336 62.3619 8.514 61.7238 9.45577V1.13171H57.1973V23.1267H61.6631ZM68.4985 15.5621C68.4985 18.0836 66.8884 19.3292 65.096 19.3292C63.3036 19.3292 61.6631 18.0533 61.6631 15.5621C61.6631 13.0102 63.3036 11.8254 65.096 11.8254C66.8884 11.8254 68.4985 13.0102 68.4985 15.5621Z" fill="#9FA6B2"/>
<path d="M80.7134 23.1267V1.13171H76.0957V23.1267H80.7134Z" fill="#9FA6B2"/>
<path d="M88.2822 13.7697C88.3733 12.6457 89.3455 11.2178 91.2898 11.2178C93.4771 11.2178 94.267 12.6153 94.3277 13.7697H88.2822ZM94.6619 17.6887C94.2366 18.8735 93.2948 19.6634 91.6239 19.6634C89.8315 19.6634 88.2822 18.4482 88.191 16.747H98.7024C98.7328 16.6558 98.7936 15.9571 98.7936 15.3191C98.7936 10.4583 95.9075 7.57227 91.229 7.57227C87.31 7.57227 83.6948 10.671 83.6948 15.5318C83.6948 20.6052 87.4011 23.5824 91.5632 23.5824C95.391 23.5824 97.791 21.3951 98.5201 18.7824L94.6619 17.6887Z" fill="#9FA6B2"/>
</g>
<defs>
<clipPath id="clip0_533_7556">
<rect width="100" height="25.3165" fill="white" transform="translate(0 0.341797)"/>
</clipPath>
</defs>
</svg>
