<svg id="EGG_SQUARE" data-name="EGG SQUARE" xmlns="http://www.w3.org/2000/svg" width="21.006" height="21.014" viewBox="0 0 21.006 21.014">
  <g id="EGGMAINLOGOWHITE">
    <g id="Group-2">
      <path id="Combined-Shape" d="M927.175,140.765a10.506,10.506,0,0,1,15.8-13.192c.155,2.564,1.452,3.877,3.2,4.3a10.506,10.506,0,0,1-15.651,12.611,4.045,4.045,0,0,0-3.351-3.719Zm13.42-3.59c0-3.252-1.862-7.268-4.165-7.268s-4.166,4.018-4.166,7.268,1.862,4.5,4.166,4.5S940.594,140.425,940.594,137.176Zm-4.146,1.4a1.824,1.824,0,1,1,1.824-1.825A1.824,1.824,0,0,1,936.449,138.578Z" transform="translate(-925.926 -125.285)"/>
    </g>
  </g>
</svg>
