<svg id="Group_6" data-name="Group 6" xmlns="http://www.w3.org/2000/svg" width="22.915" height="22.914" viewBox="0 0 22.915 22.914">
  <path id="Path_1" data-name="Path 1" d="M815.549,134.211v-.825c.016-.011.01-.027.012-.041a11.455,11.455,0,0,1,16.982-9.518,11.466,11.466,0,0,1,5.917,9.737,11.085,11.085,0,0,1-.161,2.224,11.459,11.459,0,0,1-10.624,9.506,2.494,2.494,0,0,0-.313.02h-.71a.116.116,0,0,0-.056-.009,11.089,11.089,0,0,1-1.829-.213,11.46,11.46,0,0,1-8.795-8.156,11.282,11.282,0,0,1-.4-2.406A2.6,2.6,0,0,0,815.549,134.211Zm5.4,1.12a.159.159,0,0,0,.147.149c.047.009.095.013.142.02l1.112.144c.233.03.466.059.7.092a.2.2,0,0,1,.192.192c.009.053.015.105.022.159.013.087.022.174.037.261a.159.159,0,0,0,.261.111.486.486,0,0,0,.073-.065l1.658-1.735c.056-.058.113-.115.164-.176a.16.16,0,0,0-.008-.244c-.024-.026-.051-.051-.078-.076l-1.12-1.058q-.441-.417-.882-.835a.215.215,0,0,0-.23-.06.408.408,0,0,1-.135.022.257.257,0,0,0-.246.145c-.225.365-.455.729-.683,1.093L821,135.178A.27.27,0,0,0,820.946,135.332Zm7.781,2.384H828.7c0,.136,0,.271,0,.406a.364.364,0,0,0,.091.257q.48.554.958,1.11a.257.257,0,0,0,.294.079.237.237,0,0,0,.155-.243c0-.132-.005-.263-.015-.394a.275.275,0,0,1,.118-.268c.031-.022.062-.045.093-.065l1.955-1.269c.344-.223.689-.445,1.032-.67a.252.252,0,0,0,.034-.429c-.315-.27-.632-.535-.95-.8a.32.32,0,0,0-.3-.076.482.482,0,0,1-.377-.03.168.168,0,0,0-.038-.013.357.357,0,0,0-.3.073l-1.577,1.009c-.33.211-.658.423-.989.631a.31.31,0,0,0-.163.292C828.73,137.449,828.727,137.582,828.727,137.716Zm-3.86.334h0c.238-.012.477-.024.715-.034.334-.014.668-.024,1-.038a.741.741,0,0,0,.3-.074c.245-.12.492-.235.739-.352.157-.075.314-.149.468-.228a.238.238,0,0,0,.1-.349.444.444,0,0,0-.09-.111l-2.109-2.1a.278.278,0,0,0-.431.009l-1.336,1.4c-.175.184-.353.366-.527.55a.278.278,0,0,0,.009.425c.03.03.062.057.092.086q.381.36.761.721a.287.287,0,0,0,.232.09C824.82,138.048,824.843,138.05,824.866,138.05Zm7.175-3.719a.364.364,0,0,0,.309-.16q.558-.748,1.118-1.5a.421.421,0,0,0,.085-.179c.008-.043.034-.087.017-.132a.806.806,0,0,0-.086-.18q-.375-.569-.749-1.139c-.142-.217-.284-.434-.43-.649a.3.3,0,0,0-.321-.138l-1.831.325a.375.375,0,0,0-.238.558c.369.6.73,1.2,1.093,1.794q.37.609.739,1.22A.339.339,0,0,0,832.042,134.331Zm-2.939-3.037c0-.073-.035-.1-.1-.083a.168.168,0,0,0-.077.047q-1.4,1.472-2.8,2.944c-.136.142-.136.153.005.286l1.853,1.749c.122.115.244.23.37.342.076.068.144.042.163-.059.009-.053.012-.106.018-.159q.059-.526.119-1.052.065-.575.131-1.149l.132-1.16q.066-.58.133-1.16C829.061,131.657,829.081,131.475,829.1,131.293Zm2.49,3.207a.261.261,0,0,0-.055-.145l-1.281-2.108q-.282-.465-.566-.929c-.024-.039-.056-.078-.1-.063a.12.12,0,0,0-.072.108c-.038.283-.078.567-.118.85q-.1.731-.2,1.463l-.188,1.36q-.1.694-.19,1.389a.172.172,0,0,0,.059.185c.067.045.128,0,.185-.032l.8-.511c.5-.319,1-.64,1.5-.957a.238.238,0,0,0,.132-.249.38.38,0,0,1,.062-.246A.2.2,0,0,0,831.593,134.5Zm-8.106-2.577c-.005.073.049.118.1.166l1.906,1.8c.05.047.1.1.152.14a.163.163,0,0,0,.245-.005c.026-.023.049-.048.073-.073l1.995-2.093q.377-.4.754-.793c.031-.033.065-.068.037-.12a.139.139,0,0,0-.142-.061l-.411.072-2.26.4-1.679.294c-.209.037-.417.073-.625.113A.155.155,0,0,0,823.487,131.924Zm.335-.494c.018,0,.037,0,.057-.006l2.044-.367,1.942-.35c.3-.055.608-.11.912-.163a.176.176,0,0,0,.149-.117.715.715,0,0,1,.089-.16.157.157,0,0,0,.013-.176c-.241-.515-.479-1.031-.719-1.546-.078-.167-.126-.18-.278-.077l-4.14,2.82c-.033.023-.066.046-.1.072s-.045.025-.035.053S823.8,131.425,823.822,131.43Zm-3.62.7a.271.271,0,0,0,.171.272.318.318,0,0,0,.234-.015l1.7-.6a.284.284,0,0,0,.19-.2.479.479,0,0,1,.349-.346.349.349,0,0,0,.232-.195c.163-.339.329-.676.493-1.014q.215-.442.427-.887a.25.25,0,0,0-.046-.292.242.242,0,0,0-.276-.069.6.6,0,0,0-.1.044l-2.1,1.209a.487.487,0,0,0-.181.179l-.176.3-.867,1.482A.343.343,0,0,0,820.2,132.131Zm7.2-4v0l-.921.04q-.8.032-1.6.06a.214.214,0,0,0-.2.137q-.6,1.323-1.205,2.645a.736.736,0,0,0-.026.076.068.068,0,0,0,.019.078.069.069,0,0,0,.085,0q.033-.019.063-.039l3.511-2.39c.145-.1.291-.2.434-.3a.159.159,0,0,0,.061-.2.171.171,0,0,0-.163-.115Zm-6.728,6.947c.053,0,.089-.055.124-.111l1.615-2.58c.026-.042.054-.084.076-.128a.073.073,0,0,0-.041-.107.136.136,0,0,0-.079.007l-.562.176-1.831.583c-.122.039-.153.1-.116.222.007.022.015.044.022.065l.359,1.008.267.743A.159.159,0,0,0,820.675,135.075Zm13.088.995A.167.167,0,0,0,833.9,136a.327.327,0,0,0,.053-.114c.064-.228.128-.455.19-.683a.373.373,0,0,0,.02-.169c-.053-.3-.1-.594-.155-.891s-.107-.6-.159-.907a.209.209,0,0,0-.111-.169.2.2,0,0,0-.263.07c-.138.183-.273.368-.409.552q-.27.363-.539.726a.219.219,0,0,0-.04.235.515.515,0,0,1,.037.319.2.2,0,0,0,.058.184,1.238,1.238,0,0,0,.093.084l.9.754A.287.287,0,0,0,833.763,136.07Zm-5.089-7.757c-.1,0-.128.047-.1.127l.017.036.3.654.391.841c.024.052.055.1.118.1a.6.6,0,0,1,.434.215.123.123,0,0,0,.127.04c.493-.091.987-.178,1.48-.267.1-.017.191-.035.286-.054a.086.086,0,0,0,.074-.076.09.09,0,0,0-.05-.095l-.071-.038-.854-.428-2.026-1.013A.353.353,0,0,0,828.674,128.313Z" transform="translate(-815.549 -122.4)"/>
</svg>
